<svg xmlns="http://www.w3.org/2000/svg" width="223.493" height="43.832" viewBox="0 0 223.493 43.832">
  <g id="Group_23563" data-name="Group 23563" transform="translate(0 0)">
    <path id="Path_25944" data-name="Path 25944" d="M188.8,160.141V184.67h19.622v-5.155H193.954V160.141Z" transform="translate(-82.689 -140.88)" fill="#fff"/>
    <path id="Path_25945" data-name="Path 25945" d="M233.465,160.15v16.635c0,1.023,0,2.732-3.686,2.732H226.75c-3.687,0-3.687-1.644-3.687-2.732V160.15H217.91v16.635c0,4.938,3.3,7.887,8.84,7.887h3.108c5.485-.031,8.76-2.972,8.76-7.887V160.15Z" transform="translate(-89.86 -140.882)" fill="#fff"/>
    <path id="Path_25946" data-name="Path 25946" d="M269.508,160.138l-7.9,9.441-7.9-9.441H248.55v24.531h5.155V167.532l7.9,9.441,7.9-9.441v17.137h5.154V160.138Z" transform="translate(-97.408 -140.879)" fill="#fff"/>
    <path id="Path_25947" data-name="Path 25947" d="M291.55,179.512V175h7.057v-5.158H291.55v-4.547H305.48v-5.154H286.394v24.529h19.613v-5.155Z" transform="translate(-106.731 -140.879)" fill="#fff"/>
    <path id="Path_25948" data-name="Path 25948" d="M337.251,160.138H314.922v5.156h8.553v19.375h5.155V165.294h5.784Z" transform="translate(-113.758 -140.879)" fill="#fff"/>
    <path id="Path_25949" data-name="Path 25949" d="M154.962,169.268c1.093-1.894,1.629-2.822,1.894-3.362-.009.035-.04.15-.04.15a.506.506,0,0,1,.879,0l10.727,18.615h6l-12.626-21.91a5.234,5.234,0,0,0-9.061,0c-.005,0-9.259,15.935-12.729,21.91h6c1.42-2.415,3.735-6.356,8.957-15.4" transform="translate(-70.668 -140.881)" fill="#fff"/>
    <path id="Path_25950" data-name="Path 25950" d="M112.963,178.39l-3.578-6.2-1.917-3.32-16.2-28.062a12.361,12.361,0,0,0-.928-1.38,12.5,12.5,0,0,0-1.574-1.684l-.017-.016a12.486,12.486,0,0,0-8.265-3.146,12.3,12.3,0,0,0-3.087.394c-.265.066-.526.144-.785.228a12.311,12.311,0,0,0-1.159.447c-.161.071-.319.143-.476.222a12.479,12.479,0,0,0-5.276,4.933l-.1.18c-1.014,1.758-9.261,16.045-15.262,26.441-3.557,6.166-6.326,10.96-6.326,10.96h19.8l6.427-11.132c2.587-4.483,6.2-10.741,6.241-10.808l0,.014c.2.346,2.308,3.979,2.516,4.336v0C87.049,167.824,93,178.131,93.15,178.39h0l.012.014a.088.088,0,0,0,0,.011l0-.021.006,0h19.8Zm-3.351-3.661c.808,1.4,1.351,2.338,1.5,2.593H109.3c.081-.662.2-1.623.317-2.593m-.888-1.541-.506,4.134H95.741l11.1-7.392c.69,1.195,1.324,2.295,1.882,3.258m-58.868,4.134c1.017-1.761,3.563-6.172,4.759-8.247l3.569,6.572.91,1.675Zm6.4-7.467-1.013-1.866.014-.026L70.62,141.35A11.322,11.322,0,0,1,73.7,137.9L60.162,177.046c-.6-1.112-2.565-4.72-3.906-7.191M73.8,165.872c-2.919,5.054-5.98,10.355-6.61,11.45H61.2l2.647-7.653q.4-1.175.848-2.452l2.984-8.621c3.208-9.274,6.549-18.93,7.473-21.6.1-.053.194-.113.3-.164l.431-.2.092-.036-.268,3.627c-.013.168-.026.341-.038.519L75.48,143.2c-.339,4.591-.779,10.542-1.137,15.363Zm5.75-9.961s-2.069,3.584-4.519,7.831c.445-6.034,1.889-25.527,2.022-27.348.219,1.523,1.351,9.4,2.125,14.792l.619,4.3Zm3.427,2.735c-.731-1.262-1.7-2.929-2.189-3.775l-2.718-18.936a11.266,11.266,0,0,1,2.409-.281A11.39,11.39,0,0,1,88,138.5Zm.942,1.62s-.065-.109-.17-.291c.84-3.37,4.288-17.207,5.123-20.551l.616.659s.2.294.4.6l2.476,34.216c-2.735-4.735-8.445-14.629-8.445-14.629m7.188-17.588c2.424,4.2,10.08,17.457,15.2,26.325L93.844,177.3a.25.25,0,0,0-.034.023h-.042l-.168-.292Z" transform="translate(-48.005 -134.584)" fill="#fff"/>
  </g>
</svg>
