<svg id="Component_255_3" data-name="Component 255 – 3" xmlns="http://www.w3.org/2000/svg" width="19.441" height="19.441" viewBox="0 0 19.441 19.441">
  <g id="Group_39012" data-name="Group 39012" transform="translate(0 0)" opacity="0.45">
    <g id="vuesax_bold_sun" data-name="vuesax/bold/sun" transform="translate(0 0)">
      <g id="sun" transform="translate(0)">
        <path id="Vector" d="M11.341,5.67A5.67,5.67,0,1,1,5.67,0,5.67,5.67,0,0,1,11.341,5.67Z" transform="translate(4.05 4.05)" fill="#fff"/>
        <path id="Vector-2" data-name="Vector" d="M8.91,17.788a.785.785,0,0,1-.81-.778v-.065a.81.81,0,1,1,1.62,0A.841.841,0,0,1,8.91,17.788ZM14.694,15.5a.83.83,0,0,1-.575-.235l-.105-.105a.808.808,0,1,1,1.142-1.142l.105.105a.807.807,0,0,1,0,1.142A.8.8,0,0,1,14.694,15.5Zm-11.567,0a.83.83,0,0,1-.575-.235.807.807,0,0,1,0-1.142l.105-.105A.808.808,0,0,1,3.8,15.164l-.105.105A.811.811,0,0,1,3.127,15.5ZM17.011,9.72h-.065a.81.81,0,0,1,0-1.62.841.841,0,0,1,.842.81A.785.785,0,0,1,17.011,9.72ZM.875,9.72H.81a.81.81,0,1,1,0-1.62.841.841,0,0,1,.842.81A.785.785,0,0,1,.875,9.72ZM14.589,4.042a.83.83,0,0,1-.575-.235.807.807,0,0,1,0-1.142l.105-.105A.808.808,0,0,1,15.261,3.7l-.105.105A.8.8,0,0,1,14.589,4.042Zm-11.357,0a.83.83,0,0,1-.575-.235l-.105-.113A.808.808,0,1,1,3.694,2.552l.105.105A.807.807,0,0,1,3.8,3.8.786.786,0,0,1,3.232,4.042ZM8.91,1.652A.785.785,0,0,1,8.1.875V.81a.81.81,0,0,1,1.62,0A.841.841,0,0,1,8.91,1.652Z" transform="translate(0.81 0.81)" fill="#fff"/>
        <path id="Vector-3" data-name="Vector" d="M0,0H19.441V19.441H0Z" transform="translate(19.441 19.441) rotate(180)" fill="none" opacity="0"/>
      </g>
    </g>
  </g>
</svg>
