<svg xmlns="http://www.w3.org/2000/svg" width="27.89" height="27.921" viewBox="0 0 27.89 27.921">
  <path id="Path_23699" data-name="Path 23699" d="M14.382,60.811h1.557c.1.02.209.044.314.059.577.082,1.16.129,1.73.245a13.933,13.933,0,0,1,11.08,12.6A13.606,13.606,0,0,1,27,82.124a13.854,13.854,0,0,1-18.283,5A13.534,13.534,0,0,1,1.463,77.36c-.113-.558-.169-1.127-.252-1.691V73.851c.025-.191.053-.382.075-.573a13.79,13.79,0,0,1,3.986-8.336,13.574,13.574,0,0,1,7.386-3.884c.571-.1,1.149-.166,1.724-.247m2.03,23.324V74.765h2.783c.114-1.26.225-2.483.339-3.749H16.583c0-.609-.021-1.18.008-1.749a.649.649,0,0,1,.576-.614,2.589,2.589,0,0,1,.483-.039c.6,0,1.2,0,1.826,0V65.447a.4.4,0,0,0-.1-.033c-1.124,0-2.251-.041-3.372.018a3.266,3.266,0,0,0-3.126,2.482A11.691,11.691,0,0,0,12.644,70c-.027.328,0,.662,0,1.024H10.807v3.748h1.858v9.368Z" transform="translate(-1.211 -60.811)" fill="#4e4c4c"/>
</svg>
