<svg xmlns="http://www.w3.org/2000/svg" xmlns:xlink="http://www.w3.org/1999/xlink" width="1170.209" height="763.462" viewBox="0 0 1170.209 763.462">
  <defs>
    <linearGradient id="linear-gradient" x1="0.5" x2="0.5" y2="1" gradientUnits="objectBoundingBox">
      <stop offset="0" stop-color="#0033be"/>
      <stop offset="1" stop-color="#5fa9ff"/>
    </linearGradient>
    <radialGradient id="radial-gradient" cx="0.5" cy="0.5" r="0.5" gradientUnits="objectBoundingBox">
      <stop offset="0" stop-color="#2254b1"/>
      <stop offset="1" stop-color="#2254b1" stop-opacity="0"/>
    </radialGradient>
    <clipPath id="clip-path">
      <path id="Path_25990" data-name="Path 25990" d="M0,0H1170.209V703.708H0Z" fill="none" opacity="0.45"/>
    </clipPath>
    <clipPath id="clip-path-2">
      <rect id="Rectangle_22168" data-name="Rectangle 22168" width="1170.209" height="703.708" fill="none"/>
    </clipPath>
    <clipPath id="clip-path-3">
      <rect id="Rectangle_22166" data-name="Rectangle 22166" width="1170.209" height="703.708" fill="url(#linear-gradient)"/>
    </clipPath>
    <clipPath id="clip-path-4">
      <rect id="Rectangle_22167" data-name="Rectangle 22167" width="1042.464" height="611.932" fill="none"/>
    </clipPath>
    <clipPath id="clip-path-5">
      <rect id="Rectangle_22272" data-name="Rectangle 22272" width="325.124" height="201.003" fill="none"/>
    </clipPath>
    <clipPath id="clip-path-7">
      <path id="Path_25738" data-name="Path 25738" d="M157.37,15.791l-147.3,85.041-9.323,0v7.093h0c-.052,1.391.942,2.87,2.932,4.019L156.5,200.167c3.549,2.049,8.917,2.271,11.991.5L323.038,111.44a3.55,3.55,0,0,0,2.068-3.016h.006v-7.437l-9.055,0L169.361,16.288a13.935,13.935,0,0,0-6.783-1.695,10.62,10.62,0,0,0-5.208,1.2" transform="translate(-0.752 -14.593)" fill="none"/>
    </clipPath>
    <linearGradient id="linear-gradient-3" x1="0.064" y1="0.79" x2="0.065" y2="0.79" gradientUnits="objectBoundingBox">
      <stop offset="0" stop-color="#473af7"/>
      <stop offset="1" stop-color="#269ff3"/>
    </linearGradient>
    <clipPath id="clip-path-8">
      <path id="Path_25739" data-name="Path 25739" d="M157.37,1.2,2.827,90.424C-.246,92.2.14,95.3,3.688,97.347L156.5,185.574c3.549,2.049,8.917,2.272,11.991.5L323.038,96.847c3.074-1.774,2.688-4.874-.861-6.923L169.361,1.7A13.937,13.937,0,0,0,162.578,0a10.613,10.613,0,0,0-5.208,1.2" transform="translate(-0.753 0)" fill="none"/>
    </clipPath>
    <linearGradient id="linear-gradient-4" x1="0.5" y1="0" x2="0.5" y2="1" xlink:href="#linear-gradient-3"/>
    <clipPath id="clip-path-10">
      <rect id="Rectangle_22173" data-name="Rectangle 22173" width="301.956" height="174.335" fill="none"/>
    </clipPath>
    <clipPath id="clip-path-11">
      <rect id="Rectangle_22174" data-name="Rectangle 22174" width="26.002" height="10.369" fill="none"/>
    </clipPath>
    <clipPath id="clip-path-12">
      <rect id="Rectangle_22175" data-name="Rectangle 22175" width="26.002" height="10.368" fill="none"/>
    </clipPath>
    <clipPath id="clip-path-13">
      <rect id="Rectangle_22176" data-name="Rectangle 22176" width="26.001" height="10.368" fill="none"/>
    </clipPath>
    <clipPath id="clip-path-15">
      <rect id="Rectangle_22178" data-name="Rectangle 22178" width="26.001" height="10.369" fill="none"/>
    </clipPath>
    <clipPath id="clip-path-16">
      <rect id="Rectangle_22179" data-name="Rectangle 22179" width="26" height="10.368" fill="none"/>
    </clipPath>
    <clipPath id="clip-path-20">
      <rect id="Rectangle_22183" data-name="Rectangle 22183" width="26" height="10.37" fill="none"/>
    </clipPath>
    <clipPath id="clip-path-21">
      <rect id="Rectangle_22184" data-name="Rectangle 22184" width="26.001" height="10.367" fill="none"/>
    </clipPath>
    <clipPath id="clip-path-24">
      <rect id="Rectangle_22187" data-name="Rectangle 22187" width="26" height="10.369" fill="none"/>
    </clipPath>
    <clipPath id="clip-path-31">
      <rect id="Rectangle_22194" data-name="Rectangle 22194" width="26.002" height="10.37" fill="none"/>
    </clipPath>
    <clipPath id="clip-path-51">
      <path id="Path_25782" data-name="Path 25782" d="M112.612,159.162v12.165L217.877,232.1l105.267-60.777V159.16Z" transform="translate(-112.612 -159.16)" fill="none"/>
    </clipPath>
    <linearGradient id="linear-gradient-5" x1="-0.271" y1="1.649" x2="-0.269" y2="1.649" xlink:href="#linear-gradient-3"/>
    <clipPath id="clip-path-53">
      <rect id="Rectangle_22217" data-name="Rectangle 22217" width="161.931" height="93.491" fill="none"/>
    </clipPath>
    <clipPath id="clip-path-54">
      <path id="Path_25786" data-name="Path 25786" d="M241.494,160.5l80.967-46.746L241.5,67.014,160.53,113.76Z" transform="translate(-160.53 -67.014)" fill="none"/>
    </clipPath>
    <linearGradient id="linear-gradient-7" x1="-0.503" y1="1.786" x2="-0.5" y2="1.786" gradientUnits="objectBoundingBox">
      <stop offset="0" stop-color="#42e8e0"/>
      <stop offset="0.151" stop-color="#42e3df"/>
      <stop offset="0.329" stop-color="#44d4de"/>
      <stop offset="0.52" stop-color="#48bddd"/>
      <stop offset="0.721" stop-color="#4d9bda"/>
      <stop offset="0.927" stop-color="#5471d8"/>
      <stop offset="1" stop-color="#5761d7"/>
    </linearGradient>
    <clipPath id="clip-path-55">
      <rect id="Rectangle_22219" data-name="Rectangle 22219" width="80.967" height="58.533" fill="none"/>
    </clipPath>
    <clipPath id="clip-path-56">
      <path id="Path_25787" data-name="Path 25787" d="M241.5,43.77,160.53,90.516V102.3L241.5,55.557Z" transform="translate(-160.53 -43.77)" fill="none"/>
    </clipPath>
    <linearGradient id="linear-gradient-8" x1="-1.005" y1="3.055" x2="-0.999" y2="3.055" xlink:href="#linear-gradient-7"/>
    <clipPath id="clip-path-57">
      <rect id="Rectangle_22221" data-name="Rectangle 22221" width="80.967" height="58.532" fill="none"/>
    </clipPath>
    <clipPath id="clip-path-58">
      <path id="Path_25788" data-name="Path 25788" d="M320.18,55.557,401.147,102.3V90.515L320.183,43.77Z" transform="translate(-320.18 -43.77)" fill="none"/>
    </clipPath>
    <linearGradient id="linear-gradient-9" x1="-2.005" y1="3.055" x2="-1.999" y2="3.055" xlink:href="#linear-gradient-7"/>
    <clipPath id="clip-path-60">
      <path id="Path_25789" data-name="Path 25789" d="M241.494,137.261l80.967-46.746L241.5,43.77,160.53,90.516Z" transform="translate(-160.53 -43.77)" fill="none"/>
    </clipPath>
    <linearGradient id="linear-gradient-10" x1="-0.503" y1="1.913" x2="-0.5" y2="1.913" gradientUnits="objectBoundingBox">
      <stop offset="0" stop-color="#0033be"/>
      <stop offset="1" stop-color="#0076ff"/>
    </linearGradient>
    <clipPath id="clip-path-61">
      <rect id="Rectangle_22224" data-name="Rectangle 22224" width="64.704" height="37.357" fill="none"/>
    </clipPath>
    <clipPath id="clip-path-62">
      <rect id="Rectangle_22225" data-name="Rectangle 22225" width="64.704" height="19.538" fill="none"/>
    </clipPath>
    <clipPath id="clip-path-63">
      <rect id="Rectangle_22227" data-name="Rectangle 22227" width="80.964" height="58.531" fill="none"/>
    </clipPath>
    <clipPath id="clip-path-64">
      <path id="Path_25792" data-name="Path 25792" d="M241.494,182.692v11.787L160.53,147.734V135.947Z" transform="translate(-160.53 -135.947)" fill="none"/>
    </clipPath>
    <linearGradient id="linear-gradient-11" x1="-1.006" y1="2.256" x2="-0.999" y2="2.256" xlink:href="#linear-gradient-10"/>
    <clipPath id="clip-path-66">
      <path id="Path_25793" data-name="Path 25793" d="M401.147,135.944v11.787L320.18,194.477V182.69Z" transform="translate(-320.18 -135.944)" fill="none"/>
    </clipPath>
    <linearGradient id="linear-gradient-12" x1="-2.005" y1="2.256" x2="-1.999" y2="2.256" xlink:href="#linear-gradient-10"/>
    <clipPath id="clip-path-67">
      <rect id="Rectangle_22230" data-name="Rectangle 22230" width="161.931" height="47.389" fill="none"/>
    </clipPath>
    <clipPath id="clip-path-68">
      <rect id="Rectangle_22231" data-name="Rectangle 22231" width="26.002" height="28.398" fill="none"/>
    </clipPath>
    <clipPath id="clip-path-69">
      <rect id="Rectangle_22232" data-name="Rectangle 22232" width="26.001" height="28.397" fill="none"/>
    </clipPath>
    <clipPath id="clip-path-70">
      <rect id="Rectangle_22233" data-name="Rectangle 22233" width="26.002" height="28.399" fill="none"/>
    </clipPath>
    <clipPath id="clip-path-71">
      <rect id="Rectangle_22234" data-name="Rectangle 22234" width="26.001" height="28.398" fill="none"/>
    </clipPath>
    <clipPath id="clip-path-74">
      <rect id="Rectangle_22237" data-name="Rectangle 22237" width="26" height="28.399" fill="none"/>
    </clipPath>
    <clipPath id="clip-path-75">
      <rect id="Rectangle_22238" data-name="Rectangle 22238" width="26" height="28.398" fill="none"/>
    </clipPath>
    <clipPath id="clip-path-78">
      <rect id="Rectangle_22241" data-name="Rectangle 22241" width="26.001" height="28.399" fill="none"/>
    </clipPath>
    <clipPath id="clip-path-88">
      <rect id="Rectangle_22251" data-name="Rectangle 22251" width="26" height="28.397" fill="none"/>
    </clipPath>
    <clipPath id="clip-path-89">
      <rect id="Rectangle_22252" data-name="Rectangle 22252" width="26.002" height="28.397" fill="none"/>
    </clipPath>
  </defs>
  <g id="Group_38288" data-name="Group 38288" transform="translate(0 -303.841)">
    <circle id="Ellipse_101" data-name="Ellipse 101" cx="323.832" cy="323.832" r="323.832" transform="translate(34.994 419.639)" opacity="0.25" fill="url(#radial-gradient)"/>
    <g id="Group_23033" data-name="Group 23033" transform="translate(0 303.841)" opacity="0.15">
      <g id="Group_10" data-name="Group 10" clip-path="url(#clip-path)">
        <g id="Group_23031" data-name="Group 23031">
          <g id="Group_23030" data-name="Group 23030" clip-path="url(#clip-path-2)">
            <g id="Group_23026" data-name="Group 23026" opacity="0.75">
              <g id="Group_23025" data-name="Group 23025">
                <g id="Group_23024" data-name="Group 23024" clip-path="url(#clip-path-3)">
                  <path id="Path_25735" data-name="Path 25735" d="M32.44,6.1a9.68,9.68,0,0,0,8.758,0c.105-.061.18-.131.277-.2L176.765,84.018l0,97.222L0,79.182v1.6L209.8,201.911l0,107.491,113.158,65.332L302.934,386.3,192.781,322.7l.348-.6L88.318,261.584v-13.23l-21.271-12.28V198.221L0,159.511v1.6L65.66,199.02v36.252L38.575,219.635c1.752-1.4,1.557-3.357-.624-4.616a9.678,9.678,0,0,0-8.758,0c-2.419,1.4-2.419,3.66,0,5.057a9.79,9.79,0,0,0,7.995.36l49.745,28.719v13.23l103.96,60.021H142.614L0,240.067v1.6L139.842,322.4,0,322.4v1.387l191.9,0,109.648,63.3L280.8,399.073l-79.484-45.89-.161-.094L0,353.088v1.387H142.556L99.2,379.5,0,379.5v1.386l99.575,0,45.752-26.416h55.46l78.631,45.4L261.16,410.415l-69.585-40.177-.161-.093H163.39l-56.867,32.832L0,402.976v1.386l106.895,0,56.867-32.832h27.281L241.568,400.7H216.306l-24.646-14.229H172.525l-42.576,24.581a9.815,9.815,0,0,0-7.86.424c-2.419,1.4-2.419,3.66,0,5.056a9.68,9.68,0,0,0,8.758,0c2.223-1.283,2.376-3.292.513-4.694L172.9,387.86h18.393l24.646,14.23H243.97l15.8,9.125-25.7,14.838h-37.9l-46.933,27.1a9.788,9.788,0,0,0-8,.36c-2.418,1.4-2.418,3.66,0,5.056a9.68,9.68,0,0,0,8.758,0c2.181-1.259,2.376-3.219.622-4.616l45.919-26.51h35.128l-12.084,6.977,18.78,10.842L187.549,474.6H134.111L77.746,442.057c1.753-1.4,1.558-3.358-.623-4.616a9.675,9.675,0,0,0-8.758,0c-2.419,1.4-2.419,3.66,0,5.056a9.8,9.8,0,0,0,8,.36l29.03,16.761L0,459.615v1.592l.356-.2,107.435,0,25.788,14.888.16.094h51.408l-21.074,12.167-120.922,0-31.21,18.02H0v1.387H9.54L0,513.065v1.6l43.523-25.129,120.922,0,75.31-43.48,35.1,20.263L187.242,516.9H92.951L0,570.569v1.6l93.323-53.88H184.84L69.119,585.1l0,53.488L0,678.5v1.6l70.508-40.708,0-53.488L276.238,467.122l30.2,17.435L182.782,555.948l0,107.492-69.748,40.268h2.773l68.361-39.468,0-107.492,123.654-71.391,18.633,10.758-91.624,52.9,0,125.984-44.042,25.429v3.281h1.386v-2.482L236.223,675.8l0-125.983,91.622-52.9,25.141,14.515-70.1,40.474,0,151.805h1.387l0-64.624,35.149,20.293,0,44.331H320.8V658.578l-36.537-21.094V600.315l46.247,26.7c-1.616,1.39-1.364,3.289.764,4.517a9.677,9.677,0,0,0,8.758,0c2.419-1.4,2.419-3.661,0-5.057a9.765,9.765,0,0,0-8.168-.279l-47.6-27.482V552.7l70.1-40.474,22.389,12.926-34.069,19.669,0,28.973,8.6,4.966v14.773l61.4,35.453V654.02l49.994,28.864c-1.753,1.4-1.558,3.357.623,4.616a9.68,9.68,0,0,0,8.758,0c2.419-1.4,2.419-3.661,0-5.057a9.793,9.793,0,0,0-8-.359L414.081,653.22V628.19l-61.4-35.453V579.565l103.209,59.586c-1.617,1.39-1.365,3.289.763,4.517a9.68,9.68,0,0,0,8.758,0c2.419-1.4,2.419-3.66,0-5.056a9.76,9.76,0,0,0-8.167-.279l-82.746-47.773h41.522l47.611,27.487c-1.754,1.4-1.559,3.357.623,4.617a9.68,9.68,0,0,0,8.758,0c2.418-1.4,2.418-3.66,0-5.056a9.79,9.79,0,0,0-7.995-.361l-48.464-27.981-.161-.093H372.221v.074L344.074,573V545.625l34.068-19.669,6.756,3.9,8.781-5.069,143.044,82.586.161.094H575.9a3.559,3.559,0,0,0,1.7,1.835,9.68,9.68,0,0,0,8.758,0c2.419-1.4,2.419-3.66,0-5.056a9.675,9.675,0,0,0-8.758,0,3.558,3.558,0,0,0-1.695,1.834H537.255L395.064,523.987l21.747-12.555,118.869,68.629c-1.752,1.4-1.557,3.357.624,4.616a9.677,9.677,0,0,0,8.758,0c2.419-1.4,2.419-3.66,0-5.057a9.79,9.79,0,0,0-8-.359L418.2,510.632l22.527-13.006L608.7,594.6l0,81.193-48.342,27.911h2.772l28.812-16.635,28.812,16.635h2.772l-30.2-17.435,16.758-9.676,0-63.856,28.395,16.394v39.876l57.753,33.342a3.128,3.128,0,0,0-1.022,1.355h12.077a3.583,3.583,0,0,0-1.674-1.795,9.793,9.793,0,0,0-7.995-.36l-57.753-33.342V628.336l-29.781-17.194V593.8L442.11,496.826l24.747-14.287,325.628,188v33.169h1.387l0-33.969-325.629-188,20.027-11.562,167.819,96.89.16.094H778.354l53.865,31.1H831.9V631.3l61.009,35.225c-1.752,1.4-1.557,3.357.623,4.616a9.681,9.681,0,0,0,8.759,0c2.418-1.4,2.418-3.66,0-5.057a9.791,9.791,0,0,0-8-.359L833.289,630.5l0-31.628,92.558,53.438.16.094,205.078,0,39.126-22.589v-1.6l-39.5,22.8-204.331,0L778.888,565.866l-.16-.094H656.622l-166.966-96.4,17.632-10.18L666.1,550.884l.16.094,140.136,0,68.256,39.407c-1.752,1.4-1.557,3.357.624,4.616a9.68,9.68,0,0,0,8.758,0c2.419-1.4,2.418-3.661,0-5.057a9.79,9.79,0,0,0-8-.359l-69.108-39.9-.16-.093-140.135,0-23.5-13.567,187.282,0,148.086-85.5a9.793,9.793,0,0,0,8-.36c2.418-1.4,2.418-3.66,0-5.056a9.678,9.678,0,0,0-8.758,0c-2.181,1.259-2.376,3.218-.623,4.616L830.04,534.639H640.73l-59.236-34.2L604.765,487h41.293l38.663-22.321a9.8,9.8,0,0,0,8-.36c2.418-1.4,2.418-3.661,0-5.057a9.68,9.68,0,0,0-8.759,0c-2.181,1.259-2.376,3.219-.623,4.616l-37.65,21.736H607.166l89.99-51.955,83.208,0,46.416,26.8c-1.753,1.4-1.557,3.357.623,4.616a9.68,9.68,0,0,0,8.758,0c2.419-1.4,2.419-3.66,0-5.057a9.793,9.793,0,0,0-8-.359L780.9,432.37l-.161-.094H696.783L580.108,499.638l-49.59-28.63H557.9l22.039-12.724a9.779,9.779,0,0,0,8.091-.315c2.419-1.4,2.419-3.661,0-5.057a9.68,9.68,0,0,0-8.758,0c-2.152,1.242-2.377,3.167-.7,4.562L557.525,469.62H528.117L508.673,458.4,550.2,434.419l-13.013-7.513,71.631-41.356h23.9l28.53,16.471c-1.753,1.4-1.558,3.357.623,4.616a9.68,9.68,0,0,0,8.758,0c2.419-1.4,2.419-3.661,0-5.057a9.794,9.794,0,0,0-8-.359l-29.382-16.964-.16-.094H608.445L556.4,414.213V386.7l48.8-28.176a9.793,9.793,0,0,0,8-.36c2.418-1.4,2.418-3.66,0-5.057a9.685,9.685,0,0,0-8.758,0c-2.181,1.26-2.376,3.219-.623,4.616l-48.8,28.177v29.113L535.8,426.106,468.24,387.1,499.583,369l40.642,0,64.261-37.1h48.753l67.8,39.14c-1.753,1.4-1.558,3.357.622,4.616a9.68,9.68,0,0,0,8.758,0c2.419-1.4,2.419-3.66,0-5.056a9.793,9.793,0,0,0-7.995-.361l-68.648-39.633-.161-.093h-49.5l-64.259,37.1-37.87,0,188.281-108.7,133.01,0,83.8-48.382.347-.2v-74.39a9.206,9.206,0,0,0,4.967-1.015c2.419-1.4,2.419-3.66,0-5.057a9.686,9.686,0,0,0-8.759,0c-2.418,1.4-2.418,3.661,0,5.057a7.814,7.814,0,0,0,2.4.847l0,73.758-83.131,48H689.891L466.854,386.3l-25.312-14.614L666.73,241.672l.346-.2,0-77.7,77.045-44.481a9.79,9.79,0,0,0,7.995-.36c2.418-1.4,2.418-3.661,0-5.056a9.675,9.675,0,0,0-8.758,0c-2.181,1.259-2.376,3.218-.623,4.616l-76.7,44.281-.347.2,0,77.7L440.156,370.884l-26.588-15.351,132.1-76.267.347-.2,0-66.683L319.093,81.372c1.752-1.4,1.557-3.357-.624-4.616a9.685,9.685,0,0,0-8.758,0c-2.419,1.4-2.418,3.661,0,5.057a9.791,9.791,0,0,0,7.994.361L484.548,178.5H434.394l-89.964-51.94c1.752-1.4,1.557-3.357-.623-4.616a9.68,9.68,0,0,0-8.758,0c-2.419,1.4-2.419,3.661,0,5.057a9.792,9.792,0,0,0,7.995.36l90.819,52.434.16.093H486.95l57.674,33.3,0,65.082-106.342,61.4V306.588l65.341-37.724.347-.2V235.175a8.581,8.581,0,0,0,3.685-1.009c2.419-1.4,2.419-3.66,0-5.056a9.68,9.68,0,0,0-8.758,0c-2.419,1.4-2.419,3.66,0,5.056a8.587,8.587,0,0,0,3.686,1.009v32.688l-65.341,37.724-.347.2v34.675l-24.717,14.27-27.288-15.755-16.562,9.562V276.318l57.63-33.271a9.793,9.793,0,0,0,7.995-.361c2.419-1.4,2.419-3.66,0-5.056a9.68,9.68,0,0,0-8.758,0c-2.181,1.259-2.376,3.218-.623,4.616l-57.283,33.072-.347.2v29.468l-43.089-24.877,0-27.954L417.828,197.9a9.793,9.793,0,0,0,7.995-.36c2.419-1.4,2.419-3.66,0-5.056a9.675,9.675,0,0,0-8.758,0c-2.181,1.259-2.376,3.218-.624,4.615l-93.627,54.056-.347.2v29.554l44.476,25.68,0,42.753-23.579,13.613-19.942-11.513v-26.15L293.2,307.84c1.752-1.4,1.558-3.357-.623-4.616a9.677,9.677,0,0,0-8.759,0c-2.418,1.4-2.418,3.66,0,5.056a9.79,9.79,0,0,0,7.995.36l30.224,17.45v24.55l-65.93-38.065V255.252l99.209-57.278.347-.2V176.19L299.557,143.8c1.752-1.4,1.557-3.357-.625-4.616a9.68,9.68,0,0,0-8.758,0c-2.418,1.4-2.418,3.66,0,5.057a9.793,9.793,0,0,0,7.995.36l56.106,32.392v19.982l-99.209,57.279-.346.2v58.924l87.259,50.378-17.632,10.181L211.189,308.6l0-107.491L178.153,182.04l0-98.823L42.552,4.928c.914-1.293.464-2.832-1.354-3.881a9.68,9.68,0,0,0-8.758,0c-2.419,1.4-2.419,3.661,0,5.057" transform="translate(0 0)" fill="url(#linear-gradient)"/>
                </g>
              </g>
            </g>
            <g id="Group_23029" data-name="Group 23029" transform="translate(0 91.777)" opacity="0.1">
              <g id="Group_23028" data-name="Group 23028">
                <g id="Group_23027" data-name="Group 23027" clip-path="url(#clip-path-4)">
                  <path id="Path_25736" data-name="Path 25736" d="M0,198.249,27.8,214.3l0,53.748L284.459,416.23l-15.783,9.112L136.4,348.974l-.127-.073-96.243,0L0,325.787v1.263l39.612,22.87.127.072,96.243,0,131.6,75.978L253.686,434,128.513,361.727l-.127-.072-110.454,0L0,351.3v1.263l17.512,10.111.127.073,110.454,0,18.52,10.693L0,373.439v1.093l148.507,0,46.687,26.955L176.848,412.08l-32.541,0-30.475,17.594a7.718,7.718,0,0,0-6.3.285c-1.906,1.1-1.906,2.885,0,3.985a7.628,7.628,0,0,0,6.9,0c1.719-.993,1.873-2.536.491-3.638L144.6,413.172l30.355,0-70.923,40.948H38.448L1.865,433c1.381-1.1,1.227-2.645-.492-3.638A5.848,5.848,0,0,0,0,428.816v5.03a6.861,6.861,0,0,0,.771-.215l37.257,21.511.127.072h66.171l91.962-53.093,39.083,22.564H213.795l-17.372,10.03a7.706,7.706,0,0,0-6.376.249c-1.906,1.1-1.906,2.885,0,3.985a7.63,7.63,0,0,0,6.9,0c1.7-.979,1.874-2.5.553-3.595l16.584-9.577h23.176l15.327,8.85-31.912,18.423-.82.474,10.255,5.921-56.457,32.6H154.819l-22.486-12.982c1.382-1.1,1.227-2.646-.492-3.638a7.628,7.628,0,0,0-6.9,0c-1.906,1.1-1.906,2.885,0,3.985a7.721,7.721,0,0,0,6.3.285l23.16,13.37.127.073h19.426l41.022-23.684v21.683l-38.467,22.208a7.717,7.717,0,0,0-6.3.284c-1.906,1.1-1.906,2.885,0,3.985a7.628,7.628,0,0,0,6.9,0c1.719-.992,1.873-2.535.493-3.637l38.466-22.208V468.821l15.143-8.742,53.251,30.745-24.7,14.262H227.724l-50.649,29.242-38.427,0L85.214,503.476c1.38-1.1,1.227-2.646-.493-3.638a7.633,7.633,0,0,0-6.9,0c-1.906,1.1-1.906,2.885,0,3.986a7.717,7.717,0,0,0,6.3.284l54.109,31.239.127.073,39.014,0,50.649-29.242h29.846l-148.4,85.679H4.628L0,594.529v1.262l4.921-2.84H109.758l175.8-101.5L305.5,502.973,128.015,605.446l-.273.158v61.24L67.016,701.906a7.72,7.72,0,0,0-6.3.284c-1.906,1.1-1.906,2.885,0,3.985a7.629,7.629,0,0,0,6.9,0c1.719-.992,1.873-2.535.493-3.637l60.725-35.061,0-61.24L306.6,503.605l20.953,12.1L223.435,575.815l-.273.158,0,52.56L401.495,731.494h7.985c-.025-.015-.041-.032-.067-.047a7.718,7.718,0,0,0-6.3-.284l-131.5-75.923h39.529l70.908,40.94c-1.38,1.1-1.226,2.645.493,3.637a7.626,7.626,0,0,0,6.9,0c1.907-1.1,1.907-2.885,0-3.986a7.72,7.72,0,0,0-6.3-.283l-71.582-41.33-.127-.072H269.716L224.257,627.9l0-51.3,83.817-48.391v26.068L256.3,584.171v26.4a6.774,6.774,0,0,0-2.905.8c-1.906,1.1-1.906,2.885,0,3.985a7.63,7.63,0,0,0,6.9,0c1.906-1.1,1.906-2.885,0-3.985a6.774,6.774,0,0,0-2.9-.8l0-25.764,51.775-29.891V527.581l19.481-11.247,21.236,12.26.273.157,13.053-7.536,0,56.923-45.424,26.226a7.719,7.719,0,0,0-6.3.283c-1.906,1.1-1.906,2.885,0,3.985a7.625,7.625,0,0,0,6.9,0c1.718-.992,1.873-2.535.493-3.637L364.3,578.771V555.544l33.962,19.607v22.033l-74.07,42.764a7.718,7.718,0,0,0-6.3.283c-1.907,1.1-1.907,2.885,0,3.986a7.628,7.628,0,0,0,6.9,0c1.719-.992,1.873-2.536.492-3.638l73.8-42.606.273-.158v-23.3L364.3,554.281l0-33.7,18.585-10.729,15.718,9.075v20.612l23.822,13.754c-1.381,1.1-1.227,2.645.492,3.637a7.627,7.627,0,0,0,6.9,0c1.906-1.1,1.906-2.885,0-3.986a7.723,7.723,0,0,0-6.3-.284L399.7,538.908l0-19.348,51.966,30v45.181l-78.2,45.146-.273.158V657.06l44.222,25.531c-1.381,1.1-1.227,2.646.492,3.638a7.628,7.628,0,0,0,6.9,0c1.907-1.1,1.907-2.885,0-3.985a7.717,7.717,0,0,0-6.3-.285l-44.223-25.531V640.679l78.2-45.146.274-.158V548.928l-68.775-39.706,13.9-8.023,89.191,51.495,0,84.724,26.036,15.032,0,77.889,2,1.154h2.188l-3.094-1.787,0-76.626,135.816,78.413H652.2L488.163,636.786l0-84.724-89.189-51.494,15.782-9.112,86.822,50.129-.273.474,82.611,47.7V600.18l16.766,9.681V639.7L724.01,710.9c-1.381,1.1-1.227,2.645.492,3.638a7.629,7.629,0,0,0,6.9,0c1.907-1.1,1.906-2.885,0-3.985a7.717,7.717,0,0,0-6.3-.284L601.772,639.064V610.492l21.347,12.325c-1.381,1.1-1.227,2.646.492,3.638a7.632,7.632,0,0,0,6.9,0c1.906-1.1,1.906-2.885,0-3.985a7.716,7.716,0,0,0-6.3-.284l-39.208-22.637V589.122l-81.937-47.307h38.046l163.86,94.6,0,24.738L769.9,698.639c-1.382,1.1-1.228,2.646.491,3.638a7.628,7.628,0,0,0,6.9,0c1.906-1.1,1.906-2.885,0-3.986a7.721,7.721,0,0,0-6.3-.284L706.07,660.523l0-24.738L543.3,541.815H654.152l133.254,76.936.127.072,155.851,0,91.349-52.74a7.718,7.718,0,0,0,6.3-.284c1.907-1.1,1.907-2.885,0-3.986a7.632,7.632,0,0,0-6.9,0c-1.719.992-1.873,2.535-.494,3.637l-90.546,52.28-155.265,0L654.571,540.794l-.126-.073H502.27l-86.422-49.9,16.348-9.438,62.649,36.171.127.073H671.293L794.908,589c-1.38,1.1-1.225,2.645.493,3.637a7.63,7.63,0,0,0,6.9,0c1.906-1.1,1.906-2.885,0-3.985a7.719,7.719,0,0,0-6.3-.284l-124.29-71.76-.125-.073H541.165l34.168-19.728,92.262,0a2.811,2.811,0,0,0,1.336,1.445,7.628,7.628,0,0,0,6.9,0c1.906-1.1,1.906-2.885,0-3.985a7.63,7.63,0,0,0-6.9,0,2.805,2.805,0,0,0-1.336,1.447l-92.555,0-36.064,20.821H495.265L433.29,480.753l14.388-8.306,54.848,31.665.127.072h22.089l44.822-25.876H704.729l84.655-48.874a7.735,7.735,0,0,0,6.215-.325c1.906-1.1,1.906-2.885,0-3.986a7.63,7.63,0,0,0-6.9,0c-1.745,1.008-1.872,2.584-.421,3.688l-83.839,48.4H569.27l-44.823,25.876h-21.5L463.125,480.1h19.907l19.3,11.142.127.072h15.083L551.1,471.94a7.735,7.735,0,0,0,6.195-.334c1.906-1.1,1.906-2.885,0-3.985a7.628,7.628,0,0,0-6.9,0c-1.752,1.011-1.874,2.594-.405,3.7l-32.739,18.9h-14.5l-19.3-11.142-.126-.073H461.231l-12.458-7.192,20.258-11.7,29.871,0,36.993-21.357a7.72,7.72,0,0,0,6.3-.285c1.906-1.1,1.906-2.885,0-3.985a7.63,7.63,0,0,0-6.9,0c-1.719.993-1.873,2.536-.492,3.638l-36.192,20.9-27.685,0,8.7-5.025.82-.474-14.8-8.544L505.7,421.857h42.119l44.425,25.65c-1.38,1.1-1.226,2.645.493,3.637a7.623,7.623,0,0,0,6.9,0c1.907-1.1,1.907-2.885,0-3.985a7.722,7.722,0,0,0-6.3-.283l-22.882-13.211,83.081,0,23.888-13.791h47.607a2.812,2.812,0,0,0,1.336,1.446,7.629,7.629,0,0,0,6.9,0c1.906-1.1,1.906-2.885,0-3.985a7.63,7.63,0,0,0-6.9,0,2.81,2.81,0,0,0-1.336,1.446h-47.9l-23.888,13.792-84.68,0-20.324-11.734-.127-.073H507.594l16.609-9.59h95.309l24.6-14.2h72.937l34.874-20.134a7.718,7.718,0,0,0,6.3-.284c1.907-1.1,1.907-2.885,0-3.985a7.628,7.628,0,0,0-6.9,0c-1.719.993-1.873,2.536-.491,3.638L716.753,395.88H646l81.912-47.292,60.137,0,25.318-14.618a7.717,7.717,0,0,0,6.3-.284c1.906-1.1,1.906-2.885,0-3.985a7.63,7.63,0,0,0-6.9,0c-1.719.993-1.872,2.536-.491,3.638L787.758,347.5l-60.137,0-108.4,62.586H523.909l-59.357,34.27L436.89,428.38l69.055-39.87,74.316,0,84.3-48.672a7.717,7.717,0,0,0,6.3-.283c1.906-1.1,1.906-2.885,0-3.985a7.628,7.628,0,0,0-6.9,0c-1.72.993-1.873,2.537-.491,3.638l-83.5,48.21-72.129,0,90.932-52.5.274-.157V292.6l136.028-78.535a7.716,7.716,0,0,0,6.3-.284c1.907-1.1,1.907-2.885,0-3.985a7.629,7.629,0,0,0-6.9,0c-1.719.993-1.872,2.537-.491,3.638L598.226,291.812l-.275.158v42.158L435.8,427.749,412,414.008,509.184,357.9l.273-.158,0-84.724L596,223.049a7.72,7.72,0,0,0,6.3-.284c1.907-1.1,1.907-2.885,0-3.985a7.628,7.628,0,0,0-6.9,0c-1.719.993-1.873,2.537-.491,3.638l-86.271,49.807-.273.158,0,84.722L410.9,413.376,396.217,404.9,468.431,363.2l0-99.3,34.713-20.043V206.51l30.651-17.7a7.716,7.716,0,0,0,6.3-.284c1.907-1.1,1.906-2.885,0-3.985a7.628,7.628,0,0,0-6.9,0c-1.719.993-1.873,2.536-.492,3.638l-30.651,17.7V243.23l-34.713,20.042,0,99.3-72.216,41.695-19.813-11.439,55.252-31.9,0-165.891h-1.093l0,97.175-27.7-15.995V221.736a6.77,6.77,0,0,0,2.9-.8c1.906-1.1,1.906-2.885,0-3.985a7.628,7.628,0,0,0-6.9,0c-1.907,1.1-1.906,2.885,0,3.985a6.773,6.773,0,0,0,2.9.8v55.11l28.8,16.626v29.3l-36.451-21.044c1.273-1.1,1.075-2.592-.6-3.56a7.628,7.628,0,0,0-6.9,0c-1.906,1.1-1.906,2.885,0,3.986a7.7,7.7,0,0,0,6.438.219l37.518,21.662v36.264l-55.254,31.9-17.643-10.186,26.851-15.5,0-22.838-6.78-3.914V328.109l-48.4-27.942V280.439l-39.405-22.751c1.381-1.1,1.227-2.646-.492-3.638a7.628,7.628,0,0,0-6.9,0c-1.907,1.1-1.906,2.885,0,3.985a7.716,7.716,0,0,0,6.3.284l39.405,22.75V300.8l48.4,27.943v10.382L294.2,292.156c1.273-1.1,1.074-2.591-.6-3.559a7.625,7.625,0,0,0-6.9,0c-1.906,1.1-1.906,2.885,0,3.985a7.694,7.694,0,0,0,6.438.22l65.216,37.653H325.624L288.1,308.789c1.381-1.1,1.227-2.646-.492-3.638a7.63,7.63,0,0,0-6.9,0c-1.906,1.1-1.906,2.885,0,3.985a7.716,7.716,0,0,0,6.3.284l38.325,22.127h34.811v-.058l22.185,12.81v21.574l-26.852,15.5-5.052-2.916-.273-.157-6.918,3.995L230.484,317.2l-.127-.074H199.605a2.807,2.807,0,0,0-1.336-1.446,7.63,7.63,0,0,0-6.9,0c-1.906,1.1-1.906,2.885,0,3.985a7.628,7.628,0,0,0,6.9,0,2.806,2.806,0,0,0,1.336-1.446h30.459L342.139,382.93,325,392.825l-93.692-54.094c1.381-1.1,1.227-2.645-.492-3.638a7.628,7.628,0,0,0-6.9,0c-1.907,1.1-1.907,2.885,0,3.985a7.714,7.714,0,0,0,6.3.284L323.9,393.457l-17.752,10.249-132.4-76.437V263.274L236.2,227.221v.015H293.67l45.523-26.283a7.719,7.719,0,0,0,6.3-.284c1.906-1.1,1.906-2.885,0-3.986a7.634,7.634,0,0,0-6.9,0c-1.719.993-1.873,2.537-.491,3.638l-44.723,25.822H238.067l75.894-43.819.273-.158v-57a6.745,6.745,0,0,0,2.9-.8c1.907-1.1,1.907-2.884,0-3.985a7.626,7.626,0,0,0-6.9,0c-1.906,1.1-1.906,2.885,0,3.985a6.751,6.751,0,0,0,2.905.8v56.368L186.964,254.385l-77.61-44.808V159.187L54.218,127.354c1.381-1.1,1.227-2.645-.491-3.638a7.632,7.632,0,0,0-6.9,0c-1.906,1.1-1.906,2.886,0,3.986a7.716,7.716,0,0,0,6.3.284l55.135,31.831v50.391l77.61,44.809-12.936,7.468-.273.158v50.328l-22.378-12.92v-31.43l-45.519-26.281c1.381-1.1,1.227-2.645-.491-3.638a7.634,7.634,0,0,0-6.9,0c-1.906,1.1-1.906,2.885,0,3.986a7.719,7.719,0,0,0,6.3.284l45.519,26.28v31.43l23.471,13.552V327.9l132.394,76.439-19.5,11.26L28.9,267.418l0-53.749L0,196.987ZM350.152,379.564l128.109,73.963L350.155,527.49l-128.11-73.964Z" transform="translate(0 -119.562)" fill="#42e8e0"/>
                </g>
              </g>
            </g>
          </g>
        </g>
      </g>
    </g>
    <path id="Path_25986" data-name="Path 25986" d="M6.617,0c3.655,0,6.617,2.037,6.617,4.549S10.272,9.1,6.617,9.1,0,7.062,0,4.549,2.963,0,6.617,0Z" transform="translate(180.32 1004.754)" fill="#4984ce"/>
    <g id="Group_23556" data-name="Group 23556" transform="translate(229.071 599.819)">
      <g id="Group_23328" data-name="Group 23328" clip-path="url(#clip-path-5)">
        <g id="Group_23035" data-name="Group 23035">
          <g id="Group_23034" data-name="Group 23034" clip-path="url(#clip-path-5)">
            <path id="Path_25737" data-name="Path 25737" d="M162.92,213.625a14.347,14.347,0,0,1-6.978-1.738L3.126,123.658C1.139,122.511,0,120.962,0,119.411a3.944,3.944,0,0,1,2.265-3.337L156.808,26.848c3.173-1.832,8.726-1.609,12.374.5L322,115.574c1.987,1.148,3.125,2.7,3.125,4.247a3.945,3.945,0,0,1-2.265,3.337L168.316,212.384a11.013,11.013,0,0,1-5.4,1.241m-.714-187.266a10.225,10.225,0,0,0-5.016,1.151L2.648,116.735a3.223,3.223,0,0,0-1.883,2.676c0,1.272,1,2.578,2.744,3.586l152.816,88.228c3.439,1.984,8.647,2.21,11.609.5L322.477,122.5a3.22,3.22,0,0,0,1.883-2.675c0-1.272-1-2.579-2.745-3.585L168.8,28.007a13.552,13.552,0,0,0-6.594-1.648m5.919,185.694h0Z" transform="translate(0 -12.621)" fill="#42e8e0"/>
          </g>
        </g>
        <g id="Group_23037" data-name="Group 23037" transform="translate(0.381 7.401)">
          <g id="Group_23036" data-name="Group 23036" transform="translate(0)" clip-path="url(#clip-path-7)">
            <path id="Path_25838" data-name="Path 25838" d="M0,0H372.646V343.485H0Z" transform="matrix(0.806, -0.592, 0.592, 0.806, -89.689, 65.885)" fill="url(#linear-gradient-3)"/>
          </g>
        </g>
        <g id="Group_23039" data-name="Group 23039" transform="translate(0.382 0)">
          <g id="Group_23038" data-name="Group 23038" transform="translate(0 0)" clip-path="url(#clip-path-8)">
            <path id="Path_25835" data-name="Path 25835" d="M0,0H326.358V187.846H0Z" transform="translate(-0.999 0)" fill="url(#linear-gradient-4)"/>
          </g>
        </g>
        <g id="Group_23164" data-name="Group 23164">
          <g id="Group_23163" data-name="Group 23163" clip-path="url(#clip-path-5)">
            <g id="Group_23042" data-name="Group 23042" transform="translate(11.584 6.468)" opacity="0.1">
              <g id="Group_23041" data-name="Group 23041">
                <g id="Group_23040" data-name="Group 23040" clip-path="url(#clip-path-10)">
                  <path id="Path_25740" data-name="Path 25740" d="M179,185.973l143.868-83.062c2.861-1.652,2.5-4.537-.8-6.445L179.8,14.331c-3.3-1.907-8.3-2.115-11.163-.463L24.774,96.931c-2.861,1.652-2.5,4.537.8,6.445l142.26,82.135c3.3,1.907,8.3,2.114,11.163.463" transform="translate(-22.842 -12.753)" fill="#180d5b"/>
                </g>
              </g>
            </g>
            <path id="Path_25741" data-name="Path 25741" d="M3.7,186.889l152.816,88.228c3.549,2.049,8.917,2.271,11.991.5l154.543-89.225a3.743,3.743,0,0,0,2.035-2.592c.2,1.284-.461,2.539-2.035,3.448L168.5,276.47c-3.074,1.774-8.442,1.552-11.991-.5L3.7,187.744c-2.14-1.235-3.121-2.852-2.9-4.331a5.3,5.3,0,0,0,2.9,3.476" transform="translate(-0.379 -90.398)" fill="#fff"/>
            <g id="Group_23045" data-name="Group 23045" transform="translate(163.451 18.264)" style="mix-blend-mode: lighten;isolation: isolate">
              <g id="Group_23044" data-name="Group 23044">
                <g id="Group_23043" data-name="Group 23043" clip-path="url(#clip-path-11)">
                  <path id="Path_25742" data-name="Path 25742" d="M332.187,46.383a2.689,2.689,0,0,1-1.363-.355,3.45,3.45,0,0,1-1.5-3.178v-3.3A2,2,0,0,0,326,37.629l-2.862,1.651a.559.559,0,1,1-.558-.969l2.861-1.651a3.081,3.081,0,0,1,5,2.887v3.3a2,2,0,0,0,3.323,1.919l13.7-7.91a.559.559,0,1,1,.559.969l-13.7,7.91a4.335,4.335,0,0,1-2.138.646" transform="translate(-322.303 -36.014)" fill="#42e8e0"/>
                </g>
              </g>
            </g>
            <g id="Group_23048" data-name="Group 23048" transform="translate(168.779 21.329)" style="mix-blend-mode: lighten;isolation: isolate">
              <g id="Group_23047" data-name="Group 23047">
                <g id="Group_23046" data-name="Group 23046" clip-path="url(#clip-path-12)">
                  <path id="Path_25743" data-name="Path 25743" d="M342.693,52.426a2.693,2.693,0,0,1-1.362-.353,3.452,3.452,0,0,1-1.5-3.179v-3.3a2,2,0,0,0-3.323-1.919l-2.861,1.652a.559.559,0,0,1-.559-.969l2.861-1.652a3.082,3.082,0,0,1,5,2.888v3.3a2,2,0,0,0,3.324,1.918l13.7-7.909a.559.559,0,0,1,.559.969l-13.7,7.908a4.339,4.339,0,0,1-2.141.646" transform="translate(-332.809 -42.057)" fill="#42e8e0"/>
                </g>
              </g>
            </g>
            <g id="Group_23051" data-name="Group 23051" transform="translate(174.108 24.394)" style="mix-blend-mode: lighten;isolation: isolate">
              <g id="Group_23050" data-name="Group 23050" transform="translate(0)">
                <g id="Group_23049" data-name="Group 23049" clip-path="url(#clip-path-13)">
                  <path id="Path_25744" data-name="Path 25744" d="M353.2,58.47a2.693,2.693,0,0,1-1.363-.353,3.452,3.452,0,0,1-1.5-3.179v-3.3a2,2,0,0,0-3.324-1.917l-2.861,1.652a.559.559,0,0,1-.558-.969l2.86-1.652a3.082,3.082,0,0,1,5,2.887v3.3a2,2,0,0,0,3.323,1.917l13.7-7.908a.559.559,0,1,1,.559.969l-13.7,7.909a4.337,4.337,0,0,1-2.139.646" transform="translate(-343.317 -48.102)" fill="#42e8e0"/>
                </g>
              </g>
            </g>
            <g id="Group_23054" data-name="Group 23054" transform="translate(179.436 27.459)" style="mix-blend-mode: lighten;isolation: isolate">
              <g id="Group_23053" data-name="Group 23053">
                <g id="Group_23052" data-name="Group 23052" clip-path="url(#clip-path-12)">
                  <path id="Path_25745" data-name="Path 25745" d="M363.706,64.513a2.693,2.693,0,0,1-1.363-.355,3.45,3.45,0,0,1-1.5-3.177v-3.3a2,2,0,0,0-3.323-1.917l-2.861,1.652a.559.559,0,0,1-.559-.969l2.861-1.652a3.082,3.082,0,0,1,5,2.887v3.3a2,2,0,0,0,3.323,1.917l13.7-7.908a.559.559,0,1,1,.559.969l-13.7,7.909a4.333,4.333,0,0,1-2.139.646" transform="translate(-353.823 -54.145)" fill="#42e8e0"/>
                </g>
              </g>
            </g>
            <g id="Group_23057" data-name="Group 23057" transform="translate(184.764 30.523)" style="mix-blend-mode: lighten;isolation: isolate">
              <g id="Group_23056" data-name="Group 23056" transform="translate(0)">
                <g id="Group_23055" data-name="Group 23055" clip-path="url(#clip-path-15)">
                  <path id="Path_25746" data-name="Path 25746" d="M374.213,70.557a2.7,2.7,0,0,1-1.364-.355,3.453,3.453,0,0,1-1.5-3.178v-3.3a2,2,0,0,0-3.323-1.917l-2.862,1.651a.559.559,0,1,1-.558-.969l2.861-1.651a3.081,3.081,0,0,1,5,2.887v3.3a2,2,0,0,0,3.324,1.918l13.7-7.91a.559.559,0,1,1,.559.969l-13.7,7.91a4.334,4.334,0,0,1-2.139.646" transform="translate(-364.329 -60.188)" fill="#42e8e0"/>
                </g>
              </g>
            </g>
            <g id="Group_23060" data-name="Group 23060" transform="translate(190.093 33.589)" style="mix-blend-mode: lighten;isolation: isolate">
              <g id="Group_23059" data-name="Group 23059" transform="translate(0)">
                <g id="Group_23058" data-name="Group 23058" clip-path="url(#clip-path-16)">
                  <path id="Path_25747" data-name="Path 25747" d="M384.72,76.6a2.693,2.693,0,0,1-1.363-.353,3.451,3.451,0,0,1-1.5-3.179v-3.3a2,2,0,0,0-3.324-1.919l-2.86,1.652a.559.559,0,0,1-.559-.969l2.86-1.652a3.082,3.082,0,0,1,5,2.888v3.3a2,2,0,0,0,3.323,1.918L400,67.078a.559.559,0,1,1,.558.969l-13.7,7.909a4.337,4.337,0,0,1-2.139.646" transform="translate(-374.837 -66.233)" fill="#42e8e0"/>
                </g>
              </g>
            </g>
            <g id="Group_23063" data-name="Group 23063" transform="translate(195.42 36.654)" style="mix-blend-mode: lighten;isolation: isolate">
              <g id="Group_23062" data-name="Group 23062" transform="translate(0)">
                <g id="Group_23061" data-name="Group 23061" clip-path="url(#clip-path-13)">
                  <path id="Path_25748" data-name="Path 25748" d="M395.226,82.645a2.693,2.693,0,0,1-1.362-.353,3.45,3.45,0,0,1-1.5-3.179v-3.3a2,2,0,0,0-3.323-1.917l-2.861,1.652a.559.559,0,0,1-.559-.969l2.861-1.652a3.082,3.082,0,0,1,5,2.887v3.3a2,2,0,0,0,3.323,1.918l13.7-7.909a.559.559,0,1,1,.559.969L397.365,82a4.333,4.333,0,0,1-2.139.646" transform="translate(-385.342 -72.277)" fill="#42e8e0"/>
                </g>
              </g>
            </g>
            <g id="Group_23066" data-name="Group 23066" transform="translate(200.748 39.719)" style="mix-blend-mode: lighten;isolation: isolate">
              <g id="Group_23065" data-name="Group 23065">
                <g id="Group_23064" data-name="Group 23064" clip-path="url(#clip-path-12)">
                  <path id="Path_25749" data-name="Path 25749" d="M405.732,88.688a2.693,2.693,0,0,1-1.362-.353,3.45,3.45,0,0,1-1.5-3.179v-3.3a2,2,0,0,0-3.323-1.917l-2.862,1.652a.559.559,0,0,1-.558-.969l2.861-1.652a3.081,3.081,0,0,1,5,2.887v3.3a2,2,0,0,0,3.323,1.918l13.7-7.909a.559.559,0,1,1,.559.969l-13.7,7.909a4.334,4.334,0,0,1-2.139.646" transform="translate(-395.848 -78.32)" fill="#42e8e0"/>
                </g>
              </g>
            </g>
            <g id="Group_23069" data-name="Group 23069" transform="translate(206.076 42.783)" style="mix-blend-mode: lighten;isolation: isolate">
              <g id="Group_23068" data-name="Group 23068">
                <g id="Group_23067" data-name="Group 23067" clip-path="url(#clip-path-11)">
                  <path id="Path_25750" data-name="Path 25750" d="M416.238,94.733a2.7,2.7,0,0,1-1.364-.355,3.453,3.453,0,0,1-1.5-3.178V87.9a2,2,0,0,0-3.323-1.917l-2.862,1.651a.559.559,0,1,1-.559-.969l2.862-1.651a3.081,3.081,0,0,1,5,2.887v3.3a2,2,0,0,0,3.325,1.919l13.7-7.91a.559.559,0,1,1,.559.969l-13.7,7.91a4.332,4.332,0,0,1-2.139.646" transform="translate(-406.354 -84.363)" fill="#42e8e0"/>
                </g>
              </g>
            </g>
            <g id="Group_23072" data-name="Group 23072" transform="translate(211.405 45.848)" style="mix-blend-mode: lighten;isolation: isolate">
              <g id="Group_23071" data-name="Group 23071" transform="translate(0)">
                <g id="Group_23070" data-name="Group 23070" clip-path="url(#clip-path-20)">
                  <path id="Path_25751" data-name="Path 25751" d="M426.746,100.776a2.693,2.693,0,0,1-1.363-.355,3.453,3.453,0,0,1-1.5-3.178v-3.3a2,2,0,0,0-3.324-1.919L417.7,93.673a.559.559,0,0,1-.558-.969L420,91.052a3.082,3.082,0,0,1,5,2.888v3.3a2,2,0,0,0,3.323,1.919l13.7-7.91a.559.559,0,1,1,.559.969l-13.7,7.91a4.334,4.334,0,0,1-2.139.646" transform="translate(-416.862 -90.406)" fill="#42e8e0"/>
                </g>
              </g>
            </g>
            <g id="Group_23075" data-name="Group 23075" transform="translate(216.733 48.915)" style="mix-blend-mode: lighten;isolation: isolate">
              <g id="Group_23074" data-name="Group 23074" transform="translate(0)">
                <g id="Group_23073" data-name="Group 23073" clip-path="url(#clip-path-21)">
                  <path id="Path_25752" data-name="Path 25752" d="M437.251,106.82a2.693,2.693,0,0,1-1.362-.353,3.45,3.45,0,0,1-1.5-3.179v-3.3a2,2,0,0,0-3.323-1.919l-2.861,1.652a.559.559,0,0,1-.559-.969l2.861-1.652a3.082,3.082,0,0,1,5,2.888v3.3a2,2,0,0,0,3.323,1.917l13.7-7.908a.559.559,0,0,1,.559.969l-13.7,7.909a4.333,4.333,0,0,1-2.139.646" transform="translate(-427.368 -96.453)" fill="#42e8e0"/>
                </g>
              </g>
            </g>
            <g id="Group_23078" data-name="Group 23078" transform="translate(222.061 51.978)" style="mix-blend-mode: lighten;isolation: isolate">
              <g id="Group_23077" data-name="Group 23077">
                <g id="Group_23076" data-name="Group 23076" clip-path="url(#clip-path-11)">
                  <path id="Path_25753" data-name="Path 25753" d="M447.757,112.862a2.693,2.693,0,0,1-1.362-.353,3.45,3.45,0,0,1-1.5-3.179v-3.3a2,2,0,0,0-3.323-1.917l-2.861,1.652a.559.559,0,0,1-.559-.969l2.861-1.652a3.081,3.081,0,0,1,5,2.887v3.3a2,2,0,0,0,3.323,1.917l13.7-7.908a.559.559,0,0,1,.559.969l-13.7,7.909a4.332,4.332,0,0,1-2.139.646" transform="translate(-437.873 -102.494)" fill="#42e8e0"/>
                </g>
              </g>
            </g>
            <g id="Group_23081" data-name="Group 23081" transform="translate(227.39 55.044)" style="mix-blend-mode: lighten;isolation: isolate">
              <g id="Group_23080" data-name="Group 23080" transform="translate(0)">
                <g id="Group_23079" data-name="Group 23079" clip-path="url(#clip-path-13)">
                  <path id="Path_25754" data-name="Path 25754" d="M458.265,118.908a2.689,2.689,0,0,1-1.363-.355,3.448,3.448,0,0,1-1.5-3.178v-3.3a2,2,0,0,0-3.324-1.917l-2.86,1.651a.559.559,0,1,1-.559-.969l2.86-1.651a3.082,3.082,0,0,1,5,2.887v3.3a2,2,0,0,0,3.323,1.918l13.7-7.908a.559.559,0,1,1,.558.969l-13.7,7.909a4.333,4.333,0,0,1-2.139.646" transform="translate(-448.381 -108.54)" fill="#42e8e0"/>
                </g>
              </g>
            </g>
            <g id="Group_23084" data-name="Group 23084" transform="translate(232.718 58.109)" style="mix-blend-mode: lighten;isolation: isolate">
              <g id="Group_23083" data-name="Group 23083" transform="translate(0)">
                <g id="Group_23082" data-name="Group 23082" clip-path="url(#clip-path-24)">
                  <path id="Path_25755" data-name="Path 25755" d="M468.771,124.952a2.693,2.693,0,0,1-1.363-.355,3.453,3.453,0,0,1-1.5-3.178v-3.3a2,2,0,0,0-3.323-1.919l-2.861,1.652a.559.559,0,0,1-.559-.969l2.861-1.652a3.082,3.082,0,0,1,5,2.888v3.3a2,2,0,0,0,3.323,1.918l13.7-7.91a.559.559,0,1,1,.559.969l-13.7,7.91a4.332,4.332,0,0,1-2.139.646" transform="translate(-458.887 -114.582)" fill="#42e8e0"/>
                </g>
              </g>
            </g>
            <g id="Group_23087" data-name="Group 23087" transform="translate(238.045 61.173)" style="mix-blend-mode: lighten;isolation: isolate">
              <g id="Group_23086" data-name="Group 23086" transform="translate(0)">
                <g id="Group_23085" data-name="Group 23085" clip-path="url(#clip-path-11)">
                  <path id="Path_25756" data-name="Path 25756" d="M479.276,130.994a2.694,2.694,0,0,1-1.362-.353,3.449,3.449,0,0,1-1.5-3.179v-3.3a2,2,0,0,0-3.323-1.919l-2.862,1.652a.559.559,0,0,1-.558-.969l2.861-1.652a3.082,3.082,0,0,1,5,2.888v3.3a2,2,0,0,0,3.323,1.918l13.7-7.909a.559.559,0,0,1,.559.969l-13.7,7.909a4.334,4.334,0,0,1-2.139.646" transform="translate(-469.393 -120.625)" fill="#42e8e0"/>
                </g>
              </g>
            </g>
            <g id="Group_23090" data-name="Group 23090" transform="translate(243.373 64.238)" style="mix-blend-mode: lighten;isolation: isolate">
              <g id="Group_23089" data-name="Group 23089" transform="translate(0)">
                <g id="Group_23088" data-name="Group 23088" clip-path="url(#clip-path-11)">
                  <path id="Path_25757" data-name="Path 25757" d="M489.782,137.038a2.693,2.693,0,0,1-1.362-.353,3.453,3.453,0,0,1-1.5-3.179v-3.3a2,2,0,0,0-3.323-1.917l-2.861,1.652a.559.559,0,0,1-.559-.969l2.861-1.652a3.081,3.081,0,0,1,5,2.887v3.3a2,2,0,0,0,3.324,1.918l13.7-7.909a.559.559,0,1,1,.559.969l-13.7,7.909a4.339,4.339,0,0,1-2.141.646" transform="translate(-479.898 -126.669)" fill="#42e8e0"/>
                </g>
              </g>
            </g>
            <g id="Group_23093" data-name="Group 23093" transform="translate(248.702 67.304)" style="mix-blend-mode: lighten;isolation: isolate">
              <g id="Group_23092" data-name="Group 23092" transform="translate(0)">
                <g id="Group_23091" data-name="Group 23091" clip-path="url(#clip-path-16)">
                  <path id="Path_25758" data-name="Path 25758" d="M500.29,143.083a2.689,2.689,0,0,1-1.363-.355,3.447,3.447,0,0,1-1.5-3.177v-3.3a2,2,0,0,0-3.324-1.917l-2.86,1.652a.559.559,0,0,1-.559-.969l2.86-1.652a3.082,3.082,0,0,1,5,2.887v3.3a2,2,0,0,0,3.323,1.918l13.7-7.909a.559.559,0,1,1,.559.969l-13.7,7.909a4.337,4.337,0,0,1-2.139.646" transform="translate(-490.407 -132.715)" fill="#42e8e0"/>
                </g>
              </g>
            </g>
            <g id="Group_23096" data-name="Group 23096" transform="translate(254.03 70.37)" style="mix-blend-mode: lighten;isolation: isolate">
              <g id="Group_23095" data-name="Group 23095" transform="translate(0)">
                <g id="Group_23094" data-name="Group 23094" clip-path="url(#clip-path-12)">
                  <path id="Path_25759" data-name="Path 25759" d="M510.8,149.127a2.689,2.689,0,0,1-1.363-.355,3.45,3.45,0,0,1-1.5-3.178v-3.3a2,2,0,0,0-3.323-1.917l-2.862,1.651a.559.559,0,1,1-.559-.969l2.862-1.651a3.081,3.081,0,0,1,5,2.887v3.3a2,2,0,0,0,3.323,1.919l13.7-7.91a.559.559,0,1,1,.559.969l-13.7,7.91a4.335,4.335,0,0,1-2.138.646" transform="translate(-500.912 -138.759)" fill="#42e8e0"/>
                </g>
              </g>
            </g>
            <g id="Group_23099" data-name="Group 23099" transform="translate(259.358 73.433)" style="mix-blend-mode: lighten;isolation: isolate">
              <g id="Group_23098" data-name="Group 23098">
                <g id="Group_23097" data-name="Group 23097" clip-path="url(#clip-path-11)">
                  <path id="Path_25760" data-name="Path 25760" d="M521.3,155.169a2.693,2.693,0,0,1-1.362-.353,3.449,3.449,0,0,1-1.5-3.179v-3.3a2,2,0,0,0-3.323-1.919l-2.861,1.652a.559.559,0,0,1-.559-.969l2.861-1.652a3.082,3.082,0,0,1,5,2.888v3.3a2,2,0,0,0,3.323,1.918l13.7-7.909a.559.559,0,0,1,.559.969l-13.7,7.908a4.333,4.333,0,0,1-2.139.646" transform="translate(-511.418 -144.8)" fill="#42e8e0"/>
                </g>
              </g>
            </g>
            <g id="Group_23102" data-name="Group 23102" transform="translate(264.686 76.498)" style="mix-blend-mode: lighten;isolation: isolate">
              <g id="Group_23101" data-name="Group 23101" transform="translate(0)">
                <g id="Group_23100" data-name="Group 23100" clip-path="url(#clip-path-11)">
                  <path id="Path_25761" data-name="Path 25761" d="M531.807,161.212a2.693,2.693,0,0,1-1.362-.353,3.452,3.452,0,0,1-1.5-3.179v-3.3a2,2,0,0,0-3.323-1.917l-2.862,1.652a.559.559,0,0,1-.558-.969l2.861-1.652a3.081,3.081,0,0,1,5,2.887v3.3a2,2,0,0,0,3.325,1.917l13.7-7.908a.559.559,0,0,1,.559.969l-13.7,7.909a4.341,4.341,0,0,1-2.141.646" transform="translate(-521.924 -150.843)" fill="#42e8e0"/>
                </g>
              </g>
            </g>
            <g id="Group_23105" data-name="Group 23105" transform="translate(135.385 18.513)" style="mix-blend-mode: lighten;isolation: isolate">
              <g id="Group_23104" data-name="Group 23104">
                <g id="Group_23103" data-name="Group 23103" clip-path="url(#clip-path-31)">
                  <path id="Path_25762" data-name="Path 25762" d="M283.078,46.876a4.335,4.335,0,0,1-2.138-.646l-13.7-7.91a.559.559,0,1,1,.559-.969l13.7,7.91a2,2,0,0,0,3.323-1.918v-3.3a3.082,3.082,0,0,1,5-2.888l2.862,1.652a.559.559,0,0,1-.559.969l-2.862-1.652a2,2,0,0,0-3.323,1.919v3.3a3.45,3.45,0,0,1-1.5,3.178,2.689,2.689,0,0,1-1.363.355" transform="translate(-266.961 -36.506)" fill="#42e8e0"/>
                </g>
              </g>
            </g>
            <g id="Group_23108" data-name="Group 23108" transform="translate(130.058 21.578)" style="mix-blend-mode: lighten;isolation: isolate">
              <g id="Group_23107" data-name="Group 23107" transform="translate(0)">
                <g id="Group_23106" data-name="Group 23106" clip-path="url(#clip-path-15)">
                  <path id="Path_25763" data-name="Path 25763" d="M272.574,52.918a4.333,4.333,0,0,1-2.139-.646l-13.7-7.909a.559.559,0,1,1,.559-.969l13.7,7.909a2,2,0,0,0,3.323-1.918v-3.3a3.082,3.082,0,0,1,5-2.888l2.861,1.652a.559.559,0,0,1-.559.969l-2.861-1.652a2,2,0,0,0-3.323,1.919v3.3a3.45,3.45,0,0,1-1.5,3.179,2.693,2.693,0,0,1-1.362.353" transform="translate(-256.456 -42.549)" fill="#42e8e0"/>
                </g>
              </g>
            </g>
            <g id="Group_23111" data-name="Group 23111" transform="translate(124.73 24.644)" style="mix-blend-mode: lighten;isolation: isolate">
              <g id="Group_23110" data-name="Group 23110" transform="translate(0)">
                <g id="Group_23109" data-name="Group 23109" clip-path="url(#clip-path-11)">
                  <path id="Path_25764" data-name="Path 25764" d="M262.068,58.963a4.341,4.341,0,0,1-2.141-.646l-13.7-7.909a.559.559,0,1,1,.559-.969l13.7,7.909a2,2,0,0,0,3.325-1.918v-3.3a3.081,3.081,0,0,1,5-2.887l2.861,1.652a.559.559,0,0,1-.558.969l-2.862-1.652a2,2,0,0,0-3.323,1.917v3.3a3.453,3.453,0,0,1-1.5,3.179,2.691,2.691,0,0,1-1.362.353" transform="translate(-245.95 -48.594)" fill="#42e8e0"/>
                </g>
              </g>
            </g>
            <g id="Group_23114" data-name="Group 23114" transform="translate(119.402 27.709)" style="mix-blend-mode: lighten;isolation: isolate">
              <g id="Group_23113" data-name="Group 23113" transform="translate(0)">
                <g id="Group_23112" data-name="Group 23112" clip-path="url(#clip-path-15)">
                  <path id="Path_25765" data-name="Path 25765" d="M251.561,65.007a4.337,4.337,0,0,1-2.139-.646l-13.7-7.909a.559.559,0,1,1,.559-.969l13.7,7.909a2,2,0,0,0,3.323-1.918v-3.3a3.082,3.082,0,0,1,5-2.887l2.86,1.652a.559.559,0,0,1-.559.969l-2.86-1.652a2,2,0,0,0-3.324,1.917v3.3a3.447,3.447,0,0,1-1.5,3.177,2.689,2.689,0,0,1-1.363.355" transform="translate(-235.444 -54.638)" fill="#42e8e0"/>
                </g>
              </g>
            </g>
            <g id="Group_23117" data-name="Group 23117" transform="translate(114.073 30.774)" style="mix-blend-mode: lighten;isolation: isolate">
              <g id="Group_23116" data-name="Group 23116" transform="translate(0)">
                <g id="Group_23115" data-name="Group 23115" clip-path="url(#clip-path-12)">
                  <path id="Path_25766" data-name="Path 25766" d="M241.053,71.052a4.335,4.335,0,0,1-2.138-.646l-13.7-7.91a.559.559,0,0,1,.558-.969l13.7,7.91a2,2,0,0,0,3.323-1.919v-3.3a3.081,3.081,0,0,1,5-2.887l2.861,1.651a.559.559,0,1,1-.558.969L247.238,62.3a2,2,0,0,0-3.323,1.917v3.3a3.45,3.45,0,0,1-1.5,3.178,2.689,2.689,0,0,1-1.363.355" transform="translate(-224.936 -60.683)" fill="#42e8e0"/>
                </g>
              </g>
            </g>
            <g id="Group_23120" data-name="Group 23120" transform="translate(108.745 33.839)" style="mix-blend-mode: lighten;isolation: isolate">
              <g id="Group_23119" data-name="Group 23119" transform="translate(0)">
                <g id="Group_23118" data-name="Group 23118" clip-path="url(#clip-path-12)">
                  <path id="Path_25767" data-name="Path 25767" d="M230.549,77.094a4.339,4.339,0,0,1-2.141-.646l-13.7-7.908a.559.559,0,0,1,.559-.969l13.7,7.909a2,2,0,0,0,3.324-1.918v-3.3a3.082,3.082,0,0,1,5-2.888l2.861,1.652a.559.559,0,0,1-.559.969l-2.861-1.652a2,2,0,0,0-3.323,1.919v3.3a3.453,3.453,0,0,1-1.5,3.179,2.691,2.691,0,0,1-1.362.353" transform="translate(-214.43 -66.726)" fill="#42e8e0"/>
                </g>
              </g>
            </g>
            <g id="Group_23123" data-name="Group 23123" transform="translate(103.417 36.904)" style="mix-blend-mode: lighten;isolation: isolate">
              <g id="Group_23122" data-name="Group 23122" transform="translate(0)">
                <g id="Group_23121" data-name="Group 23121" clip-path="url(#clip-path-24)">
                  <path id="Path_25768" data-name="Path 25768" d="M220.041,83.138a4.334,4.334,0,0,1-2.139-.646l-13.7-7.908a.559.559,0,1,1,.559-.969l13.7,7.909a2,2,0,0,0,3.323-1.918V76.3a3.082,3.082,0,0,1,5-2.887l2.86,1.652a.559.559,0,0,1-.558.969l-2.861-1.652A2,2,0,0,0,222.9,76.3v3.3a3.451,3.451,0,0,1-1.5,3.179,2.693,2.693,0,0,1-1.363.353" transform="translate(-203.925 -72.769)" fill="#42e8e0"/>
                </g>
              </g>
            </g>
            <g id="Group_23126" data-name="Group 23126" transform="translate(98.089 39.969)" style="mix-blend-mode: lighten;isolation: isolate">
              <g id="Group_23125" data-name="Group 23125" transform="translate(0)">
                <g id="Group_23124" data-name="Group 23124" clip-path="url(#clip-path-24)">
                  <path id="Path_25769" data-name="Path 25769" d="M209.536,89.182a4.333,4.333,0,0,1-2.139-.646l-13.7-7.908a.559.559,0,1,1,.558-.969l13.7,7.909a2,2,0,0,0,3.323-1.918v-3.3a3.082,3.082,0,0,1,5-2.887l2.861,1.652a.559.559,0,0,1-.559.969l-2.861-1.652a2,2,0,0,0-3.323,1.917v3.3a3.451,3.451,0,0,1-1.5,3.178,2.7,2.7,0,0,1-1.363.354" transform="translate(-193.419 -78.813)" fill="#42e8e0"/>
                </g>
              </g>
            </g>
            <g id="Group_23129" data-name="Group 23129" transform="translate(92.761 43.033)" style="mix-blend-mode: lighten;isolation: isolate">
              <g id="Group_23128" data-name="Group 23128">
                <g id="Group_23127" data-name="Group 23127" clip-path="url(#clip-path-31)">
                  <path id="Path_25770" data-name="Path 25770" d="M199.028,95.226a4.335,4.335,0,0,1-2.138-.646l-13.7-7.91a.559.559,0,1,1,.559-.969l13.7,7.91a2,2,0,0,0,3.323-1.918v-3.3a3.081,3.081,0,0,1,5-2.887l2.861,1.651a.559.559,0,1,1-.558.969l-2.862-1.651a2,2,0,0,0-3.323,1.917v3.3a3.45,3.45,0,0,1-1.5,3.178,2.689,2.689,0,0,1-1.363.355" transform="translate(-182.911 -84.857)" fill="#42e8e0"/>
                </g>
              </g>
            </g>
            <g id="Group_23132" data-name="Group 23132" transform="translate(87.433 46.098)" style="mix-blend-mode: lighten;isolation: isolate">
              <g id="Group_23131" data-name="Group 23131" transform="translate(0)">
                <g id="Group_23130" data-name="Group 23130" clip-path="url(#clip-path-11)">
                  <path id="Path_25771" data-name="Path 25771" d="M188.523,101.268a4.341,4.341,0,0,1-2.141-.646l-13.7-7.909a.559.559,0,1,1,.559-.969l13.7,7.909a2,2,0,0,0,3.325-1.918v-3.3a3.081,3.081,0,0,1,5-2.888l2.861,1.652a.559.559,0,0,1-.558.969l-2.862-1.652a2,2,0,0,0-3.323,1.919v3.3a3.453,3.453,0,0,1-1.5,3.179,2.69,2.69,0,0,1-1.362.353" transform="translate(-172.405 -90.899)" fill="#42e8e0"/>
                </g>
              </g>
            </g>
            <g id="Group_23135" data-name="Group 23135" transform="translate(82.105 49.163)" style="mix-blend-mode: lighten;isolation: isolate">
              <g id="Group_23134" data-name="Group 23134">
                <g id="Group_23133" data-name="Group 23133" clip-path="url(#clip-path-15)">
                  <path id="Path_25772" data-name="Path 25772" d="M178.016,107.313a4.333,4.333,0,0,1-2.139-.646l-13.7-7.909a.559.559,0,1,1,.559-.969l13.7,7.909a2,2,0,0,0,3.323-1.918v-3.3a3.082,3.082,0,0,1,5-2.887l2.86,1.652a.559.559,0,0,1-.559.969l-2.86-1.652a2,2,0,0,0-3.324,1.917v3.3a3.451,3.451,0,0,1-1.5,3.179,2.693,2.693,0,0,1-1.363.353" transform="translate(-161.899 -96.943)" fill="#42e8e0"/>
                </g>
              </g>
            </g>
            <g id="Group_23138" data-name="Group 23138" transform="translate(76.776 52.228)" style="mix-blend-mode: lighten;isolation: isolate">
              <g id="Group_23137" data-name="Group 23137" transform="translate(0)">
                <g id="Group_23136" data-name="Group 23136" clip-path="url(#clip-path-11)">
                  <path id="Path_25773" data-name="Path 25773" d="M167.509,113.356a4.334,4.334,0,0,1-2.139-.646l-13.7-7.909a.559.559,0,1,1,.559-.969l13.7,7.909a2,2,0,0,0,3.323-1.918v-3.3a3.081,3.081,0,0,1,5-2.887l2.861,1.652a.559.559,0,0,1-.559.969l-2.861-1.652a2,2,0,0,0-3.323,1.917v3.3a3.45,3.45,0,0,1-1.5,3.177,2.693,2.693,0,0,1-1.363.355" transform="translate(-151.391 -102.987)" fill="#42e8e0"/>
                </g>
              </g>
            </g>
            <g id="Group_23141" data-name="Group 23141" transform="translate(71.448 55.294)" style="mix-blend-mode: lighten;isolation: isolate">
              <g id="Group_23140" data-name="Group 23140" transform="translate(0)">
                <g id="Group_23139" data-name="Group 23139" clip-path="url(#clip-path-11)">
                  <path id="Path_25774" data-name="Path 25774" d="M157,119.4a4.334,4.334,0,0,1-2.138-.646l-13.7-7.91a.559.559,0,0,1,.558-.969l13.7,7.91a2,2,0,0,0,3.323-1.919v-3.3a3.081,3.081,0,0,1,5-2.887l2.861,1.651a.559.559,0,1,1-.558.969l-2.862-1.651a2,2,0,0,0-3.323,1.917v3.3a3.451,3.451,0,0,1-1.5,3.178A2.691,2.691,0,0,1,157,119.4" transform="translate(-140.886 -109.032)" fill="#42e8e0"/>
                </g>
              </g>
            </g>
            <g id="Group_23144" data-name="Group 23144" transform="translate(66.12 58.359)" style="mix-blend-mode: lighten;isolation: isolate">
              <g id="Group_23143" data-name="Group 23143" transform="translate(0)">
                <g id="Group_23142" data-name="Group 23142" clip-path="url(#clip-path-16)">
                  <path id="Path_25775" data-name="Path 25775" d="M146.5,125.444a4.334,4.334,0,0,1-2.139-.646l-13.7-7.908a.559.559,0,1,1,.559-.969l13.7,7.909a2,2,0,0,0,3.323-1.918v-3.3a3.082,3.082,0,0,1,5-2.888l2.86,1.652a.559.559,0,0,1-.559.969l-2.86-1.652a2,2,0,0,0-3.324,1.919v3.3a3.451,3.451,0,0,1-1.5,3.179,2.693,2.693,0,0,1-1.363.353" transform="translate(-130.38 -115.076)" fill="#42e8e0"/>
                </g>
              </g>
            </g>
            <g id="Group_23147" data-name="Group 23147" transform="translate(60.792 61.424)" style="mix-blend-mode: lighten;isolation: isolate">
              <g id="Group_23146" data-name="Group 23146" transform="translate(0)">
                <g id="Group_23145" data-name="Group 23145" clip-path="url(#clip-path-13)">
                  <path id="Path_25776" data-name="Path 25776" d="M135.991,131.489a4.334,4.334,0,0,1-2.139-.646l-13.7-7.908a.559.559,0,1,1,.559-.969l13.7,7.909a2,2,0,0,0,3.323-1.918v-3.3a3.081,3.081,0,0,1,5-2.887l2.861,1.652a.559.559,0,0,1-.558.969l-2.862-1.652a2,2,0,0,0-3.323,1.917v3.3a3.45,3.45,0,0,1-1.5,3.179,2.693,2.693,0,0,1-1.362.353" transform="translate(-119.874 -121.12)" fill="#42e8e0"/>
                </g>
              </g>
            </g>
            <g id="Group_23150" data-name="Group 23150" transform="translate(55.463 64.488)" style="mix-blend-mode: lighten;isolation: isolate">
              <g id="Group_23149" data-name="Group 23149" transform="translate(0)">
                <g id="Group_23148" data-name="Group 23148" clip-path="url(#clip-path-11)">
                  <path id="Path_25777" data-name="Path 25777" d="M125.484,137.531a4.333,4.333,0,0,1-2.139-.646l-13.7-7.908a.559.559,0,0,1,.559-.969l13.7,7.909A2,2,0,0,0,127.227,134v-3.3a3.082,3.082,0,0,1,5-2.887l2.861,1.652a.559.559,0,0,1-.559.969l-2.861-1.652a2,2,0,0,0-3.323,1.917V134a3.45,3.45,0,0,1-1.5,3.179,2.693,2.693,0,0,1-1.362.353" transform="translate(-109.366 -127.162)" fill="#42e8e0"/>
                </g>
              </g>
            </g>
            <g id="Group_23153" data-name="Group 23153" transform="translate(50.136 67.554)" style="mix-blend-mode: lighten;isolation: isolate">
              <g id="Group_23152" data-name="Group 23152">
                <g id="Group_23151" data-name="Group 23151" clip-path="url(#clip-path-12)">
                  <path id="Path_25778" data-name="Path 25778" d="M114.977,143.576a4.334,4.334,0,0,1-2.139-.646l-13.7-7.91a.559.559,0,1,1,.559-.969l13.7,7.91a2,2,0,0,0,3.324-1.919v-3.3a3.081,3.081,0,0,1,5-2.887l2.861,1.651a.559.559,0,1,1-.558.969l-2.862-1.651a2,2,0,0,0-3.323,1.917v3.3a3.454,3.454,0,0,1-1.5,3.179,2.7,2.7,0,0,1-1.364.355" transform="translate(-98.86 -133.208)" fill="#42e8e0"/>
                </g>
              </g>
            </g>
            <g id="Group_23156" data-name="Group 23156" transform="translate(44.808 70.619)" style="mix-blend-mode: lighten;isolation: isolate">
              <g id="Group_23155" data-name="Group 23155" transform="translate(0)">
                <g id="Group_23154" data-name="Group 23154" clip-path="url(#clip-path-20)">
                  <path id="Path_25779" data-name="Path 25779" d="M104.472,149.62a4.333,4.333,0,0,1-2.139-.646l-13.7-7.91a.559.559,0,0,1,.558-.969l13.7,7.91a2,2,0,0,0,3.323-1.919v-3.3a3.082,3.082,0,0,1,5-2.888l2.86,1.652a.559.559,0,1,1-.559.969l-2.86-1.652a2,2,0,0,0-3.324,1.919v3.3a3.453,3.453,0,0,1-1.5,3.178,2.693,2.693,0,0,1-1.363.355" transform="translate(-88.355 -139.25)" fill="#42e8e0"/>
                </g>
              </g>
            </g>
            <g id="Group_23159" data-name="Group 23159" transform="translate(39.479 73.684)" style="mix-blend-mode: lighten;isolation: isolate">
              <g id="Group_23158" data-name="Group 23158" transform="translate(0)">
                <g id="Group_23157" data-name="Group 23157" clip-path="url(#clip-path-12)">
                  <path id="Path_25780" data-name="Path 25780" d="M93.965,155.664a4.332,4.332,0,0,1-2.139-.646l-13.7-7.909a.559.559,0,0,1,.559-.969l13.7,7.909a2,2,0,0,0,3.323-1.918v-3.3a3.082,3.082,0,0,1,5-2.888l2.861,1.652a.559.559,0,0,1-.559.969l-2.861-1.652a2,2,0,0,0-3.323,1.919v3.3a3.45,3.45,0,0,1-1.5,3.179,2.693,2.693,0,0,1-1.362.353" transform="translate(-77.847 -145.295)" fill="#42e8e0"/>
                </g>
              </g>
            </g>
            <g id="Group_23162" data-name="Group 23162" transform="translate(34.151 76.749)" style="mix-blend-mode: lighten;isolation: isolate">
              <g id="Group_23161" data-name="Group 23161" transform="translate(0)">
                <g id="Group_23160" data-name="Group 23160" clip-path="url(#clip-path-11)">
                  <path id="Path_25781" data-name="Path 25781" d="M83.459,161.707a4.334,4.334,0,0,1-2.139-.646l-13.7-7.909a.559.559,0,0,1,.559-.969l13.7,7.909a2,2,0,0,0,3.323-1.918v-3.3a3.081,3.081,0,0,1,5-2.887l2.861,1.652a.559.559,0,0,1-.558.969l-2.862-1.652a2,2,0,0,0-3.323,1.917v3.3a3.45,3.45,0,0,1-1.5,3.179,2.693,2.693,0,0,1-1.362.353" transform="translate(-67.341 -151.338)" fill="#42e8e0"/>
                </g>
              </g>
            </g>
          </g>
        </g>
        <g id="Group_23166" data-name="Group 23166" transform="translate(57.109 80.716)">
          <g id="Group_23165" data-name="Group 23165" transform="translate(0)" clip-path="url(#clip-path-51)">
            <path id="Path_25839" data-name="Path 25839" d="M0,0H210.532V72.941H0Z" transform="translate(0)" fill="url(#linear-gradient-5)"/>
          </g>
        </g>
        <g id="Group_23327" data-name="Group 23327">
          <g id="Group_23326" data-name="Group 23326" clip-path="url(#clip-path-5)">
            <path id="Path_25783" data-name="Path 25783" d="M217.877,160.871l105.268-60.777L217.88,39.32,112.612,100.1Z" transform="translate(-55.503 -19.38)" fill="url(#linear-gradient-4)"/>
            <path id="Path_25784" data-name="Path 25784" d="M217.876,217.825l104.037-60.066,1.23.71L217.876,219.246,112.611,158.471l1.231-.71Z" transform="translate(-55.502 -77.754)" fill="#fff"/>
            <path id="Path_25785" data-name="Path 25785" d="M241.5,160.5l80.965-46.745L241.5,67.014,160.533,113.76Z" transform="translate(-79.121 -33.029)" fill="#0f054c"/>
            <g id="Group_23171" data-name="Group 23171" transform="translate(81.41 33.985)" opacity="0.5">
              <g id="Group_23170" data-name="Group 23170">
                <g id="Group_23169" data-name="Group 23169" clip-path="url(#clip-path-53)">
                  <g id="Group_23168" data-name="Group 23168" transform="translate(0)">
                    <g id="Group_23167" data-name="Group 23167" transform="translate(0)" clip-path="url(#clip-path-54)">
                      <rect id="Rectangle_22216" data-name="Rectangle 22216" width="161.931" height="93.491" transform="translate(0 0)" fill="url(#linear-gradient-7)"/>
                    </g>
                  </g>
                </g>
              </g>
            </g>
            <g id="Group_23176" data-name="Group 23176" transform="translate(81.41 22.197)" opacity="0.5">
              <g id="Group_23175" data-name="Group 23175" transform="translate(0)">
                <g id="Group_23174" data-name="Group 23174" clip-path="url(#clip-path-55)">
                  <g id="Group_23173" data-name="Group 23173" transform="translate(0)">
                    <g id="Group_23172" data-name="Group 23172" clip-path="url(#clip-path-56)">
                      <rect id="Rectangle_22218" data-name="Rectangle 22218" width="80.967" height="58.533" transform="translate(0)" fill="url(#linear-gradient-8)"/>
                    </g>
                  </g>
                </g>
              </g>
            </g>
            <g id="Group_23181" data-name="Group 23181" transform="translate(162.374 22.197)" opacity="0.5">
              <g id="Group_23180" data-name="Group 23180">
                <g id="Group_23179" data-name="Group 23179" clip-path="url(#clip-path-57)">
                  <g id="Group_23178" data-name="Group 23178" transform="translate(0)">
                    <g id="Group_23177" data-name="Group 23177" clip-path="url(#clip-path-58)">
                      <rect id="Rectangle_22220" data-name="Rectangle 22220" width="80.967" height="58.532" transform="translate(0)" fill="url(#linear-gradient-9)"/>
                    </g>
                  </g>
                </g>
              </g>
            </g>
            <g id="Group_23186" data-name="Group 23186" transform="translate(81.41 22.197)" opacity="0.5">
              <g id="Group_23185" data-name="Group 23185">
                <g id="Group_23184" data-name="Group 23184" clip-path="url(#clip-path-53)">
                  <g id="Group_23183" data-name="Group 23183" transform="translate(0)">
                    <g id="Group_23182" data-name="Group 23182" transform="translate(0)" clip-path="url(#clip-path-60)">
                      <rect id="Rectangle_22222" data-name="Rectangle 22222" width="161.931" height="93.491" transform="translate(0)" fill="url(#linear-gradient-10)"/>
                    </g>
                  </g>
                </g>
              </g>
            </g>
            <g id="Group_23189" data-name="Group 23189" transform="translate(130.024 50.264)" opacity="0.5">
              <g id="Group_23188" data-name="Group 23188">
                <g id="Group_23187" data-name="Group 23187" clip-path="url(#clip-path-61)">
                  <path id="Path_25790" data-name="Path 25790" d="M288.74,136.471l32.353-18.679L288.741,99.114l-32.353,18.679Z" transform="translate(-256.389 -99.114)" fill="#42e8e0"/>
                </g>
              </g>
            </g>
            <g id="Group_23192" data-name="Group 23192" transform="translate(130.024 50.265)" opacity="0.5">
              <g id="Group_23191" data-name="Group 23191">
                <g id="Group_23190" data-name="Group 23190" clip-path="url(#clip-path-62)">
                  <path id="Path_25791" data-name="Path 25791" d="M288.741,100.833l-30.864,17.819-1.488-.859,32.352-18.679,32.352,18.678-1.488.86Z" transform="translate(-256.389 -99.115)" fill="#42e8e0"/>
                </g>
              </g>
            </g>
            <g id="Group_23197" data-name="Group 23197" transform="translate(81.41 68.943)" opacity="0.5">
              <g id="Group_23196" data-name="Group 23196">
                <g id="Group_23195" data-name="Group 23195" clip-path="url(#clip-path-63)">
                  <g id="Group_23194" data-name="Group 23194" transform="translate(0)">
                    <g id="Group_23193" data-name="Group 23193" clip-path="url(#clip-path-64)">
                      <path id="Path_25836" data-name="Path 25836" d="M0,0H80.964V58.531H0Z" transform="translate(0 0)" fill="url(#linear-gradient-11)"/>
                    </g>
                  </g>
                </g>
              </g>
            </g>
            <g id="Group_23202" data-name="Group 23202" transform="translate(162.374 68.942)" opacity="0.5">
              <g id="Group_23201" data-name="Group 23201">
                <g id="Group_23200" data-name="Group 23200" clip-path="url(#clip-path-55)">
                  <g id="Group_23199" data-name="Group 23199" transform="translate(0)">
                    <g id="Group_23198" data-name="Group 23198" clip-path="url(#clip-path-66)">
                      <path id="Path_25837" data-name="Path 25837" d="M0,0H80.967V58.533H0Z" transform="translate(0)" fill="url(#linear-gradient-12)"/>
                    </g>
                  </g>
                </g>
              </g>
            </g>
            <g id="Group_23205" data-name="Group 23205" transform="translate(81.41 68.299)" opacity="0.8">
              <g id="Group_23204" data-name="Group 23204">
                <g id="Group_23203" data-name="Group 23203" clip-path="url(#clip-path-67)">
                  <path id="Path_25794" data-name="Path 25794" d="M241.494,180.779l79.852-46.1,1.115.644-80.967,46.746L160.53,135.321l1.114-.644Z" transform="translate(-160.53 -134.676)" fill="#42e8e0"/>
                </g>
              </g>
            </g>
            <g id="Group_23208" data-name="Group 23208" transform="translate(135.385 139.929)" style="mix-blend-mode: lighten;isolation: isolate">
              <g id="Group_23207" data-name="Group 23207">
                <g id="Group_23206" data-name="Group 23206" clip-path="url(#clip-path-68)">
                  <path id="Path_25795" data-name="Path 25795" d="M267.521,304.319a.559.559,0,0,1-.279-1.043l13.7-7.909a8.592,8.592,0,0,0,3.882-6.723v-3.3a9.69,9.69,0,0,1,4.441-7.694L292.125,276a.559.559,0,0,1,.559.969l-2.862,1.651a8.594,8.594,0,0,0-3.882,6.725v3.3a9.685,9.685,0,0,1-4.441,7.692l-13.7,7.909a.561.561,0,0,1-.28.074" transform="translate(-266.961 -275.921)" fill="#42e8e0"/>
                </g>
              </g>
            </g>
            <g id="Group_23211" data-name="Group 23211" transform="translate(130.058 136.859)" style="mix-blend-mode: lighten;isolation: isolate">
              <g id="Group_23210" data-name="Group 23210" transform="translate(0)">
                <g id="Group_23209" data-name="Group 23209" clip-path="url(#clip-path-69)">
                  <path id="Path_25796" data-name="Path 25796" d="M257.015,298.265a.559.559,0,0,1-.279-1.043l13.7-7.909a8.592,8.592,0,0,0,3.882-6.723v-3.3a9.689,9.689,0,0,1,4.441-7.692l2.861-1.651a.559.559,0,1,1,.559.969l-2.862,1.651a8.592,8.592,0,0,0-3.882,6.723v3.3a9.684,9.684,0,0,1-4.441,7.692l-13.7,7.909a.561.561,0,0,1-.279.074" transform="translate(-256.456 -269.868)" fill="#42e8e0"/>
                </g>
              </g>
            </g>
            <g id="Group_23214" data-name="Group 23214" transform="translate(124.73 133.787)" style="mix-blend-mode: lighten;isolation: isolate">
              <g id="Group_23213" data-name="Group 23213" transform="translate(0)">
                <g id="Group_23212" data-name="Group 23212" clip-path="url(#clip-path-70)">
                  <path id="Path_25797" data-name="Path 25797" d="M246.509,292.209a.559.559,0,0,1-.279-1.043l13.7-7.909a8.586,8.586,0,0,0,3.884-6.723v-3.3a9.684,9.684,0,0,1,4.44-7.692l2.861-1.652a.559.559,0,0,1,.559.969l-2.861,1.652a8.591,8.591,0,0,0-3.882,6.723v3.3a9.68,9.68,0,0,1-4.442,7.692l-13.7,7.909a.561.561,0,0,1-.279.074" transform="translate(-245.95 -263.81)" fill="#42e8e0"/>
                </g>
              </g>
            </g>
            <g id="Group_23217" data-name="Group 23217" transform="translate(119.402 130.718)" style="mix-blend-mode: lighten;isolation: isolate">
              <g id="Group_23216" data-name="Group 23216" transform="translate(0)">
                <g id="Group_23215" data-name="Group 23215" clip-path="url(#clip-path-71)">
                  <path id="Path_25798" data-name="Path 25798" d="M236,286.156a.559.559,0,0,1-.279-1.043l13.7-7.909a8.587,8.587,0,0,0,3.882-6.723v-3.3a9.683,9.683,0,0,1,4.442-7.692l2.86-1.652a.559.559,0,1,1,.558.969l-2.86,1.652a8.594,8.594,0,0,0-3.883,6.723v3.3a9.682,9.682,0,0,1-4.44,7.692l-13.7,7.909a.561.561,0,0,1-.279.074" transform="translate(-235.444 -257.757)" fill="#42e8e0"/>
                </g>
              </g>
            </g>
            <g id="Group_23220" data-name="Group 23220" transform="translate(114.073 127.647)" style="mix-blend-mode: lighten;isolation: isolate">
              <g id="Group_23219" data-name="Group 23219" transform="translate(0)">
                <g id="Group_23218" data-name="Group 23218" clip-path="url(#clip-path-70)">
                  <path id="Path_25799" data-name="Path 25799" d="M225.495,280.1a.559.559,0,0,1-.279-1.043l13.7-7.909a8.593,8.593,0,0,0,3.882-6.723v-3.3a9.688,9.688,0,0,1,4.44-7.692l2.861-1.652a.559.559,0,0,1,.559.969L247.8,254.4a8.592,8.592,0,0,0-3.882,6.723v3.3a9.69,9.69,0,0,1-4.44,7.692l-13.7,7.908a.556.556,0,0,1-.279.075" transform="translate(-224.936 -251.702)" fill="#42e8e0"/>
                </g>
              </g>
            </g>
            <g id="Group_23223" data-name="Group 23223" transform="translate(108.745 124.577)" style="mix-blend-mode: lighten;isolation: isolate">
              <g id="Group_23222" data-name="Group 23222" transform="translate(0)">
                <g id="Group_23221" data-name="Group 23221" clip-path="url(#clip-path-68)">
                  <path id="Path_25800" data-name="Path 25800" d="M214.99,274.047A.559.559,0,0,1,214.71,273l13.7-7.909a8.593,8.593,0,0,0,3.883-6.723v-3.3a9.685,9.685,0,0,1,4.441-7.692l2.861-1.652a.559.559,0,0,1,.559.969l-2.862,1.652a8.592,8.592,0,0,0-3.882,6.723v3.3a9.683,9.683,0,0,1-4.442,7.692l-13.7,7.909a.561.561,0,0,1-.279.074" transform="translate(-214.43 -245.648)" fill="#42e8e0"/>
                </g>
              </g>
            </g>
            <g id="Group_23226" data-name="Group 23226" transform="translate(103.417 121.506)" style="mix-blend-mode: lighten;isolation: isolate">
              <g id="Group_23225" data-name="Group 23225" transform="translate(0)">
                <g id="Group_23224" data-name="Group 23224" clip-path="url(#clip-path-74)">
                  <path id="Path_25801" data-name="Path 25801" d="M204.484,267.992a.559.559,0,0,1-.279-1.043l13.7-7.909a8.591,8.591,0,0,0,3.882-6.723v-3.3a9.683,9.683,0,0,1,4.442-7.692l2.86-1.652a.559.559,0,1,1,.558.969l-2.86,1.652a8.594,8.594,0,0,0-3.883,6.723v3.3a9.685,9.685,0,0,1-4.44,7.692l-13.7,7.909a.562.562,0,0,1-.279.074" transform="translate(-203.925 -239.593)" fill="#42e8e0"/>
                </g>
              </g>
            </g>
            <g id="Group_23229" data-name="Group 23229" transform="translate(98.089 118.436)" style="mix-blend-mode: lighten;isolation: isolate">
              <g id="Group_23228" data-name="Group 23228" transform="translate(0)">
                <g id="Group_23227" data-name="Group 23227" clip-path="url(#clip-path-75)">
                  <path id="Path_25802" data-name="Path 25802" d="M193.978,261.938a.559.559,0,0,1-.279-1.043l13.7-7.909a8.591,8.591,0,0,0,3.882-6.723v-3.3a9.69,9.69,0,0,1,4.44-7.692l2.862-1.652a.559.559,0,0,1,.559.969l-2.862,1.652a8.591,8.591,0,0,0-3.882,6.723v3.3a9.69,9.69,0,0,1-4.44,7.692l-13.7,7.909a.561.561,0,0,1-.279.074" transform="translate(-193.419 -233.54)" fill="#42e8e0"/>
                </g>
              </g>
            </g>
            <g id="Group_23232" data-name="Group 23232" transform="translate(92.761 115.366)" style="mix-blend-mode: lighten;isolation: isolate">
              <g id="Group_23231" data-name="Group 23231">
                <g id="Group_23230" data-name="Group 23230" clip-path="url(#clip-path-70)">
                  <path id="Path_25803" data-name="Path 25803" d="M183.47,255.883a.559.559,0,0,1-.279-1.043l13.7-7.909a8.592,8.592,0,0,0,3.882-6.723v-3.3a9.689,9.689,0,0,1,4.441-7.692l2.861-1.652a.559.559,0,0,1,.559.969l-2.862,1.652a8.592,8.592,0,0,0-3.882,6.723v3.3a9.689,9.689,0,0,1-4.441,7.692l-13.7,7.909a.561.561,0,0,1-.279.074" transform="translate(-182.911 -227.485)" fill="#42e8e0"/>
                </g>
              </g>
            </g>
            <g id="Group_23235" data-name="Group 23235" transform="translate(87.433 112.295)" style="mix-blend-mode: lighten;isolation: isolate">
              <g id="Group_23234" data-name="Group 23234" transform="translate(0)">
                <g id="Group_23233" data-name="Group 23233" clip-path="url(#clip-path-70)">
                  <path id="Path_25804" data-name="Path 25804" d="M172.964,249.829a.559.559,0,0,1-.28-1.043l13.7-7.909a8.592,8.592,0,0,0,3.884-6.723v-3.3a9.684,9.684,0,0,1,4.44-7.692l2.861-1.652a.559.559,0,0,1,.559.969l-2.862,1.652a8.592,8.592,0,0,0-3.881,6.723v3.3a9.684,9.684,0,0,1-4.442,7.692l-13.7,7.909a.561.561,0,0,1-.279.074" transform="translate(-172.405 -221.43)" fill="#42e8e0"/>
                </g>
              </g>
            </g>
            <g id="Group_23238" data-name="Group 23238" transform="translate(82.105 109.225)" style="mix-blend-mode: lighten;isolation: isolate">
              <g id="Group_23237" data-name="Group 23237">
                <g id="Group_23236" data-name="Group 23236" clip-path="url(#clip-path-78)">
                  <path id="Path_25805" data-name="Path 25805" d="M162.459,243.776a.559.559,0,0,1-.279-1.043l13.7-7.909a8.591,8.591,0,0,0,3.882-6.723v-3.3A9.683,9.683,0,0,1,184.2,217.1l2.86-1.652a.559.559,0,1,1,.558.969l-2.86,1.652a8.594,8.594,0,0,0-3.883,6.723v3.3a9.685,9.685,0,0,1-4.44,7.692l-13.7,7.909a.561.561,0,0,1-.279.074" transform="translate(-161.899 -215.377)" fill="#42e8e0"/>
                </g>
              </g>
            </g>
            <g id="Group_23241" data-name="Group 23241" transform="translate(76.776 106.154)" style="mix-blend-mode: lighten;isolation: isolate">
              <g id="Group_23240" data-name="Group 23240" transform="translate(0)">
                <g id="Group_23239" data-name="Group 23239" clip-path="url(#clip-path-70)">
                  <path id="Path_25806" data-name="Path 25806" d="M151.951,237.72a.559.559,0,0,1-.279-1.043l13.7-7.909a8.593,8.593,0,0,0,3.882-6.723v-3.3a9.688,9.688,0,0,1,4.44-7.692l2.861-1.652a.559.559,0,0,1,.559.969l-2.862,1.652a8.592,8.592,0,0,0-3.882,6.723v3.3a9.69,9.69,0,0,1-4.44,7.692l-13.7,7.909a.561.561,0,0,1-.279.074" transform="translate(-151.391 -209.322)" fill="#42e8e0"/>
                </g>
              </g>
            </g>
            <g id="Group_23244" data-name="Group 23244" transform="translate(71.448 103.085)" style="mix-blend-mode: lighten;isolation: isolate">
              <g id="Group_23243" data-name="Group 23243" transform="translate(0)">
                <g id="Group_23242" data-name="Group 23242" clip-path="url(#clip-path-68)">
                  <path id="Path_25807" data-name="Path 25807" d="M141.445,231.667a.559.559,0,0,1-.279-1.043l13.7-7.909a8.592,8.592,0,0,0,3.882-6.723v-3.3A9.685,9.685,0,0,1,163.188,205l2.861-1.652a.559.559,0,0,1,.559.969l-2.862,1.652a8.592,8.592,0,0,0-3.882,6.723v3.3a9.689,9.689,0,0,1-4.441,7.692l-13.7,7.908a.556.556,0,0,1-.279.075" transform="translate(-140.886 -203.269)" fill="#42e8e0"/>
                </g>
              </g>
            </g>
            <g id="Group_23247" data-name="Group 23247" transform="translate(66.12 100.014)" style="mix-blend-mode: lighten;isolation: isolate">
              <g id="Group_23246" data-name="Group 23246" transform="translate(0)">
                <g id="Group_23245" data-name="Group 23245" clip-path="url(#clip-path-74)">
                  <path id="Path_25808" data-name="Path 25808" d="M130.939,225.612a.559.559,0,0,1-.279-1.043l13.7-7.909a8.591,8.591,0,0,0,3.882-6.723v-3.3a9.683,9.683,0,0,1,4.442-7.692l2.86-1.652a.559.559,0,1,1,.558.969l-2.86,1.652a8.594,8.594,0,0,0-3.883,6.723v3.3a9.685,9.685,0,0,1-4.44,7.692l-13.7,7.909a.561.561,0,0,1-.279.074" transform="translate(-130.38 -197.213)" fill="#42e8e0"/>
                </g>
              </g>
            </g>
            <g id="Group_23250" data-name="Group 23250" transform="translate(60.792 96.943)" style="mix-blend-mode: lighten;isolation: isolate">
              <g id="Group_23249" data-name="Group 23249" transform="translate(0)">
                <g id="Group_23248" data-name="Group 23248" clip-path="url(#clip-path-78)">
                  <path id="Path_25809" data-name="Path 25809" d="M120.434,219.558a.559.559,0,0,1-.279-1.043l13.7-7.909a8.591,8.591,0,0,0,3.882-6.723v-3.3a9.69,9.69,0,0,1,4.44-7.692l2.862-1.652a.559.559,0,0,1,.559.969l-2.862,1.652a8.591,8.591,0,0,0-3.882,6.723v3.3a9.69,9.69,0,0,1-4.44,7.692l-13.7,7.909a.561.561,0,0,1-.279.074" transform="translate(-119.874 -191.159)" fill="#42e8e0"/>
                </g>
              </g>
            </g>
            <g id="Group_23253" data-name="Group 23253" transform="translate(55.463 93.873)" style="mix-blend-mode: lighten;isolation: isolate">
              <g id="Group_23252" data-name="Group 23252" transform="translate(0)">
                <g id="Group_23251" data-name="Group 23251" clip-path="url(#clip-path-70)">
                  <path id="Path_25810" data-name="Path 25810" d="M109.926,213.5a.559.559,0,0,1-.279-1.043l13.7-7.909a8.592,8.592,0,0,0,3.882-6.723v-3.3a9.689,9.689,0,0,1,4.441-7.692l2.861-1.652a.559.559,0,0,1,.559.969l-2.862,1.652a8.592,8.592,0,0,0-3.882,6.723v3.3a9.689,9.689,0,0,1-4.441,7.692l-13.7,7.909a.561.561,0,0,1-.279.074" transform="translate(-109.366 -185.105)" fill="#42e8e0"/>
                </g>
              </g>
            </g>
            <g id="Group_23256" data-name="Group 23256" transform="translate(50.136 90.803)" style="mix-blend-mode: lighten;isolation: isolate">
              <g id="Group_23255" data-name="Group 23255">
                <g id="Group_23254" data-name="Group 23254" clip-path="url(#clip-path-70)">
                  <path id="Path_25811" data-name="Path 25811" d="M99.42,207.45a.559.559,0,0,1-.279-1.043l13.7-7.909a8.592,8.592,0,0,0,3.883-6.723v-3.3a9.682,9.682,0,0,1,4.441-7.692l2.861-1.652a.559.559,0,0,1,.559.969l-2.862,1.652a8.588,8.588,0,0,0-3.882,6.723v3.3a9.683,9.683,0,0,1-4.442,7.692l-13.7,7.909a.561.561,0,0,1-.279.074" transform="translate(-98.861 -179.051)" fill="#42e8e0"/>
                </g>
              </g>
            </g>
            <g id="Group_23259" data-name="Group 23259" transform="translate(44.808 87.733)" style="mix-blend-mode: lighten;isolation: isolate">
              <g id="Group_23258" data-name="Group 23258" transform="translate(0)">
                <g id="Group_23257" data-name="Group 23257" clip-path="url(#clip-path-74)">
                  <path id="Path_25812" data-name="Path 25812" d="M88.914,201.4a.559.559,0,0,1-.279-1.043l13.7-7.909a8.591,8.591,0,0,0,3.882-6.723v-3.3a9.68,9.68,0,0,1,4.442-7.692l2.86-1.652a.559.559,0,0,1,.559.969l-2.86,1.652a8.586,8.586,0,0,0-3.884,6.723v3.3a9.685,9.685,0,0,1-4.44,7.692l-13.7,7.909a.561.561,0,0,1-.279.074" transform="translate(-88.355 -172.997)" fill="#42e8e0"/>
                </g>
              </g>
            </g>
            <g id="Group_23262" data-name="Group 23262" transform="translate(39.479 84.662)" style="mix-blend-mode: lighten;isolation: isolate">
              <g id="Group_23261" data-name="Group 23261" transform="translate(0)">
                <g id="Group_23260" data-name="Group 23260" clip-path="url(#clip-path-70)">
                  <path id="Path_25813" data-name="Path 25813" d="M78.406,195.34a.559.559,0,0,1-.279-1.043l13.7-7.909a8.592,8.592,0,0,0,3.882-6.723v-3.3a9.685,9.685,0,0,1,4.441-7.692l2.861-1.652a.559.559,0,0,1,.559.969l-2.862,1.652a8.592,8.592,0,0,0-3.882,6.723v3.3a9.689,9.689,0,0,1-4.441,7.692l-13.7,7.909a.561.561,0,0,1-.279.074" transform="translate(-77.847 -166.942)" fill="#42e8e0"/>
                </g>
              </g>
            </g>
            <g id="Group_23265" data-name="Group 23265" transform="translate(34.151 81.592)" style="mix-blend-mode: lighten;isolation: isolate">
              <g id="Group_23264" data-name="Group 23264" transform="translate(0)">
                <g id="Group_23263" data-name="Group 23263" clip-path="url(#clip-path-70)">
                  <path id="Path_25814" data-name="Path 25814" d="M67.9,189.287a.559.559,0,0,1-.279-1.043l13.7-7.909a8.593,8.593,0,0,0,3.882-6.723v-3.3a9.684,9.684,0,0,1,4.44-7.692l2.861-1.652a.559.559,0,0,1,.559.969L90.2,163.584a8.591,8.591,0,0,0-3.882,6.723v3.3a9.69,9.69,0,0,1-4.44,7.692l-13.7,7.909a.561.561,0,0,1-.279.074" transform="translate(-67.341 -160.888)" fill="#42e8e0"/>
                </g>
              </g>
            </g>
            <g id="Group_23268" data-name="Group 23268" transform="translate(163.737 139.93)" style="mix-blend-mode: lighten;isolation: isolate">
              <g id="Group_23267" data-name="Group 23267" transform="translate(0)">
                <g id="Group_23266" data-name="Group 23266" clip-path="url(#clip-path-88)">
                  <path id="Path_25815" data-name="Path 25815" d="M348.308,304.319a.562.562,0,0,1-.28-.074l-13.7-7.909a9.682,9.682,0,0,1-4.44-7.692v-3.3a8.593,8.593,0,0,0-3.882-6.725l-2.861-1.651A.559.559,0,1,1,323.7,276l2.862,1.651a9.69,9.69,0,0,1,4.44,7.694v3.3a8.589,8.589,0,0,0,3.882,6.723l13.7,7.909a.559.559,0,0,1-.279,1.043" transform="translate(-322.867 -275.923)" fill="#42e8e0"/>
                </g>
              </g>
            </g>
            <g id="Group_23271" data-name="Group 23271" transform="translate(169.065 136.86)" style="mix-blend-mode: lighten;isolation: isolate">
              <g id="Group_23270" data-name="Group 23270">
                <g id="Group_23269" data-name="Group 23269" clip-path="url(#clip-path-89)">
                  <path id="Path_25816" data-name="Path 25816" d="M358.815,298.266a.561.561,0,0,1-.279-.074l-13.7-7.909a9.685,9.685,0,0,1-4.441-7.692v-3.3a8.592,8.592,0,0,0-3.882-6.723l-2.862-1.651a.559.559,0,1,1,.559-.969l2.861,1.651a9.689,9.689,0,0,1,4.441,7.692v3.3a8.592,8.592,0,0,0,3.882,6.723l13.7,7.909a.559.559,0,0,1-.279,1.043" transform="translate(-333.372 -269.869)" fill="#42e8e0"/>
                </g>
              </g>
            </g>
            <g id="Group_23274" data-name="Group 23274" transform="translate(174.392 133.788)" style="mix-blend-mode: lighten;isolation: isolate">
              <g id="Group_23273" data-name="Group 23273">
                <g id="Group_23272" data-name="Group 23272" clip-path="url(#clip-path-68)">
                  <path id="Path_25817" data-name="Path 25817" d="M369.32,292.21a.562.562,0,0,1-.279-.074l-13.7-7.909a9.68,9.68,0,0,1-4.442-7.692v-3.3a8.591,8.591,0,0,0-3.882-6.723l-2.861-1.652a.559.559,0,0,1,.559-.969l2.861,1.652a9.685,9.685,0,0,1,4.44,7.692v3.3a8.586,8.586,0,0,0,3.884,6.723l13.7,7.909a.559.559,0,0,1-.279,1.043" transform="translate(-343.878 -263.811)" fill="#42e8e0"/>
                </g>
              </g>
            </g>
            <g id="Group_23277" data-name="Group 23277" transform="translate(179.721 130.718)" style="mix-blend-mode: lighten;isolation: isolate">
              <g id="Group_23276" data-name="Group 23276" transform="translate(0)">
                <g id="Group_23275" data-name="Group 23275" clip-path="url(#clip-path-75)">
                  <path id="Path_25818" data-name="Path 25818" d="M379.828,286.156a.561.561,0,0,1-.279-.074l-13.7-7.909a9.682,9.682,0,0,1-4.44-7.692v-3.3a8.594,8.594,0,0,0-3.883-6.723l-2.86-1.652a.559.559,0,0,1,.558-.969l2.86,1.652a9.683,9.683,0,0,1,4.442,7.692v3.3a8.587,8.587,0,0,0,3.882,6.723l13.7,7.909a.559.559,0,0,1-.279,1.043" transform="translate(-354.386 -257.758)" fill="#42e8e0"/>
                </g>
              </g>
            </g>
            <g id="Group_23280" data-name="Group 23280" transform="translate(185.049 127.647)" style="mix-blend-mode: lighten;isolation: isolate">
              <g id="Group_23279" data-name="Group 23279">
                <g id="Group_23278" data-name="Group 23278" clip-path="url(#clip-path-68)">
                  <path id="Path_25819" data-name="Path 25819" d="M390.334,280.1a.557.557,0,0,1-.279-.075l-13.7-7.908a9.69,9.69,0,0,1-4.44-7.692v-3.3a8.591,8.591,0,0,0-3.882-6.723l-2.861-1.652a.559.559,0,0,1,.559-.969l2.861,1.652a9.688,9.688,0,0,1,4.44,7.692v3.3a8.593,8.593,0,0,0,3.882,6.723l13.7,7.909a.559.559,0,0,1-.279,1.043" transform="translate(-364.892 -251.703)" fill="#42e8e0"/>
                </g>
              </g>
            </g>
            <g id="Group_23283" data-name="Group 23283" transform="translate(190.377 124.578)" style="mix-blend-mode: lighten;isolation: isolate">
              <g id="Group_23282" data-name="Group 23282">
                <g id="Group_23281" data-name="Group 23281" clip-path="url(#clip-path-89)">
                  <path id="Path_25820" data-name="Path 25820" d="M400.84,274.048a.561.561,0,0,1-.279-.074l-13.7-7.909a9.689,9.689,0,0,1-4.441-7.692v-3.3a8.592,8.592,0,0,0-3.882-6.723l-2.862-1.652a.559.559,0,0,1,.559-.969l2.861,1.652a9.689,9.689,0,0,1,4.441,7.692v3.3a8.592,8.592,0,0,0,3.882,6.723L401.12,273a.559.559,0,0,1-.279,1.043" transform="translate(-375.397 -245.65)" fill="#42e8e0"/>
                </g>
              </g>
            </g>
            <g id="Group_23286" data-name="Group 23286" transform="translate(195.705 121.506)" style="mix-blend-mode: lighten;isolation: isolate">
              <g id="Group_23285" data-name="Group 23285" transform="translate(0)">
                <g id="Group_23284" data-name="Group 23284" clip-path="url(#clip-path-70)">
                  <path id="Path_25821" data-name="Path 25821" d="M411.346,267.993a.561.561,0,0,1-.279-.074l-13.7-7.909a9.683,9.683,0,0,1-4.442-7.692v-3.3a8.592,8.592,0,0,0-3.882-6.723l-2.862-1.652a.559.559,0,0,1,.559-.969l2.861,1.652a9.685,9.685,0,0,1,4.441,7.692v3.3a8.592,8.592,0,0,0,3.883,6.723l13.7,7.909a.559.559,0,0,1-.279,1.043" transform="translate(-385.903 -239.594)" fill="#42e8e0"/>
                </g>
              </g>
            </g>
            <g id="Group_23289" data-name="Group 23289" transform="translate(201.034 118.437)" style="mix-blend-mode: lighten;isolation: isolate">
              <g id="Group_23288" data-name="Group 23288" transform="translate(0)">
                <g id="Group_23287" data-name="Group 23287" clip-path="url(#clip-path-71)">
                  <path id="Path_25822" data-name="Path 25822" d="M421.852,261.939a.561.561,0,0,1-.279-.074l-13.7-7.909a9.685,9.685,0,0,1-4.44-7.692v-3.3a8.593,8.593,0,0,0-3.884-6.723l-2.86-1.652a.559.559,0,0,1,.559-.969l2.86,1.652a9.683,9.683,0,0,1,4.442,7.692v3.3a8.591,8.591,0,0,0,3.882,6.723l13.7,7.909a.559.559,0,0,1-.279,1.043" transform="translate(-396.411 -233.541)" fill="#42e8e0"/>
                </g>
              </g>
            </g>
            <g id="Group_23292" data-name="Group 23292" transform="translate(206.362 115.366)" style="mix-blend-mode: lighten;isolation: isolate">
              <g id="Group_23291" data-name="Group 23291">
                <g id="Group_23290" data-name="Group 23290" clip-path="url(#clip-path-68)">
                  <path id="Path_25823" data-name="Path 25823" d="M432.359,255.884a.561.561,0,0,1-.279-.074l-13.7-7.909a9.689,9.689,0,0,1-4.441-7.692v-3.3a8.592,8.592,0,0,0-3.882-6.723l-2.862-1.652a.559.559,0,0,1,.559-.969l2.861,1.652a9.689,9.689,0,0,1,4.441,7.692v3.3a8.592,8.592,0,0,0,3.882,6.723l13.7,7.909a.559.559,0,0,1-.279,1.043" transform="translate(-406.917 -227.486)" fill="#42e8e0"/>
                </g>
              </g>
            </g>
            <g id="Group_23295" data-name="Group 23295" transform="translate(211.69 112.295)" style="mix-blend-mode: lighten;isolation: isolate">
              <g id="Group_23294" data-name="Group 23294">
                <g id="Group_23293" data-name="Group 23293" clip-path="url(#clip-path-70)">
                  <path id="Path_25824" data-name="Path 25824" d="M442.865,249.83a.561.561,0,0,1-.279-.074l-13.7-7.909a9.683,9.683,0,0,1-4.442-7.692v-3.3a8.592,8.592,0,0,0-3.882-6.723l-2.862-1.652a.559.559,0,0,1,.559-.969l2.861,1.652a9.684,9.684,0,0,1,4.44,7.692v3.3a8.593,8.593,0,0,0,3.884,6.723l13.7,7.909a.559.559,0,0,1-.279,1.043" transform="translate(-417.423 -221.431)" fill="#42e8e0"/>
                </g>
              </g>
            </g>
            <g id="Group_23298" data-name="Group 23298" transform="translate(217.019 109.226)" style="mix-blend-mode: lighten;isolation: isolate">
              <g id="Group_23297" data-name="Group 23297" transform="translate(0)">
                <g id="Group_23296" data-name="Group 23296" clip-path="url(#clip-path-75)">
                  <path id="Path_25825" data-name="Path 25825" d="M453.373,243.776a.561.561,0,0,1-.279-.074l-13.7-7.909a9.685,9.685,0,0,1-4.44-7.692v-3.3a8.594,8.594,0,0,0-3.883-6.723l-2.86-1.652a.559.559,0,1,1,.558-.969l2.86,1.652a9.683,9.683,0,0,1,4.442,7.692v3.3a8.591,8.591,0,0,0,3.882,6.723l13.7,7.909a.559.559,0,0,1-.279,1.043" transform="translate(-427.931 -215.378)" fill="#42e8e0"/>
                </g>
              </g>
            </g>
            <g id="Group_23301" data-name="Group 23301" transform="translate(222.346 106.155)" style="mix-blend-mode: lighten;isolation: isolate">
              <g id="Group_23300" data-name="Group 23300">
                <g id="Group_23299" data-name="Group 23299" clip-path="url(#clip-path-68)">
                  <path id="Path_25826" data-name="Path 25826" d="M463.879,237.721a.561.561,0,0,1-.279-.074l-13.7-7.909a9.69,9.69,0,0,1-4.44-7.692v-3.3a8.592,8.592,0,0,0-3.882-6.723l-2.862-1.652a.559.559,0,0,1,.559-.969l2.861,1.652a9.688,9.688,0,0,1,4.44,7.692v3.3a8.593,8.593,0,0,0,3.882,6.723l13.7,7.909a.559.559,0,0,1-.279,1.043" transform="translate(-438.436 -209.323)" fill="#42e8e0"/>
                </g>
              </g>
            </g>
            <g id="Group_23304" data-name="Group 23304" transform="translate(227.674 103.085)" style="mix-blend-mode: lighten;isolation: isolate">
              <g id="Group_23303" data-name="Group 23303">
                <g id="Group_23302" data-name="Group 23302" clip-path="url(#clip-path-68)">
                  <path id="Path_25827" data-name="Path 25827" d="M474.385,231.667a.556.556,0,0,1-.279-.075l-13.7-7.908a9.689,9.689,0,0,1-4.441-7.692v-3.3a8.592,8.592,0,0,0-3.882-6.723l-2.862-1.652a.559.559,0,0,1,.559-.969L452.642,205a9.689,9.689,0,0,1,4.441,7.692v3.3a8.592,8.592,0,0,0,3.882,6.723l13.7,7.909a.559.559,0,0,1-.279,1.043" transform="translate(-448.942 -203.27)" fill="#42e8e0"/>
                </g>
              </g>
            </g>
            <g id="Group_23307" data-name="Group 23307" transform="translate(233.002 100.014)" style="mix-blend-mode: lighten;isolation: isolate">
              <g id="Group_23306" data-name="Group 23306">
                <g id="Group_23305" data-name="Group 23305" clip-path="url(#clip-path-70)">
                  <path id="Path_25828" data-name="Path 25828" d="M484.89,225.613a.561.561,0,0,1-.279-.074l-13.7-7.909a9.683,9.683,0,0,1-4.442-7.692v-3.3a8.592,8.592,0,0,0-3.882-6.723l-2.862-1.652a.559.559,0,0,1,.559-.969l2.861,1.652a9.685,9.685,0,0,1,4.441,7.692v3.3a8.592,8.592,0,0,0,3.883,6.723l13.7,7.909a.559.559,0,0,1-.279,1.043" transform="translate(-459.448 -197.214)" fill="#42e8e0"/>
                </g>
              </g>
            </g>
            <g id="Group_23310" data-name="Group 23310" transform="translate(238.331 96.944)" style="mix-blend-mode: lighten;isolation: isolate">
              <g id="Group_23309" data-name="Group 23309" transform="translate(0)">
                <g id="Group_23308" data-name="Group 23308" clip-path="url(#clip-path-75)">
                  <path id="Path_25829" data-name="Path 25829" d="M495.4,219.558a.561.561,0,0,1-.279-.074l-13.7-7.909a9.685,9.685,0,0,1-4.44-7.692v-3.3a8.594,8.594,0,0,0-3.883-6.723l-2.861-1.652a.559.559,0,0,1,.559-.969l2.86,1.652a9.683,9.683,0,0,1,4.442,7.692v3.3a8.591,8.591,0,0,0,3.882,6.723l13.7,7.909a.559.559,0,0,1-.279,1.043" transform="translate(-469.956 -191.161)" fill="#42e8e0"/>
                </g>
              </g>
            </g>
            <g id="Group_23313" data-name="Group 23313" transform="translate(243.659 93.873)" style="mix-blend-mode: lighten;isolation: isolate">
              <g id="Group_23312" data-name="Group 23312" transform="translate(0)">
                <g id="Group_23311" data-name="Group 23311" clip-path="url(#clip-path-70)">
                  <path id="Path_25830" data-name="Path 25830" d="M505.9,213.5a.561.561,0,0,1-.279-.074l-13.7-7.909a9.689,9.689,0,0,1-4.441-7.692v-3.3A8.592,8.592,0,0,0,483.6,187.8l-2.862-1.652a.559.559,0,0,1,.559-.969l2.861,1.652a9.689,9.689,0,0,1,4.441,7.692v3.3a8.592,8.592,0,0,0,3.882,6.723l13.7,7.909a.559.559,0,0,1-.279,1.043" transform="translate(-480.462 -185.105)" fill="#42e8e0"/>
                </g>
              </g>
            </g>
            <g id="Group_23316" data-name="Group 23316" transform="translate(248.986 90.804)" style="mix-blend-mode: lighten;isolation: isolate">
              <g id="Group_23315" data-name="Group 23315" transform="translate(0)">
                <g id="Group_23314" data-name="Group 23314" clip-path="url(#clip-path-68)">
                  <path id="Path_25831" data-name="Path 25831" d="M516.41,207.451a.563.563,0,0,1-.279-.074l-13.7-7.909a9.683,9.683,0,0,1-4.442-7.692v-3.3a8.588,8.588,0,0,0-3.882-6.723l-2.862-1.652a.559.559,0,0,1,.559-.969l2.861,1.652a9.681,9.681,0,0,1,4.441,7.692v3.3a8.593,8.593,0,0,0,3.884,6.723l13.7,7.909a.559.559,0,0,1-.279,1.043" transform="translate(-490.967 -179.053)" fill="#42e8e0"/>
                </g>
              </g>
            </g>
            <g id="Group_23319" data-name="Group 23319" transform="translate(254.316 87.733)" style="mix-blend-mode: lighten;isolation: isolate">
              <g id="Group_23318" data-name="Group 23318" transform="translate(0)">
                <g id="Group_23317" data-name="Group 23317" clip-path="url(#clip-path-75)">
                  <path id="Path_25832" data-name="Path 25832" d="M526.917,201.4a.563.563,0,0,1-.28-.074l-13.7-7.909a9.685,9.685,0,0,1-4.441-7.692v-3.3a8.585,8.585,0,0,0-3.883-6.723l-2.861-1.652a.559.559,0,1,1,.559-.969l2.86,1.652a9.679,9.679,0,0,1,4.442,7.692v3.3a8.591,8.591,0,0,0,3.882,6.723l13.7,7.909a.559.559,0,0,1-.279,1.043" transform="translate(-501.476 -172.999)" fill="#42e8e0"/>
                </g>
              </g>
            </g>
            <g id="Group_23322" data-name="Group 23322" transform="translate(259.643 84.663)" style="mix-blend-mode: lighten;isolation: isolate">
              <g id="Group_23321" data-name="Group 23321" transform="translate(0)">
                <g id="Group_23320" data-name="Group 23320" clip-path="url(#clip-path-71)">
                  <path id="Path_25833" data-name="Path 25833" d="M537.422,195.341a.562.562,0,0,1-.279-.074l-13.7-7.909a9.69,9.69,0,0,1-4.44-7.692v-3.3a8.591,8.591,0,0,0-3.882-6.723l-2.861-1.652a.559.559,0,1,1,.558-.969l2.862,1.652a9.685,9.685,0,0,1,4.441,7.692v3.3A8.591,8.591,0,0,0,524,186.389l13.7,7.909a.559.559,0,0,1-.279,1.043" transform="translate(-511.981 -166.943)" fill="#42e8e0"/>
                </g>
              </g>
            </g>
            <g id="Group_23325" data-name="Group 23325" transform="translate(264.971 81.593)" style="mix-blend-mode: lighten;isolation: isolate">
              <g id="Group_23324" data-name="Group 23324" transform="translate(0)">
                <g id="Group_23323" data-name="Group 23323" clip-path="url(#clip-path-68)">
                  <path id="Path_25834" data-name="Path 25834" d="M547.929,189.287a.56.56,0,0,1-.279-.074l-13.7-7.909a9.69,9.69,0,0,1-4.44-7.692v-3.3a8.592,8.592,0,0,0-3.882-6.723l-2.861-1.652a.559.559,0,0,1,.559-.969l2.861,1.652a9.685,9.685,0,0,1,4.44,7.692v3.3a8.593,8.593,0,0,0,3.882,6.723l13.7,7.909a.559.559,0,0,1-.279,1.043" transform="translate(-522.487 -160.89)" fill="#42e8e0"/>
                </g>
              </g>
            </g>
          </g>
        </g>
      </g>
    </g>
    <path id="Path_25987" data-name="Path 25987" d="M6.617,0c3.655,0,6.617,2.037,6.617,4.549S10.272,9.1,6.617,9.1,0,7.062,0,4.549,2.963,0,6.617,0Z" transform="translate(554.195 1004.754)" fill="#4984ce"/>
    <path id="Path_25988" data-name="Path 25988" d="M6.617,0c3.655,0,6.617,2.037,6.617,4.549S10.272,9.1,6.617,9.1,0,7.062,0,4.549,2.963,0,6.617,0Z" transform="translate(694.812 1004.754)" fill="#4984ce"/>
    <path id="Path_25991" data-name="Path 25991" d="M6.617,0c3.655,0,6.617,2.037,6.617,4.549S10.272,9.1,6.617,9.1,0,7.062,0,4.549,2.963,0,6.617,0Z" transform="translate(720.453 672.237)" fill="#4984ce"/>
    <path id="Path_25992" data-name="Path 25992" d="M6.617,0c3.655,0,6.617,2.037,6.617,4.549S10.272,9.1,6.617,9.1,0,7.062,0,4.549,2.963,0,6.617,0Z" transform="translate(497.948 530.793)" fill="#4984ce"/>
    <path id="Path_25993" data-name="Path 25993" d="M6.617,0c3.655,0,6.617,2.037,6.617,4.549S10.272,9.1,6.617,9.1,0,7.062,0,4.549,2.963,0,6.617,0Z" transform="translate(65.345 739.236)" fill="#4984ce"/>
  </g>
</svg>
