<svg xmlns="http://www.w3.org/2000/svg" xmlns:xlink="http://www.w3.org/1999/xlink" width="1414.737" height="850.756" viewBox="0 0 1414.737 850.756">
  <defs>
    <linearGradient id="linear-gradient" x1="0.5" y1="1" x2="0.5" gradientUnits="objectBoundingBox">
      <stop offset="0" stop-color="#0033be"/>
      <stop offset="1" stop-color="#5fa9ff"/>
    </linearGradient>
    <clipPath id="clip-path">
      <path id="Path_25990" data-name="Path 25990" d="M0,850.756H1414.737V0H0Z" fill="none"/>
    </clipPath>
    <clipPath id="clip-path-2">
      <rect id="Rectangle_22168" data-name="Rectangle 22168" width="1414.737" height="850.756" fill="none"/>
    </clipPath>
    <clipPath id="clip-path-3">
      <rect id="Rectangle_22166" data-name="Rectangle 22166" width="1414.737" height="850.756" fill="url(#linear-gradient)"/>
    </clipPath>
    <clipPath id="clip-path-4">
      <rect id="Rectangle_22167" data-name="Rectangle 22167" width="1260.298" height="739.802" fill="none"/>
    </clipPath>
  </defs>
  <g id="Group_23694" data-name="Group 23694" transform="translate(156 97)" opacity="0.25">
    <g id="Group_10" data-name="Group 10" transform="translate(-156 -97)" clip-path="url(#clip-path)">
      <g id="Group_23031" data-name="Group 23031">
        <g id="Group_23030" data-name="Group 23030" clip-path="url(#clip-path-2)">
          <g id="Group_23026" data-name="Group 23026" opacity="0.75">
            <g id="Group_23025" data-name="Group 23025">
              <g id="Group_23024" data-name="Group 23024" clip-path="url(#clip-path-3)">
                <path id="Path_25735" data-name="Path 25735" d="M39.219,843.376a11.7,11.7,0,0,1,10.589,0c.127.074.218.159.335.237L213.7,749.182l0-117.538L0,755.027V753.09L253.639,606.653l0-129.953,136.8-78.984-24.212-13.979L233.064,460.624l.421.729L106.773,534.511v15.994L81.057,565.352v45.763L0,657.913v-1.936l79.38-45.83V566.321L46.635,585.226c2.119,1.69,1.882,4.058-.755,5.58a11.7,11.7,0,0,1-10.589,0c-2.924-1.689-2.924-4.425,0-6.114a11.835,11.835,0,0,1,9.665-.435l60.14-34.72V533.543L230.78,460.98H172.414L0,560.524V558.59l169.063-97.61L0,460.983v-1.677l232,0,132.56-76.533-25.078-14.479-96.093,55.479-.195.113L0,423.886V422.21H172.345l-52.411-30.26L0,391.951v-1.676l120.382,0,55.313,31.936h67.049l95.062-54.884L315.732,354.58l-84.126,48.572-.195.112h-33.88l-68.75-39.693L0,363.573V361.9l129.231,0,68.75,39.693h32.982l61.083-35.267H261.506l-29.8,17.2H208.576L157.1,353.806a11.866,11.866,0,0,1-9.5-.513c-2.924-1.688-2.924-4.425,0-6.113a11.7,11.7,0,0,1,10.589,0c2.688,1.552,2.873,3.98.62,5.675l50.215,28.993h22.237l29.8-17.2H294.95l19.107-11.031-31.07-17.938H237.166l-56.74-32.759a11.834,11.834,0,0,1-9.666-.435c-2.923-1.688-2.923-4.425,0-6.113a11.7,11.7,0,0,1,10.589,0c2.636,1.522,2.872,3.891.752,5.581L237.615,334h42.468l-14.609-8.435,22.7-13.108-61.441-35.473h-64.6L93.991,316.326c2.12,1.69,1.884,4.059-.754,5.581a11.7,11.7,0,0,1-10.589,0c-2.924-1.687-2.924-4.425,0-6.113a11.841,11.841,0,0,1,9.666-.435l35.1-20.263L0,295.1v-1.925l.431.248,129.885,0,31.176-18,.194-.113h62.151L198.359,260.6l-146.19,0L14.437,238.815H0v-1.677H11.533L0,230.48v-1.936l52.618,30.38,146.19,0,91.047,52.566,42.431-24.5L226.368,225.84H112.374L0,160.96v-1.935l112.823,65.139H223.464l-139.9-80.772,0-64.664L0,30.481V28.545L85.241,77.76l0,64.664,248.723,143.6,36.509-21.078-149.494-86.31,0-129.953L136.657,0h3.352l82.646,47.715,0,129.954,149.493,86.309,22.526-13.006L283.9,187.019l0-152.309L230.662,3.967V0h1.676V3l53.246,30.743,0,152.309L396.347,250l30.394-17.548-84.752-48.931L341.994,0h1.677l0,78.128,42.494-24.534,0-53.594h1.676V54.561l-44.171,25.5V125l55.91-32.279c-1.953-1.681-1.649-3.977.923-5.46a11.7,11.7,0,0,1,10.589,0c2.924,1.688,2.924,4.426,0,6.114a11.806,11.806,0,0,1-9.875.337l-57.547,33.224,0,55.627,84.751,48.931,27.067-15.628-41.189-23.779,0-35.028,10.4-6V133.193l74.236-42.861V60.071l60.441-34.9c-2.119-1.689-1.883-4.058.754-5.58a11.7,11.7,0,0,1,10.589,0c2.924,1.688,2.924,4.426,0,6.114a11.839,11.839,0,0,1-9.667.434l-60.44,34.9V91.3l-74.235,42.862v15.923L551.148,78.046c-1.954-1.681-1.65-3.976.922-5.461a11.7,11.7,0,0,1,10.589,0c2.924,1.688,2.924,4.425,0,6.113a11.8,11.8,0,0,1-9.874.337L452.748,136.79h50.2l57.56-33.231c-2.12-1.691-1.885-4.059.753-5.582a11.7,11.7,0,0,1,10.589,0c2.923,1.688,2.923,4.425,0,6.113a11.836,11.836,0,0,1-9.665.436l-58.591,33.828-.195.112H450v-.089l-34.028,19.646v33.094L457.158,214.9l8.168-4.716,10.615,6.129,172.934-99.843.195-.113H696.24a4.3,4.3,0,0,1,2.05-2.219,11.7,11.7,0,0,1,10.589,0c2.924,1.688,2.924,4.425,0,6.113a11.7,11.7,0,0,1-10.589,0,4.3,4.3,0,0,1-2.049-2.217H649.52l-171.9,99.248,26.291,15.179,143.708-82.969c-2.119-1.69-1.883-4.058.754-5.58a11.7,11.7,0,0,1,10.589,0c2.924,1.689,2.924,4.425,0,6.114a11.836,11.836,0,0,1-9.667.434L505.584,233.421l27.234,15.724L735.889,131.9l0-98.159L677.447,0H680.8L715.63,20.111,750.463,0h3.351L717.306,21.078l20.26,11.7,0,77.2,34.328-19.819V41.947L841.714,1.638A3.781,3.781,0,0,1,840.479,0h14.6a4.331,4.331,0,0,1-2.024,2.17,11.839,11.839,0,0,1-9.665.435L773.569,42.914V91.122l-36,20.786v20.961L534.494,250.112l29.918,17.273L958.083,40.1V0h1.677l0,41.067L566.087,268.352,590.3,282.331,793.185,165.2l.193-.113H941l65.12-37.6h-.383l0-39.95L1079.5,44.949c-2.119-1.691-1.883-4.059.754-5.581a11.7,11.7,0,0,1,10.589,0c2.923,1.688,2.923,4.425,0,6.114a11.838,11.838,0,0,1-9.666.434L1007.414,88.5l0,38.237,111.9-64.6.193-.113,247.931,0,47.3,27.309v1.937L1366.984,63.7l-247.029,0L941.645,166.646l-.193.113H793.83L591.974,283.3l21.316,12.307L805.285,184.759l.193-.113,169.419,0L1057.415,137c-2.119-1.69-1.883-4.058.755-5.581a11.7,11.7,0,0,1,10.589,0c2.924,1.689,2.923,4.426,0,6.114a11.836,11.836,0,0,1-9.667.434l-83.549,48.238-.194.112-169.418,0-28.409,16.4,226.417,0,179.03,103.365a11.839,11.839,0,0,1,9.667.435c2.923,1.688,2.923,4.425,0,6.113a11.7,11.7,0,0,1-10.589,0c-2.637-1.522-2.872-3.89-.753-5.58L1003.486,204.4l-228.869,0L703,245.745l28.134,16.244H781.06L827.8,288.975a11.841,11.841,0,0,1,9.666.435c2.923,1.689,2.923,4.427,0,6.114a11.7,11.7,0,0,1-10.589,0c-2.637-1.522-2.873-3.891-.753-5.581l-45.518-26.277H734.04l108.794,62.811,100.595,0,56.115-32.4c-2.119-1.69-1.883-4.058.754-5.581a11.7,11.7,0,0,1,10.589,0c2.924,1.688,2.924,4.425,0,6.114a11.84,11.84,0,0,1-9.667.434l-57.145,32.992-.194.113-101.5,0L701.328,246.713l-59.953,34.613h33.1l26.644,15.383a11.822,11.822,0,0,1,9.781.38c2.924,1.688,2.924,4.426,0,6.114a11.7,11.7,0,0,1-10.589,0c-2.6-1.5-2.874-3.829-.847-5.515L674.026,283H638.472l-23.506,13.57,50.206,28.986-15.732,9.083,86.6,50h28.9l34.491-19.913c-2.12-1.69-1.884-4.058.754-5.581a11.7,11.7,0,0,1,10.589,0c2.924,1.688,2.924,4.426,0,6.114a11.84,11.84,0,0,1-9.667.434L765.578,386.2l-.194.113h-29.8l-62.92-36.329V383.25l59,34.063a11.84,11.84,0,0,1,9.667.435c2.923,1.688,2.923,4.425,0,6.114a11.708,11.708,0,0,1-10.589,0c-2.637-1.523-2.872-3.891-.753-5.581l-59-34.064v-35.2l-23.226-13.41-81.679,47.158,37.892,21.878,49.134,0L730.8,449.5h58.94L871.7,402.178c-2.12-1.69-1.884-4.058.752-5.581a11.7,11.7,0,0,1,10.589,0c2.924,1.688,2.924,4.425,0,6.113a11.839,11.839,0,0,1-9.665.436L790.385,451.06l-.194.112H730.349L652.662,406.32l-45.783,0L834.5,537.741l160.8,0,101.309,58.492.419.242,0,89.934a11.13,11.13,0,0,1,6.005,1.227c2.924,1.688,2.924,4.425,0,6.114a11.71,11.71,0,0,1-10.589,0c-2.923-1.689-2.923-4.426,0-6.114a9.448,9.448,0,0,1,2.906-1.024l0-89.17-100.5-58.025H834.051L564.408,383.736l-30.6,17.667L806.05,558.584l.419.243,0,93.934,93.145,53.776a11.836,11.836,0,0,1,9.665.435c2.923,1.688,2.923,4.426,0,6.113a11.7,11.7,0,0,1-10.588,0c-2.636-1.522-2.872-3.89-.754-5.58l-92.725-53.534-.419-.243,0-93.934L532.131,402.371,499.987,420.93l159.7,92.2.419.242,0,80.617L385.771,752.38c2.119,1.69,1.883,4.058-.755,5.581a11.708,11.708,0,0,1-10.589,0c-2.924-1.689-2.923-4.426,0-6.114a11.837,11.837,0,0,1,9.664-.436L585.8,634.958H525.165L416.4,697.752c2.119,1.69,1.883,4.058-.753,5.581a11.7,11.7,0,0,1-10.589,0c-2.924-1.688-2.924-4.426,0-6.114a11.839,11.839,0,0,1,9.665-.435l109.8-63.39.194-.112H588.7l69.726-40.255,0-78.682L529.869,440.117V480.1l78.995,45.607.419.243v40.485a10.373,10.373,0,0,1,4.455,1.22c2.924,1.687,2.924,4.425,0,6.113a11.7,11.7,0,0,1-10.589,0c-2.924-1.688-2.924-4.425,0-6.113a10.381,10.381,0,0,1,4.456-1.22V526.92L528.61,481.313l-.419-.243,0-41.921L498.311,421.9,465.32,440.945,445.3,429.385l0,87.313,69.673,40.224a11.839,11.839,0,0,1,9.665.436c2.924,1.688,2.924,4.425,0,6.113a11.7,11.7,0,0,1-10.589,0c-2.636-1.522-2.872-3.89-.754-5.58l-69.253-39.982-.419-.243V482.04l-52.093,30.076,0,33.8L505.138,611.5a11.839,11.839,0,0,1,9.665.435c2.924,1.688,2.924,4.425,0,6.113a11.7,11.7,0,0,1-10.589,0c-2.637-1.522-2.872-3.89-.755-5.579L390.269,547.121l-.42-.243V511.149L443.62,480.1l0-51.686-28.507-16.458-24.109,13.918v31.614l-36.54,21.1c2.119,1.69,1.883,4.058-.754,5.58a11.7,11.7,0,0,1-10.589,0c-2.923-1.688-2.923-4.425,0-6.113a11.835,11.835,0,0,1,9.665-.435l36.54-21.1v-29.68l-79.706,46.019v69.3l119.94,69.247.419.243v26.092l-67.829,39.163c2.118,1.69,1.882,4.058-.755,5.58a11.7,11.7,0,0,1-10.589,0c-2.923-1.688-2.923-4.425,0-6.114a11.839,11.839,0,0,1,9.665-.435l67.83-39.161V612.624l-119.94-69.248-.418-.242V471.9l105.492-60.905-21.316-12.308-136.8,78.984,0,129.953L215.38,630.676l0,119.473L51.444,844.8c1.105,1.563.561,3.423-1.637,4.692a11.7,11.7,0,0,1-10.589,0c-2.924-1.688-2.924-4.426,0-6.114" transform="translate(0 0)" fill="url(#linear-gradient)"/>
              </g>
            </g>
          </g>
          <g id="Group_23029" data-name="Group 23029" transform="translate(0 0)" opacity="0.1">
            <g id="Group_23028" data-name="Group 23028">
              <g id="Group_23027" data-name="Group 23027" clip-path="url(#clip-path-4)">
                <path id="Path_25736" data-name="Path 25736" d="M0,764.234l33.61-19.4,0-64.979L343.9,500.7l-19.081-11.015L164.9,582.013l-.153.088L48.4,582.1,0,610.045v-1.528l47.889-27.649.154-.087,116.354,0,159.1-91.855-16.8-9.7L155.367,566.6l-.153.087-133.535,0L0,579.2v-1.527l21.172-12.224.153-.088,133.535,0,22.39-12.927L0,552.437v-1.321l179.539,0,56.442-32.588-22.178-12.8-39.341,0-36.844-21.271a9.331,9.331,0,0,1-7.617-.344c-2.3-1.331-2.3-3.487,0-4.818a9.222,9.222,0,0,1,8.346,0c2.078,1.2,2.264,3.066.594,4.4L174.816,504.4l36.7,0-85.743-49.5H46.482L2.255,480.43c1.669,1.333,1.483,3.2-.595,4.4a7.07,7.07,0,0,1-1.66.66v-6.081a8.3,8.3,0,0,1,.933.26L45.974,453.66l.153-.087h80L237.3,517.761l47.249-27.279H258.469l-21-12.126a9.316,9.316,0,0,1-7.708-.3c-2.3-1.331-2.3-3.488,0-4.818a9.224,9.224,0,0,1,8.346,0c2.05,1.183,2.265,3.018.668,4.346l20.05,11.578h28.019l18.53-10.7-38.58-22.273-.991-.574,12.4-7.158-68.254-39.408H187.171l-27.184,15.694c1.67,1.332,1.484,3.2-.595,4.4a9.222,9.222,0,0,1-8.346,0c-2.3-1.33-2.3-3.487,0-4.818a9.335,9.335,0,0,1,7.617-.344l28-16.164.153-.088H210.3l49.594,28.633V410.145L213.391,383.3a9.329,9.329,0,0,1-7.618-.343c-2.3-1.331-2.3-3.488,0-4.818a9.222,9.222,0,0,1,8.346,0c2.078,1.2,2.264,3.065.6,4.4l46.5,26.849v27.743l18.307,10.569L343.9,410.523l-29.866-17.242H275.309l-61.232-35.352-46.457,0-64.6,37.3c1.669,1.333,1.483,3.2-.6,4.4a9.228,9.228,0,0,1-8.345,0c-2.3-1.332-2.3-3.488,0-4.819a9.329,9.329,0,0,1,7.618-.343L167.112,356.7l.153-.088,47.166,0,61.233,35.352h36.083L132.338,288.377H5.595L0,285.147v-1.526l5.949,3.434H132.693l212.532,122.7,24.117-13.925L154.765,271.948l-.33-.191V197.721L81.02,155.333a9.333,9.333,0,0,1-7.618-.343c-2.3-1.331-2.3-3.488,0-4.818a9.224,9.224,0,0,1,8.347,0c2.078,1.2,2.264,3.065.6,4.4l73.414,42.388,0,74.036,214.91,124.078L396,380.445,270.124,307.772l-.33-.191,0-63.543,215.6-124.476h9.654c-.03.018-.05.039-.081.057a9.331,9.331,0,0,1-7.619.343L328.365,211.75h47.789l85.725-49.5c-1.669-1.332-1.482-3.2.6-4.4a9.219,9.219,0,0,1,8.346,0c2.305,1.331,2.305,3.487,0,4.819a9.333,9.333,0,0,1-7.618.342l-86.54,49.966-.153.087H326.076L271.118,244.8l0,62.015,101.332,58.5,0-31.515-62.594-36.136V265.757a8.189,8.189,0,0,1-3.513-.961c-2.3-1.331-2.3-3.488,0-4.818a9.224,9.224,0,0,1,8.346,0c2.3,1.33,2.3,3.487,0,4.818a8.189,8.189,0,0,1-3.512.961l0,31.148,62.594,36.138,0,33.043,23.552,13.6,25.673-14.822.33-.189,15.781,9.111,0-68.818-54.916-31.706a9.332,9.332,0,0,1-7.619-.342c-2.3-1.331-2.3-3.488,0-4.818a9.219,9.219,0,0,1,8.346,0c2.077,1.2,2.264,3.065.6,4.4L440.429,304.2v28.08l41.059-23.7V281.937l-89.548-51.7a9.331,9.331,0,0,1-7.617-.342c-2.305-1.332-2.305-3.488,0-4.819a9.222,9.222,0,0,1,8.346,0c2.078,1.2,2.264,3.066.595,4.4l89.217,51.509.33.191v28.166l-42.381,24.467,0,40.74,22.468,12.971,19-10.971V351.626L510.7,335c-1.669-1.332-1.483-3.2.595-4.4a9.22,9.22,0,0,1,8.346,0c2.3,1.331,2.3,3.488,0,4.819a9.337,9.337,0,0,1-7.618.343l-28.8,16.628,0,23.391,62.824-36.27V284.889l-94.537-54.58-.33-.191V209.549l53.463-30.866c-1.669-1.333-1.484-3.2.595-4.4a9.222,9.222,0,0,1,8.345,0c2.305,1.331,2.305,3.487,0,4.818a9.329,9.329,0,0,1-7.616.344L452.5,210.314v19.04l94.536,54.58.331.191,0,56.152-83.147,48,16.8,9.7,107.828-62.255,0-102.428,31.477-18.173,0-94.165,2.417-1.4h2.646l-3.741,2.161,0,92.637,164.2-94.8h2.646l-198.319,114.5,0,102.428L482.341,398.743l19.08,11.016,104.964-60.6-.33-.573,99.873-57.663v-12.6l20.27-11.7V230.543l149.1-86.085c-1.669-1.332-1.483-3.2.595-4.4a9.222,9.222,0,0,1,8.346,0c2.305,1.331,2.3,3.488,0,4.818a9.329,9.329,0,0,1-7.618.343l-149.1,86.085v34.542l25.808-14.9c-1.67-1.333-1.483-3.2.595-4.4a9.227,9.227,0,0,1,8.346,0c2.3,1.331,2.3,3.488,0,4.818a9.328,9.328,0,0,1-7.619.343l-47.4,27.368v12.605L608.19,348.877h46l198.1-114.371,0-29.907,78.493-45.316c-1.671-1.332-1.485-3.2.594-4.4a9.222,9.222,0,0,1,8.346,0c2.3,1.331,2.3,3.487,0,4.819a9.335,9.335,0,0,1-7.617.343l-78.494,45.317,0,29.907L656.834,348.877h134.01l161.1-93.012.154-.087,188.418,0,110.438,63.76a9.331,9.331,0,0,1,7.617.343c2.305,1.331,2.305,3.488,0,4.819a9.228,9.228,0,0,1-8.346,0c-2.078-1.2-2.264-3.065-.6-4.4L1140.16,257.1l-187.709,0-161.1,93.012-.152.088H607.224L502.744,410.523l19.764,11.41,75.74-43.73.153-.088H811.567L961.012,291.83c-1.669-1.332-1.481-3.2.6-4.4a9.224,9.224,0,0,1,8.346,0c2.3,1.331,2.3,3.487,0,4.818a9.332,9.332,0,0,1-7.619.343L812.073,379.349l-.151.088H654.247l41.308,23.851,111.541,0a3.4,3.4,0,0,1,1.616-1.747,9.222,9.222,0,0,1,8.346,0c2.3,1.33,2.3,3.487,0,4.818a9.224,9.224,0,0,1-8.346,0,3.392,3.392,0,0,1-1.615-1.749l-111.9,0-43.6-25.172H598.755L523.831,422.7l17.395,10.042,66.309-38.282.153-.087h26.7l54.188,31.283H851.99L954.334,484.74a9.351,9.351,0,0,1,7.514.393c2.3,1.331,2.3,3.488,0,4.819a9.224,9.224,0,0,1-8.347,0c-2.11-1.218-2.263-3.124-.508-4.459L851.635,426.975H688.225l-54.189-31.283H608.042L559.9,423.486h24.067l23.333-13.47.153-.087h18.234l40.572,23.423a9.351,9.351,0,0,1,7.489.4c2.3,1.331,2.3,3.488,0,4.818a9.222,9.222,0,0,1-8.346,0c-2.119-1.222-2.265-3.136-.49-4.472l-39.58-22.851H607.807l-23.333,13.47-.152.088H557.61L542.549,433.5l24.491,14.14,36.112,0,44.723,25.82a9.333,9.333,0,0,1,7.618.344c2.3,1.33,2.3,3.487,0,4.818a9.224,9.224,0,0,1-8.346,0c-2.078-1.2-2.264-3.066-.595-4.4L602.8,448.963l-33.47,0,10.522,6.075.991.573-17.892,10.33L611.372,493.9h50.92L716,462.891c-1.669-1.332-1.482-3.2.6-4.4a9.216,9.216,0,0,1,8.346,0c2.305,1.33,2.305,3.487,0,4.818a9.335,9.335,0,0,1-7.619.342l-27.664,15.972,100.442,0L818.98,496.3h57.555a3.4,3.4,0,0,1,1.616-1.748,9.224,9.224,0,0,1,8.346,0c2.3,1.33,2.3,3.488,0,4.818a9.225,9.225,0,0,1-8.346,0,3.4,3.4,0,0,1-1.615-1.748H818.624l-28.88-16.674-102.375,0L662.8,495.135l-.153.088H613.661l20.079,11.594H748.965L778.7,523.985h88.178l42.161,24.341a9.331,9.331,0,0,1,7.617.343c2.305,1.331,2.305,3.488,0,4.818a9.222,9.222,0,0,1-8.346,0c-2.078-1.2-2.264-3.066-.594-4.4l-41.193-23.782H780.991l99.029,57.174,72.7,0,30.608,17.672a9.33,9.33,0,0,1,7.618.343c2.3,1.331,2.3,3.487,0,4.818a9.224,9.224,0,0,1-8.347,0c-2.078-1.2-2.263-3.066-.594-4.4L952.369,583.8l-72.7,0L748.611,508.138H633.386l-71.761-41.431-33.442,19.307,83.484,48.2,89.845,0,101.917,58.843a9.33,9.33,0,0,1,7.62.342c2.3,1.331,2.3,3.487,0,4.818a9.222,9.222,0,0,1-8.346,0c-2.079-1.2-2.264-3.067-.594-4.4l-100.95-58.283-87.2,0L723.89,599.009l.331.19v50.968l164.452,94.946a9.329,9.329,0,0,1,7.619.343c2.305,1.33,2.305,3.487,0,4.818a9.223,9.223,0,0,1-8.346,0c-2.078-1.2-2.264-3.067-.594-4.4L723.232,651.12l-.332-.191V599.962L526.86,486.778l-28.772,16.612,117.5,67.837.33.191,0,102.428,104.627,60.406a9.333,9.333,0,0,1,7.618.343c2.305,1.331,2.305,3.487,0,4.818a9.222,9.222,0,0,1-8.346,0c-2.079-1.2-2.264-3.067-.593-4.4L614.92,674.8l-.33-.191,0-102.426L496.764,504.154,479.011,514.4l87.3,50.406,0,120.05,41.966,24.231v45.156l37.055,21.393a9.328,9.328,0,0,1,7.619.343c2.305,1.33,2.3,3.487,0,4.818a9.222,9.222,0,0,1-8.346,0c-2.079-1.2-2.264-3.066-.595-4.4l-37.056-21.394,0-45.156-41.967-24.23,0-120.048-87.306-50.407L453.734,529l66.8,38.568,0,200.555h-1.322l0-117.481-33.494,19.337v65.863a8.185,8.185,0,0,1,3.512.961c2.3,1.331,2.3,3.487,0,4.818a9.222,9.222,0,0,1-8.346,0c-2.305-1.33-2.3-3.487,0-4.818a8.189,8.189,0,0,1,3.512-.961l0-66.625,34.815-20.1V613.7l-44.067,25.441c1.54,1.324,1.3,3.134-.729,4.3a9.222,9.222,0,0,1-8.346,0c-2.3-1.331-2.3-3.488,0-4.819a9.305,9.305,0,0,1,7.783-.264l45.358-26.188V568.329l-66.8-38.567-21.33,12.315,32.462,18.742,0,27.61-8.2,4.732v14.078l-58.512,33.781V664.87l-47.639,27.505c1.67,1.332,1.484,3.2-.595,4.4a9.222,9.222,0,0,1-8.346,0c-2.305-1.331-2.3-3.488,0-4.818a9.328,9.328,0,0,1,7.619-.343l47.639-27.5V640.258l58.512-33.782V593.924L355.677,650.7c1.539,1.324,1.3,3.133-.729,4.3a9.218,9.218,0,0,1-8.346,0c-2.3-1.33-2.3-3.487,0-4.818a9.3,9.3,0,0,1,7.783-.265L433.229,604.4H393.667L348.3,630.6c1.669,1.332,1.484,3.2-.595,4.4a9.225,9.225,0,0,1-8.346,0c-2.3-1.331-2.3-3.488,0-4.818a9.328,9.328,0,0,1,7.619-.343l46.333-26.751H435.4v.07l26.821-15.487V561.582l-32.463-18.741-6.107,3.526-.33.189-8.364-4.829-136.309,78.7-.153.089H241.315a3.393,3.393,0,0,1-1.616,1.748,9.223,9.223,0,0,1-8.346,0c-2.3-1.33-2.3-3.487,0-4.818a9.222,9.222,0,0,1,8.346,0,3.392,3.392,0,0,1,1.616,1.748h36.823l135.494-78.226L392.91,529,279.64,594.4c1.67,1.331,1.484,3.2-.595,4.4a9.222,9.222,0,0,1-8.346,0c-2.305-1.331-2.305-3.488,0-4.818a9.326,9.326,0,0,1,7.618-.343l113.269-65.4-21.462-12.391-160.061,92.41v77.367l75.492,43.587v-.019h69.48l55.035,31.775a9.332,9.332,0,0,1,7.619.343c2.3,1.331,2.3,3.487,0,4.819a9.23,9.23,0,0,1-8.347,0c-2.078-1.2-2.264-3.067-.594-4.4L354.68,730.51H287.814l91.753,52.975.33.191v68.909a8.155,8.155,0,0,1,3.512.961c2.305,1.33,2.305,3.487,0,4.817a9.219,9.219,0,0,1-8.346,0c-2.3-1.331-2.3-3.487,0-4.817a8.161,8.161,0,0,1,3.512-.961V784.439L226.033,696.368,132.2,750.538v60.921L65.548,849.944c1.67,1.331,1.484,3.2-.594,4.4a9.226,9.226,0,0,1-8.346,0c-2.3-1.332-2.3-3.489,0-4.819a9.328,9.328,0,0,1,7.619-.343L130.882,810.7V749.776L224.71,695.6l-15.639-9.029-.33-.191V625.539l-27.054,15.619v38l-55.031,31.773c1.669,1.332,1.484,3.2-.594,4.4a9.23,9.23,0,0,1-8.347,0c-2.3-1.332-2.3-3.488,0-4.819a9.332,9.332,0,0,1,7.619-.343l55.031-31.771v-38l28.376-16.384v-16.52L368.8,515.081l-23.578-13.613L34.934,680.612l0,64.98L0,765.759Zm423.32-219.2L578.2,455.613,423.324,366.2l-154.88,89.42Z" transform="translate(0 -119.562)" fill="#42e8e0"/>
              </g>
            </g>
          </g>
        </g>
      </g>
    </g>
  </g>
</svg>
