<svg id="Group_23662" data-name="Group 23662" xmlns="http://www.w3.org/2000/svg" xmlns:xlink="http://www.w3.org/1999/xlink" width="54.878" height="54.204" viewBox="0 0 54.878 54.204">
  <defs>
    <linearGradient id="linear-gradient" x1="0.5" x2="0.5" y2="1" gradientUnits="objectBoundingBox">
      <stop offset="0" stop-color="#0033be"/>
      <stop offset="0.36" stop-color="#0050da"/>
      <stop offset="1" stop-color="#0076ff"/>
    </linearGradient>
  </defs>
  <path id="Path_26041" data-name="Path 26041" d="M48.246,43.634v.683c0,1.994.008,3.987,0,5.981a3.736,3.736,0,0,1-3.913,3.9q-8.329.012-16.66,0a3.767,3.767,0,0,1-4-4c-.014-1.954,0-3.909,0-5.865v-.7h-.745q-9.083,0-18.169,0A4.535,4.535,0,0,1,.116,39.965a6.071,6.071,0,0,1-.085-1.213C.022,27.473.058,16.19,0,4.906A4.8,4.8,0,0,1,4.921,0C19.955.052,34.99.023,50.027.025a4.546,4.546,0,0,1,4.762,3.656,5.914,5.914,0,0,1,.089,1.211q0,16.956-.008,33.91a4.538,4.538,0,0,1-4.83,4.832ZM52.6,11.91H2.292V38.657A2.381,2.381,0,0,0,5,41.369H23.67V18.134c0-2.685,1.534-4.232,4.2-4.232q8.1-.006,16.194,0a3.821,3.821,0,0,1,4.182,4.18v23.27c.812,0,1.526.027,2.238-.008a2.163,2.163,0,0,0,1.561-.793,2.653,2.653,0,0,0,.553-1.843q-.006-13.093,0-26.183V11.91ZM2.335,9.55H52.521a.7.7,0,0,0,.06-.18c0-1.644.012-3.29-.008-4.934a2.1,2.1,0,0,0-.853-1.646,2.786,2.786,0,0,0-1.861-.505q-22.4.006-44.8,0a5.344,5.344,0,0,0-.752.035A2.1,2.1,0,0,0,2.356,4.24c-.081,1.751-.023,3.509-.023,5.31ZM25.986,44.422H45.923V23.97H25.986V44.422ZM45.963,21.616c0-1.2,0-2.375,0-3.546,0-1.342-.528-1.867-1.853-1.869h-16.3c-.135,0-.271,0-.406,0a1.416,1.416,0,0,0-1.414,1.288c-.058,1.364-.017,2.731-.017,4.124H45.963ZM26.032,46.783c-.031.062-.06.1-.06.128-.006,1.025-.014,2.052-.014,3.076,0,1.429.528,1.952,1.967,1.952q8.04,0,16.078,0a3.628,3.628,0,0,0,.861-.081A1.231,1.231,0,0,0,45.9,50.743c.06-1.306.019-2.619.019-3.96H26.032Z" transform="translate(0 0)" fill="url(#linear-gradient)"/>
  <path id="Path_26043" data-name="Path 26043" d="M32.714,78.925q-3.019,0-6.037,0A1.67,1.67,0,0,1,24.828,77.1c-.01-1.838,0-3.677,0-5.515,0-1.569.567-2.143,2.122-2.145H37.513c.445,0,.89-.012,1.335,0a1.676,1.676,0,0,1,1.793,1.83q.009,2.9,0,5.807a1.678,1.678,0,0,1-1.832,1.843c-2.031.006-4.064,0-6.095,0Zm5.615-7.167H27.146V76.6H38.328Z" transform="translate(-19.683 -55.062)" fill="url(#linear-gradient)"/>
  <path id="Path_26044" data-name="Path 26044" d="M32.662,154.111c-2.186,0-4.372.006-6.559,0a1.161,1.161,0,0,1-1.259-1.455,1.221,1.221,0,0,1,1.308-.836c2.244,0,4.488,0,6.733,0,2.128,0,4.257-.023,6.383.021a1.589,1.589,0,0,1,1.093.478,1.451,1.451,0,0,1,.13,1.116,1.011,1.011,0,0,1-1.1.679q-2.466,0-4.934,0h-1.8Z" transform="translate(-19.665 -120.382)" fill="url(#linear-gradient)"/>
  <path id="Path_26045" data-name="Path 26045" d="M32.76,175.865c2.2,0,4.41,0,6.617,0a1.152,1.152,0,0,1,1.29,1.282,1.184,1.184,0,0,1-1.337,1.01c-1.607.008-3.211,0-4.818,0-2.766,0-5.532,0-8.3,0-.805,0-1.3-.4-1.346-1.058a1.135,1.135,0,0,1,1.277-1.234c2.2-.006,4.41,0,6.617,0Z" transform="translate(-19.715 -139.454)" fill="url(#linear-gradient)"/>
  <path id="Path_26046" data-name="Path 26046" d="M32.763,130.114c-2.224,0-4.449.006-6.673,0A1.111,1.111,0,0,1,24.869,129a1.131,1.131,0,0,1,1.18-1.161c.174-.01.348,0,.522,0H39.1a4.864,4.864,0,0,1,.522.014,1.121,1.121,0,0,1,1.052,1.166,1.1,1.1,0,0,1-1.124,1.091c-1.1.021-2.2.008-3.306.008H32.765Z" transform="translate(-19.72 -101.366)" fill="url(#linear-gradient)"/>
  <path id="Path_26047" data-name="Path 26047" d="M170.12,25.463h-6.557a3.866,3.866,0,0,1-.694-.041,1.112,1.112,0,0,1-.892-1.128,1.137,1.137,0,0,1,.954-1.083,2.64,2.64,0,0,1,.406-.017c4.5,0,9.012-.008,13.517.014a1.831,1.831,0,0,1,1,.329.961.961,0,0,1,.282,1.159,1.066,1.066,0,0,1-1.058.758c-.948.012-1.894.008-2.843.01h-4.12Z" transform="translate(-128.443 -18.391)" fill="url(#linear-gradient)"/>
  <path id="Path_26048" data-name="Path 26048" d="M68.574,24.036a1.187,1.187,0,1,1-1.186-1.186,1.239,1.239,0,0,1,1.186,1.186Z" transform="translate(-52.494 -18.119)" fill="url(#linear-gradient)"/>
  <path id="Path_26049" data-name="Path 26049" d="M26,25.256A1.2,1.2,0,1,1,27.23,24.13a1.224,1.224,0,0,1-1.236,1.126Z" transform="translate(-19.719 -18.126)" fill="url(#linear-gradient)"/>
  <path id="Path_26050" data-name="Path 26050" d="M46.751,25.257a1.2,1.2,0,1,1,1.161-1.2A1.228,1.228,0,0,1,46.751,25.257Z" transform="translate(-36.118 -18.127)" fill="url(#linear-gradient)"/>
  <path id="Path_26051" data-name="Path 26051" d="M151.112,133.923a7.981,7.981,0,1,1-7.973-7.983A8,8,0,0,1,151.112,133.923Zm-2.3-.008a5.7,5.7,0,1,0-11.391.062,5.7,5.7,0,0,0,11.391-.064Z" transform="translate(-107.169 -99.867)" fill="url(#linear-gradient)"/>
  <path id="Path_26052" data-name="Path 26052" d="M167.2,88.486c-.211,0-.424.014-.636,0A1.12,1.12,0,0,1,165.5,87.4a1.086,1.086,0,0,1,.973-1.166,6.928,6.928,0,0,1,1.327-.019,1.132,1.132,0,0,1,1.106,1.176,1.144,1.144,0,0,1-1.18,1.1c-.174.008-.348,0-.52,0v0Z" transform="translate(-131.233 -68.346)" fill="url(#linear-gradient)"/>
  <path id="Path_26053" data-name="Path 26053" d="M168.939,233.834a1.189,1.189,0,1,1-1.2-1.174A1.244,1.244,0,0,1,168.939,233.834Z" transform="translate(-132.077 -184.492)" fill="url(#linear-gradient)"/>
  <path id="Path_26054" data-name="Path 26054" d="M160.632,155.91c.7-.6,1.366-1.188,2.039-1.762a1.174,1.174,0,0,1,1.745-.014,1.154,1.154,0,0,1-.236,1.729c-.944.828-1.888,1.652-2.845,2.466a1.177,1.177,0,0,1-1.927-.213c-.259-.335-.516-.675-.764-1.021a1.146,1.146,0,1,1,1.787-1.416l.2.234Z" transform="translate(-125.551 -121.922)" fill="url(#linear-gradient)"/>
</svg>
