<svg xmlns="http://www.w3.org/2000/svg" xmlns:xlink="http://www.w3.org/1999/xlink" width="83.484" height="83.494" viewBox="0 0 83.484 83.494">
  <defs>
    <clipPath id="clip-path">
      <rect id="Rectangle_27177" data-name="Rectangle 27177" width="83.484" height="83.494" fill="#fff" opacity="0.45"/>
    </clipPath>
  </defs>
  <g id="Group_38974" data-name="Group 38974" transform="translate(0 -0.001)">
    <g id="Group_38519" data-name="Group 38519" transform="translate(0 0.001)" clip-path="url(#clip-path)">
      <path id="Path_63827" data-name="Path 63827" d="M25.525,0C26.648.326,27.8.579,28.886.99a12.625,12.625,0,0,1,4.973,3.5c1.218,1.364,1.676,1.374,3.08.236A7.256,7.256,0,0,1,44.36,3.454a7.116,7.116,0,0,1,4.594,5.4C39.1,9.108,33.2,14.049,31.231,23.771c-1.012.088-2.131.1-3.215.3A8.981,8.981,0,0,0,23.689,26.3a2.126,2.126,0,0,1-1.279.514c-5.461.034-10.923.027-16.384.02A5.94,5.94,0,0,1,.2,22.493c-.052-.173-.135-.336-.2-.5V19.754c.085-.227.174-.453.255-.681a5.846,5.846,0,0,1,4.922-4.111,25.617,25.617,0,0,1,3.34-.05c1.361-.015,1.861-.546,1.927-1.923A12.785,12.785,0,0,1,16.863,2.03,31.628,31.628,0,0,1,22.172,0Z" transform="translate(0 -0.001)" fill="#fff"/>
      <path id="Path_63828" data-name="Path 63828" d="M54.782,255.518c-.277,1.742.073,3.008,2.069,3.154-.159.3-.246.494-.357.672a1.617,1.617,0,0,0,.276,2.253c1.115,1.079,2.2,2.191,3.3,3.289,1.409,1.411,1.554,1.434,3.405.462.183,1.921,1.429,2.346,3.128,2.054v17.924H65.563c-6.363,0-12.726.015-19.089-.013-1.127-.005-1.953.282-2.23,1.483H38.4c-.287-1.228-1.153-1.49-2.305-1.484-6.332.031-12.664.015-19,.015H16.035c-.021-.306-.05-.544-.05-.783q0-13.6,0-27.195c0-1.315.5-1.829,1.77-1.829q18.111,0,36.223,0h.805m-18.01,13.473H33.934v2.9h2.838Zm3.1,2.87h2.876v-2.893H39.872Zm8.83-2.885H45.843v2.9H48.7Z" transform="translate(-12.998 -207.81)" fill="#fff" opacity="0.45"/>
      <path id="Path_63829" data-name="Path 63829" d="M163.737,86.772c-.093-.328-.163-.59-.241-.851a1.584,1.584,0,0,0-1.64-1.246q-2.794-.008-5.589,0a1.6,1.6,0,0,0-1.683,1.309c-.063.234-.134.466-.224.774-.265-.136-.478-.234-.679-.351a1.6,1.6,0,0,0-2.179.283c-1.126,1.157-2.259,2.309-3.438,3.411a1.947,1.947,0,0,1-1.187.514q-6.613.054-13.227.018a5.957,5.957,0,0,1,.044-11.914c.9-.006,1.8.012,2.7,0a1.6,1.6,0,0,0,1.79-1.779,13.227,13.227,0,0,1,10.593-12.8,12.927,12.927,0,0,1,12.749,4.085c1.364,1.44,1.719,1.5,3.215.255a7.493,7.493,0,0,1,8.769-.515,7.294,7.294,0,0,1,3.126,8.272c-.487,1.6.291,2.588,1.96,2.514a17.386,17.386,0,0,1,4.256.189,5.834,5.834,0,0,1,4.49,6.486,5.95,5.95,0,0,1-5.853,5.215c-3.415.017-6.831.021-10.246-.018a1.97,1.97,0,0,1-1.195-.5c-1.028-.944-1.99-1.961-2.978-2.949-1.342-1.341-1.537-1.369-3.335-.4" transform="translate(-103.898 -51.88)" fill="#fff"/>
      <path id="Path_63830" data-name="Path 63830" d="M251.886,212.624h-3.562c-.555-.891-.189-2.268-1.419-2.769-1.2-.49-1.91.649-2.857.943l-2.528-2.646c.181-.815,1.406-1.533.917-2.754-.5-1.241-1.863-.892-2.765-1.43v-3.575c.523-.137,1.028-.267,1.532-.4a1.516,1.516,0,0,0,1.065-2.407c-.816-1.535-.816-1.535.407-2.758l.2-.2c1.083-1.083,1.083-1.083,2.4-.324q2,1.155,2.606-1.134c.117-.446.246-.889.376-1.356h3.631c.137.522.271,1.052.418,1.579a1.5,1.5,0,0,0,2.356,1.024c1.579-.817,1.579-.817,2.838.434,1.208,1.2,1.208,1.2.4,2.682A1.526,1.526,0,0,0,258.978,200c.478.128.957.251,1.477.387v3.663q-.755.2-1.513.394a1.514,1.514,0,0,0-1.066,2.4c.816,1.537.816,1.537-.405,2.758l-.2.2c-1.071,1.072-1.071,1.072-2.395.316s-2.215-.378-2.612,1.137c-.117.447-.246.891-.38,1.372m4.147-10.432a5.962,5.962,0,1,0-5.99,5.985,6.032,6.032,0,0,0,5.99-5.985" transform="translate(-194.923 -156)" fill="#fff" opacity="0.45"/>
      <path id="Path_63831" data-name="Path 63831" d="M2.944,431.365H24.675c.31,1.348,1.333,1.5,2.55,1.471,2.421-.053,4.843-.015,7.265-.016,1.446,0,1.7-.162,2.267-1.453H58.534a17.931,17.931,0,0,1-.3,1.85,1.383,1.383,0,0,1-1.351,1.082c-.279.016-.559.006-.838.006q-25.1,0-50.2.014c-2.236,0-2.707-.086-2.9-2.953" transform="translate(-2.394 -350.825)" fill="#fff" opacity="0.45"/>
      <path id="Path_63832" data-name="Path 63832" d="M319.556,265.112v-2.975h1.033c3.475,0,6.951.005,10.426,0a4.537,4.537,0,0,0,4.894-4.867q.013-8.194,0-16.387v-1.054h2.975v.872q0,8.426,0,16.853a7.4,7.4,0,0,1-7.52,7.558c-3.906.011-7.812,0-11.808,0" transform="translate(-259.891 -195.049)" fill="#fff" opacity="0.45"/>
      <path id="Path_63833" data-name="Path 63833" d="M282.416,231.569a2.977,2.977,0,1,1-2.988,2.917,2.95,2.95,0,0,1,2.988-2.917" transform="translate(-227.256 -188.333)" fill="#fff" opacity="0.45"/>
    </g>
  </g>
</svg>
