<svg xmlns="http://www.w3.org/2000/svg" xmlns:xlink="http://www.w3.org/1999/xlink" width="88.601" height="88.601" viewBox="0 0 88.601 88.601">
  <defs>
    <clipPath id="clip-path">
      <rect id="Rectangle_27176" data-name="Rectangle 27176" width="88.601" height="88.601" fill="#fff" opacity="0.45"/>
    </clipPath>
  </defs>
  <g id="Group_38975" data-name="Group 38975" transform="translate(-0.001 0)">
    <g id="Group_38518" data-name="Group 38518" transform="translate(0.001 0)" clip-path="url(#clip-path)">
      <path id="Path_63817" data-name="Path 63817" d="M88.631,32.661c-.238.885-.429,1.785-.723,2.651a13.2,13.2,0,0,1-12.466,8.969c-2.454.008-4.909,0-7.419,0v-5.9c1.217,0,2.462,0,3.707,0,1.669,0,2.139-.47,2.141-2.133,0-1.716,0-3.431,0-5.21l1.4-.065v-2.9A29.337,29.337,0,0,0,72.2,28.1a1.45,1.45,0,0,0-1.289,1.641c0,1.568,0,3.137,0,4.705v.939H68.018c-.367-2.435-2.2-3.556-4.264-4.168-2.336-.694-4.776-1.043-7.176-1.509a17.853,17.853,0,0,0-1.9-.164c0-.97.014-1.888,0-2.806a4.476,4.476,0,0,0-4.621-4.59q-3.321-.032-6.643,0a.884.884,0,0,1-1.008-.653,5.817,5.817,0,0,0-6.862-3.6,5.893,5.893,0,0,0,.989,11.606,5.858,5.858,0,0,0,5.831-3.674,1,1,0,0,1,1.134-.75c2.121.04,4.244.013,6.365.017,1.391,0,1.854.476,1.856,1.895,0,.769-.006,1.537-.014,2.306a.489.489,0,0,1-.05.154,57.054,57.054,0,0,0-5.817.841,26.673,26.673,0,0,0-5.229,1.925,3.9,3.9,0,0,0-2.2,3.94c.077,2.668.02,5.339.02,8.077-.359.017-.655.044-.952.044q-12.04,0-24.08,0A13.263,13.263,0,0,1,11.311,17.9a1.272,1.272,0,0,0,1.254-1.13A21.986,21.986,0,0,1,31.281.167,2.916,2.916,0,0,0,31.8,0h4.429a4.066,4.066,0,0,0,.608.177A21.4,21.4,0,0,1,48,5c1.214,1.017,2.261,2.233,3.377,3.351,4.2-2.736,8.59-3.311,13.124-1.3,4.568,2.028,7.076,5.717,7.854,10.664,1.065,0,2.075,0,3.086,0A13.214,13.214,0,0,1,87.884,26.6c.307.893.5,1.825.747,2.739Zm-7.44-4.546H78.34v2.844h2.851Z" transform="translate(-0.029)" fill="#fff" opacity="0.45"/>
      <rect id="Rectangle_27174" data-name="Rectangle 27174" width="2.886" height="2.952" transform="translate(85.716 70.858)" fill="#fff" opacity="0.45"/>
      <path id="Path_63818" data-name="Path 63818" d="M38.366,271.448v2.946H34.7c-1.137,0-2.274-.009-3.411,0A4.48,4.48,0,0,0,26.6,279.1c-.013,6.27,0,12.54-.006,18.809a7.31,7.31,0,0,1-6.259,7.4,20.863,20.863,0,0,1-3.128.078c-1.567.01-3.135.031-4.7-.012a.981.981,0,0,0-1.126.753,5.919,5.919,0,1,1-.059-4.529,1.17,1.17,0,0,0,1.34.861c1.966-.045,3.934-.014,5.9-.016,3.293,0,5.088-1.781,5.089-5.049q0-9.174,0-18.349a7.322,7.322,0,0,1,7.6-7.6c2.335,0,4.669,0,7.11,0" transform="translate(0 -221.253)" fill="#fff" opacity="0.45"/>
      <path id="Path_63819" data-name="Path 63819" d="M294.493,383.724h-10.5c-.953,0-1.906.016-2.858-.006a1.4,1.4,0,0,1-1.521-1.478c-.012-4.825,0-9.649.006-14.474a.931.931,0,0,1,.074-.22H282.5v13.171c.358.024.622.058.886.058,3.442,0,6.884-.008,10.326.012a.932.932,0,0,0,1.077-.683,5.9,5.9,0,1,1,6.461,7.989,5.926,5.926,0,0,1-6.347-3.395c-.139-.306-.262-.619-.413-.976" transform="translate(-227.904 -299.583)" fill="#fff" opacity="0.45"/>
      <g id="Group_38520" data-name="Group 38520" transform="translate(41.328 32.429)">
        <path id="Path_63820" data-name="Path 63820" d="M247.318,212.016c0,1.571-.051,2.986.02,4.4a1.412,1.412,0,0,1-.971,1.578,32.767,32.767,0,0,1-4.973,1.559,31.928,31.928,0,0,1-14.409-.6c-.089-.025-.18-.04-.268-.068-2.9-.937-3.012-1.094-3.012-4.09v-2.777a32.923,32.923,0,0,0,23.613,0" transform="translate(-223.667 -205.241)" fill="#fff"/>
        <path id="Path_63821" data-name="Path 63821" d="M223.7,259.892a32.908,32.908,0,0,0,23.608.006c0,1.695.056,3.343-.044,4.982-.022.358-.546.846-.942.991a29.68,29.68,0,0,1-4.881,1.545,31.9,31.9,0,0,1-14.5-.595c-.147-.042-.291-.094-.436-.143-2.755-.942-2.806-1.013-2.806-3.859v-2.927" transform="translate(-223.666 -244.264)" fill="#fff"/>
        <path id="Path_63822" data-name="Path 63822" d="M223.7,307.8a32.942,32.942,0,0,0,23.611.007c0,1.672.055,3.294-.041,4.907a1.53,1.53,0,0,1-.881,1.031,29.621,29.621,0,0,1-4.965,1.582,31.922,31.922,0,0,1-14.5-.6c-.059-.017-.12-.025-.179-.043-2.924-.934-3.045-1.1-3.045-4.159V307.8" transform="translate(-223.666 -283.31)" fill="#fff"/>
        <path id="Path_63823" data-name="Path 63823" d="M235.37,181.44a35.484,35.484,0,0,1-9.289-1.24,7.485,7.485,0,0,1-1.9-.888c-.891-.587-.925-1.388.015-1.871a13.7,13.7,0,0,1,3.592-1.316,38.182,38.182,0,0,1,16.25.253,8.768,8.768,0,0,1,2.364.975c1.036.608,1.075,1.562-.019,2.025a23.19,23.19,0,0,1-4.97,1.511c-1.984.35-4.024.381-6.04.551" transform="translate(-223.5 -175.374)" fill="#fff"/>
      </g>
      <path id="Path_63824" data-name="Path 63824" d="M376.572,318.1h5.844v2.944c-2.533,0-5.045.031-7.555-.018-.794-.016-1.23-.69-1.232-1.656q-.009-5.441,0-10.881c0-1.737-.451-2.191-2.17-2.193-1.2,0-2.394,0-3.663,0V303.4a44.185,44.185,0,0,1,5.2.042,4.228,4.228,0,0,1,3.571,4.291c.013,3.41,0,6.821,0,10.366" transform="translate(-299.784 -247.246)" fill="#fff" opacity="0.45"/>
      <path id="Path_63825" data-name="Path 63825" d="M207.937,381.74v-2.946h4.36V359.679h2.937c.013.27.039.565.039.86q0,9.629,0,19.257c0,1.477-.454,1.941-1.9,1.943-1.779,0-3.558,0-5.44,0" transform="translate(-169.487 -293.171)" fill="#fff" opacity="0.45"/>
      <path id="Path_63826" data-name="Path 63826" d="M189.689,114.728a2.948,2.948,0,1,1-2.913-2.939,2.917,2.917,0,0,1,2.913,2.939" transform="translate(-149.807 -91.118)" fill="#fff" opacity="0.45"/>
      <rect id="Rectangle_27175" data-name="Rectangle 27175" width="2.853" height="2.837" transform="translate(32.563 85.67)" fill="#fff" opacity="0.45"/>
    </g>
  </g>
</svg>
