<svg xmlns="http://www.w3.org/2000/svg" xmlns:xlink="http://www.w3.org/1999/xlink" width="56.967" height="14.789" viewBox="0 0 56.967 14.789">
  <defs>
    <clipPath id="clip-path">
      <rect id="Rectangle_22441" data-name="Rectangle 22441" width="56.967" height="14.789" transform="translate(0 0)" fill="none"/>
    </clipPath>
  </defs>
  <g id="Group_25144" data-name="Group 25144" transform="translate(-1212.516 -503)">
    <g id="Group_25146" data-name="Group 25146" transform="translate(1212.516 503)">
      <g id="Group_25145" data-name="Group 25145" clip-path="url(#clip-path)">
        <path id="Path_30369" data-name="Path 30369" d="M0,7.374a7.4,7.4,0,1,1,7.227,7.413A7.361,7.361,0,0,1,0,7.374m7.655,4.7a.5.5,0,0,0-.016.113c.041.3.1.6.122.907.017.235.128.271.33.249a3.538,3.538,0,0,0,3.235-2.6q.832-2.566,1.654-5.136c.153-.476.305-.952.473-1.478-.562,0-1.066.013-1.569-.006-.226-.008-.311.075-.362.284-.232.95-.478,1.9-.72,2.845q-.258,1.009-.52,2.017a.246.246,0,0,1-.095-.151q-.53-2.178-1.059-4.355c-.155-.634-.157-.634-.8-.634H7.085c.046.164.071.265.1.364q.993,3.195,1.988,6.389c.145.468.106.591-.329.824a3.417,3.417,0,0,1-.617.232c-.189.058-.385.091-.574.134M7.013,4.764a.574.574,0,0,0-.064-.1,3.231,3.231,0,0,0-4.524.407A4.349,4.349,0,0,0,2.23,9.486a3.079,3.079,0,0,0,3.369,1.3,2.976,2.976,0,0,0,1.426-.717l-.766-1.1c-.245.12-.455.243-.679.329a1.3,1.3,0,0,1-1.886-.97,4.164,4.164,0,0,1,.028-1.913,1.284,1.284,0,0,1,1.829-.989,6.576,6.576,0,0,1,.716.346l.746-1.009" fill="#f1f2f2"/>
        <path id="Path_30370" data-name="Path 30370" d="M17.582,10.25v2.874l-1.707.2V4.191h1.481c.035.217.068.43.111.7a2.424,2.424,0,0,1,1.408-.876A2.049,2.049,0,0,1,21.336,5.2a5.1,5.1,0,0,1-.072,4.319,2.228,2.228,0,0,1-2.731,1.209,6.021,6.021,0,0,1-.951-.48m-.007-2.771c0,.411-.01.822.006,1.233a.671.671,0,0,0,.136.367,1.168,1.168,0,0,0,1.144.457,1.11,1.11,0,0,0,.926-.885,4.89,4.89,0,0,0,0-2.621,1.006,1.006,0,0,0-1.163-.789A1.3,1.3,0,0,0,17.575,6.4V7.479" fill="#f1f2f2"/>
        <path id="Path_30371" data-name="Path 30371" d="M53.824,10.815a2.9,2.9,0,0,1-3.046-2.948,4.444,4.444,0,0,1,.344-2.254A2.765,2.765,0,0,1,53.63,3.979a2.987,2.987,0,0,1,2.435.813,2.914,2.914,0,0,1,.75,1.368,4.907,4.907,0,0,1,.005,2.408,2.861,2.861,0,0,1-3,2.247m1.384-3.421A11.892,11.892,0,0,0,54.99,6.1a1.091,1.091,0,0,0-1.111-.859,1.124,1.124,0,0,0-1.149.86,4.389,4.389,0,0,0-.009,2.553,1.173,1.173,0,0,0,2.278,0,11.816,11.816,0,0,0,.209-1.264" fill="#f1f2f2"/>
        <path id="Path_30372" data-name="Path 30372" d="M32.559,7.914H28.5a1.466,1.466,0,0,0,1.839,1.6,9.79,9.79,0,0,0,1.294-.466l.661.893a3.461,3.461,0,0,1-1.942.845,4.474,4.474,0,0,1-1.2-.022,2.822,2.822,0,0,1-2.428-2.682A4.568,4.568,0,0,1,27.107,5.5a2.787,2.787,0,0,1,3.036-1.5,2.618,2.618,0,0,1,2.3,2.267c.086.523.077,1.062.115,1.654M30.8,6.815A1.56,1.56,0,0,0,30.282,5.3a1.186,1.186,0,0,0-1.229.019,1.879,1.879,0,0,0-.582,1.5Z" fill="#f1f2f2"/>
        <path id="Path_30373" data-name="Path 30373" d="M32.822,9.928l.875-.972a2.8,2.8,0,0,0,1.838.615c.063,0,.126-.005.189-.012a.8.8,0,0,0,.792-.643c.041-.338-.14-.6-.585-.76-.4-.15-.823-.255-1.23-.4a2.118,2.118,0,0,1-1.437-1.23,1.762,1.762,0,0,1,.85-2.185,3.745,3.745,0,0,1,3.938.413l-.634.954c-.151-.077-.287-.15-.427-.215a2.618,2.618,0,0,0-1.44-.267.66.66,0,0,0-.649.5c-.047.286.1.51.472.656s.739.243,1.1.378a8.983,8.983,0,0,1,.87.366,1.836,1.836,0,0,1,.135,3.129,3.858,3.858,0,0,1-3.662.236,7.635,7.635,0,0,1-1-.567" fill="#f1f2f2"/>
        <path id="Path_30374" data-name="Path 30374" d="M38.716,9.894l.836-.931c.184.11.351.217.524.312a2.49,2.49,0,0,0,1.56.276.758.758,0,0,0,.714-.532.586.586,0,0,0-.324-.743c-.342-.157-.711-.256-1.062-.393a6.335,6.335,0,0,1-1.1-.47,1.748,1.748,0,0,1,.045-3.034,3.714,3.714,0,0,1,4,.383c-.2.306-.412.618-.579.868-.554-.147-1.061-.3-1.579-.406a.974.974,0,0,0-.611.086.844.844,0,0,0-.371.457.446.446,0,0,0,.3.532c.348.149.708.266,1.062.4.334.126.676.237,1,.387a1.838,1.838,0,0,1,.129,3.226,3.452,3.452,0,0,1-1.2.446,3.945,3.945,0,0,1-3.344-.863" fill="#f1f2f2"/>
        <path id="Path_30375" data-name="Path 30375" d="M26.3,5.721c-1.2-.215-1.947.442-1.965,1.71-.014.938,0,1.877,0,2.815v.36H22.62V4.19h1.471c.052.359.1.717.17,1.17.485-1.039,1.153-1.612,2.328-1.279-.1.552-.19,1.087-.286,1.64" fill="#f1f2f2"/>
        <rect id="Rectangle_22440" data-name="Rectangle 22440" width="1.659" height="6.416" transform="translate(48.002 4.183)" fill="#f1f2f2"/>
        <path id="Path_30376" data-name="Path 30376" d="M45.878,10.815a1,1,0,0,1-1.007-1.057A1.016,1.016,0,0,1,45.9,8.749,1.04,1.04,0,0,1,46.937,9.8a1.018,1.018,0,0,1-1.059,1.015" fill="#f1f2f2"/>
        <path id="Path_30377" data-name="Path 30377" d="M48.805,2.824a.95.95,0,0,1-1.022-.993A.967.967,0,0,1,48.823.818.991.991,0,0,1,49.87,1.835a.974.974,0,0,1-1.065.989" fill="#f1f2f2"/>
      </g>
    </g>
  </g>
</svg>
