<svg id="Group_38976" data-name="Group 38976" xmlns="http://www.w3.org/2000/svg" xmlns:xlink="http://www.w3.org/1999/xlink" width="91.732" height="91.913" viewBox="0 0 91.732 91.913">
  <defs>
    <clipPath id="clip-path">
      <rect id="Rectangle_27179" data-name="Rectangle 27179" width="91.732" height="91.913" fill="#fff"/>
    </clipPath>
  </defs>
  <g id="Group_38521" data-name="Group 38521" transform="translate(0 0)" clip-path="url(#clip-path)">
    <path id="Path_63834" data-name="Path 63834" d="M183.772,0c.443.112.885.229,1.33.335a14.26,14.26,0,0,1,8.592,22.1,3.29,3.29,0,0,0-.585,1.226,1.554,1.554,0,0,0,1.648,1.689c1.121.039,2.245-.005,3.367.017a6.332,6.332,0,0,1,0,12.652q-26.794.035-53.588.011c-.159,0-.318-.02-.531-.034V25.36c.425,0,.87.017,1.313,0A1.605,1.605,0,0,0,146.9,23a5,5,0,0,0-.515-1.065,5.153,5.153,0,0,1-.557-4.64c1.264-4.351,4.14-7.051,8.615-7.676a9.907,9.907,0,0,1,10.04,4.6c.168.244.271.624.5.72a3.363,3.363,0,0,0,1.7.429c.742-.131,1.031-.827,1.055-1.6a13.75,13.75,0,0,1,2.672-7.83A13.976,13.976,0,0,1,179.651.191a3.575,3.575,0,0,0,.554-.19h3.566m-1.735,3.257V6.306a8.048,8.048,0,0,1,7.916,7.9h3.084c.064-5.968-5.351-11.35-11-10.946M151.824,19.3a4.207,4.207,0,0,1,3.964-3.509V12.742c-3.557-.092-7.234,3.286-6.81,6.245l2.846.317" transform="translate(-115.419 -0.001)" fill="#fff" opacity="0.45"/>
    <path id="Path_63835" data-name="Path 63835" d="M207.9,431.869c-.2.919-.437,1.832-.6,2.757a3.132,3.132,0,0,1-3.2,2.781q-27.686.011-55.372,0a3.131,3.131,0,0,1-3.219-2.756q-.284-1.7-.564-3.406c0-.024.023-.054.055-.123h26.59l.091,1.484h9.451v-1.53H207.9Z" transform="translate(-116.166 -345.5)" fill="#fff"/>
    <path id="Path_63836" data-name="Path 63836" d="M221.518,274.362h-9.406c-4.027,0-8.054.018-12.08-.012-1.16-.009-2.024.293-2.278,1.563h-6.233c-.309-1.327-1.277-1.575-2.528-1.569-6.7.035-13.4.017-20.1.017H167.72c-.017-.363-.046-.679-.046-.995q0-15.89,0-31.779c0-1.59.481-2.083,2.041-2.083q24.9,0,49.807,0c1.447,0,2.032.5,2.033,1.792q.009,16.236,0,32.473c0,.159-.02.319-.038.592m-21.876-29.5a2.92,2.92,0,0,1-.2-.4c-.474-1.579-.755-1.8-2.348-1.8q-2.228,0-4.456,0c-2.2,0-2.2,0-2.976,2.055-.017.045-.1.065-.182.116-.911-.568-1.841-1.089-2.829-.088-1.414,1.432-2.847,2.847-4.269,4.272a1.618,1.618,0,0,0-.265,2.079c.136.257.277.512.43.8a2.329,2.329,0,0,1-.374.2c-1.642.5-1.829.748-1.83,2.42,0,1.716-.007,3.432,0,5.148a1.74,1.74,0,0,0,1.561,2.041,6.318,6.318,0,0,1,.625.239c-1,2.047-1,2.047.637,3.685,1.12,1.12,2.259,2.223,3.356,3.365a1.75,1.75,0,0,0,2.394.357c.212-.125.439-.223.663-.336.879,2.183.879,2.183,3.28,2.183,1.518,0,3.037.009,4.555,0a1.722,1.722,0,0,0,1.968-1.533c.062-.215.152-.422.245-.678.306.166.56.307.818.442a1.626,1.626,0,0,0,2.081-.269q2.176-2.165,4.338-4.343a1.6,1.6,0,0,0,.266-2c-.14-.282-.291-.558-.466-.893.324-.1.571-.177.821-.245a1.7,1.7,0,0,0,1.39-1.791q.006-2.97,0-5.94a1.686,1.686,0,0,0-1.321-1.745c-.278-.084-.558-.161-.845-.244.92-2.152.92-2.153-.77-3.842q-1.365-1.365-2.731-2.73c-1.5-1.5-1.671-1.527-3.572-.521M170.91,258.474h6.215v-3.089H170.91Zm41.221-.019h6.187v-3.089h-6.187Z" transform="translate(-134.386 -191.958)" fill="#fff"/>
    <path id="Path_63837" data-name="Path 63837" d="M25.353,147.83c0,1.841.065,3.557-.046,5.261a1.731,1.731,0,0,1-.973,1.187,30.718,30.718,0,0,1-5.331,1.7,34.245,34.245,0,0,1-15.473-.636c-.126-.036-.255-.065-.38-.106C.091,154.217,0,154.09,0,150.882v-3.049A33.282,33.282,0,0,0,12.644,150.2a33.119,33.119,0,0,0,12.709-2.375" transform="translate(0 -118.483)" fill="#fff"/>
    <path id="Path_63838" data-name="Path 63838" d="M0,196a35.4,35.4,0,0,0,25.35.011c0,1.807.06,3.571-.047,5.326a1.669,1.669,0,0,1-.994,1.075,31.886,31.886,0,0,1-5.239,1.663A34.209,34.209,0,0,1,3.5,203.445c-.126-.036-.254-.069-.378-.111C.068,202.312,0,202.218,0,199.066V196" transform="translate(0 -157.088)" fill="#fff"/>
    <path id="Path_63839" data-name="Path 63839" d="M25.354,243.935c0,1.687-.055,3.206.021,4.718a1.515,1.515,0,0,1-1.043,1.694,35.21,35.21,0,0,1-5.34,1.673,34.285,34.285,0,0,1-15.472-.641c-.1-.027-.194-.043-.287-.073C.124,250.3,0,250.132,0,246.916v-2.981a35.356,35.356,0,0,0,25.354,0" transform="translate(0 -195.509)" fill="#fff"/>
    <path id="Path_63840" data-name="Path 63840" d="M12.94,111.146a38.893,38.893,0,0,1,9.784,1.288,3.7,3.7,0,0,1,1.193.447c.6.453,1.439.942,1.574,1.55.194.88-.806,1.266-1.525,1.545a16.712,16.712,0,0,1-3.014.906,42.137,42.137,0,0,1-17.261-.267,7.387,7.387,0,0,1-1.41-.44c-.845-.389-2.029-.619-2-1.765.027-1.123,1.175-1.434,2.056-1.715a23.166,23.166,0,0,1,4.017-.975c2.184-.285,4.391-.392,6.589-.574" transform="translate(-0.222 -89.081)" fill="#fff"/>
    <path id="Path_63841" data-name="Path 63841" d="M59.013,367.326h9.493v3.153h-.918q-4.848,0-9.7,0c-1.5,0-2-.508-2-2.021q0-8.012,0-16.024v-.914h3.124Z" transform="translate(-44.794 -281.735)" fill="#fff" opacity="0.25"/>
    <rect id="Rectangle_27178" data-name="Rectangle 27178" width="3.034" height="3.051" transform="translate(11.151 63.441)" fill="#fff" opacity="0.25"/>
    <path id="Path_63842" data-name="Path 63842" d="M256.855,271.61h3.831c.15.581.287,1.151.446,1.714a1.585,1.585,0,0,0,2.515,1.054c1.649-.87,1.649-.87,3.007.482l.07.07c1.225,1.22,1.225,1.22.391,2.7-.753,1.331-.355,2.3,1.108,2.685.508.135,1.017.268,1.571.414v3.9l-1.605.41a1.592,1.592,0,0,0-1.15,2.535c.878,1.655.878,1.655-.478,3l-.07.07c-1.216,1.211-1.216,1.211-2.7.391-1.38-.765-2.293-.356-2.707,1.207-.126.477-.26.951-.4,1.467h-3.867c-.137-.514-.283-1.071-.435-1.626a1.6,1.6,0,0,0-2.562-1.113c-1.606.864-1.606.864-2.927-.463l-.279-.28c-1.077-1.078-1.077-1.078-.306-2.393.878-1.5.506-2.4-1.169-2.85-.473-.127-.945-.256-1.442-.391V280.8c.944-.586,2.407-.19,2.94-1.5.521-1.282-.711-2.022-1.073-3.265.749-.712,1.561-1.526,2.431-2.272a.957.957,0,0,1,.84.026c2.689,1.436,3,1.312,3.813-1.623.051-.184.131-.361.2-.556m8.24,11.068a6.339,6.339,0,1,0-6.3,6.326,6.412,6.412,0,0,0,6.3-6.326" transform="translate(-198.526 -217.69)" fill="#fff"/>
    <path id="Path_63843" data-name="Path 63843" d="M293.774,314.528a3.166,3.166,0,1,1-3.108-3.174,3.135,3.135,0,0,1,3.108,3.174" transform="translate(-230.38 -249.544)" fill="#fff"/>
  </g>
</svg>
