<svg xmlns="http://www.w3.org/2000/svg" width="28.201" height="28.21" viewBox="0 0 28.201 28.21">
  <g id="Group_21876" data-name="Group 21876" transform="translate(0 0)">
    <path id="Path_23693" data-name="Path 23693" d="M16.224,120.312h1.763c.181.022.361.047.542.067a13.641,13.641,0,0,1,7.84,3.419,13.712,13.712,0,0,1,4.7,12.5,13.508,13.508,0,0,1-5.385,9.3,13.725,13.725,0,0,1-10.458,2.8A13.531,13.531,0,0,1,8.2,145.349a13.9,13.9,0,0,1-4.984-8.473c-.095-.522-.147-1.051-.219-1.577v-1.763c.023-.181.047-.361.067-.542A14.135,14.135,0,0,1,14.7,120.524c.5-.088,1.014-.142,1.521-.212M8.963,134.425c.051,1.34.053,2.692.165,4.035a4.157,4.157,0,0,0,3.634,3.88,22.131,22.131,0,0,0,3.1.164c1.752,0,3.509.008,5.256-.116a4.07,4.07,0,0,0,3.565-2.447,5,5,0,0,0,.461-2.082q.043-2.85.046-5.7a17.592,17.592,0,0,0-.1-1.786,4.191,4.191,0,0,0-3.643-3.878,21.4,21.4,0,0,0-3.074-.163c-1.762,0-3.528-.008-5.284.112A4.191,4.191,0,0,0,9.125,130.4c-.111,1.334-.112,2.677-.162,4.027" transform="translate(-3 -120.312)" fill="#4e4c4c"/>
    <path id="Path_23694" data-name="Path 23694" d="M22.85,133.448c1.229.035,2.46.04,3.688.113a2.813,2.813,0,0,1,2.865,2.863q.1,3.673,0,7.35a2.784,2.784,0,0,1-2.891,2.888q-3.658.1-7.321,0a2.777,2.777,0,0,1-2.879-2.869q-.1-3.673,0-7.35a2.835,2.835,0,0,1,2.876-2.886c.613-.044,1.228-.058,1.843-.07s1.212,0,1.818,0c0-.012,0-.023,0-.035m4.165,6.665a4.157,4.157,0,1,0-4.169,4.159,4.15,4.15,0,0,0,4.169-4.159m1.136-4.3a.968.968,0,1,0-1.008.941.965.965,0,0,0,1.008-.941" transform="translate(-8.655 -126.104)" fill="#4e4c4c"/>
    <path id="Path_23695" data-name="Path 23695" d="M26.2,146.563a3.057,3.057,0,1,1,3.049-3.056,3.064,3.064,0,0,1-3.049,3.056" transform="translate(-12.089 -129.401)" fill="#4e4c4c"/>
  </g>
</svg>
