<svg id="Layer_2" data-name="Layer 2" xmlns="http://www.w3.org/2000/svg" width="444.098" height="192.64" viewBox="0 0 444.098 192.64">
  <g id="Layer_1" data-name="Layer 1" transform="translate(0 0)">
    <path id="Path_24979" data-name="Path 24979" d="M106.734,67.74V48.091L88.19,19.6H100L111.99,38.954,123.828,19.6H135.52L117,48.042V67.691Z" transform="translate(128.422 28.546)" fill="#fff"/>
    <path id="Path_24980" data-name="Path 24980" d="M106,40.286a5.846,5.846,0,1,1,5.846,5.846A5.919,5.919,0,0,1,106,40.286Z" transform="translate(154.355 50.155)" fill="#fff"/>
    <path id="Path_24981" data-name="Path 24981" d="M114.11,67.74V19.6h10.242V67.74Z" transform="translate(166.164 28.546)" fill="#fff"/>
    <path id="Path_24982" data-name="Path 24982" d="M121.61,40.286a5.846,5.846,0,1,1,5.87,5.846A5.919,5.919,0,0,1,121.61,40.286Z" transform="translate(177.085 50.155)" fill="#fff"/>
    <path id="Path_24983" data-name="Path 24983" d="M171.542,67.74v-33.7l-13.558,33.7h-4.47l-13.582-33.7v33.7H129.69V19.6h14.368l11.691,29.105L167.441,19.6h14.442V67.74Z" transform="translate(188.851 28.546)" fill="#fff"/>
    <path id="Path_24984" data-name="Path 24984" d="M154.26,40.286a5.846,5.846,0,1,1,5.846,5.846A5.919,5.919,0,0,1,154.26,40.286Z" transform="translate(224.628 50.155)" fill="#fff"/>
    <path id="Path_24985" data-name="Path 24985" d="M88.2,60.522A11.249,11.249,0,0,1,99.764,49a10.1,10.1,0,0,1,8.523,4.446l-2.456,1.326a7.565,7.565,0,0,0-6.067-3.316,9.161,9.161,0,0,0,0,18.274,7.516,7.516,0,0,0,6.165-3.267l2.456,1.3a10.168,10.168,0,0,1-8.547,4.446A11.249,11.249,0,0,1,88.2,60.522Z" transform="translate(128.416 71.353)" fill="#fff"/>
    <path id="Path_24986" data-name="Path 24986" d="M97.472,60.053a11.175,11.175,0,1,1,11.151,11.617A10.954,10.954,0,0,1,97.472,60.053Zm19.428,0c0-5.256-3.242-9.137-8.277-9.137s-8.253,3.881-8.253,9.137,3.34,9.137,8.253,9.137a8.351,8.351,0,0,0,8.277-9.137Z" transform="translate(141.908 71.822)" fill="#fff"/>
    <path id="Path_24987" data-name="Path 24987" d="M121.337,71.61l-5.723-8.94H111.12v8.94h-2.8v-22.5h9.039a6.533,6.533,0,0,1,7.049,6.779,6.189,6.189,0,0,1-5.821,6.533l6.14,9.186Zm.172-15.719a4.175,4.175,0,0,0-4.47-4.274H111.12v8.6h5.919a4.2,4.2,0,0,0,4.47-4.323Z" transform="translate(157.733 71.489)" fill="#fff"/>
    <path id="Path_24988" data-name="Path 24988" d="M116.66,71.6V49.1H125.7a6.779,6.779,0,1,1,0,13.558H119.46V71.6Zm13.189-15.719a4.176,4.176,0,0,0-4.495-4.274H119.46v8.572h5.895a4.2,4.2,0,0,0,4.421-4.3Z" transform="translate(169.877 71.502)" fill="#fff"/>
    <path id="Path_24989" data-name="Path 24989" d="M124.351,60.053a11.175,11.175,0,1,1,11.175,11.617,10.979,10.979,0,0,1-11.175-11.617Zm19.428,0c0-5.256-3.242-9.137-8.253-9.137s-8.277,3.881-8.277,9.137,3.218,9.137,8.277,9.137S143.779,65.26,143.779,60.053Z" transform="translate(181.049 71.822)" fill="#fff"/>
    <path id="Path_24990" data-name="Path 24990" d="M148.2,71.61l-5.723-8.94h-4.47v8.94h-2.8v-22.5h9.014a6.533,6.533,0,0,1,7.049,6.779,6.165,6.165,0,0,1-5.821,6.533l6.067,9.186Zm.172-15.719a4.176,4.176,0,0,0-4.47-4.274H138.01v8.6H143.9a4.2,4.2,0,0,0,4.47-4.323Z" transform="translate(196.888 71.489)" fill="#fff"/>
    <path id="Path_24991" data-name="Path 24991" d="M160.972,71.6l-1.99-4.912h-11.2L145.793,71.6H142.6l9.038-22.5H155.1l9.063,22.5Zm-7.589-19.649L148.47,64.058H158Z" transform="translate(207.649 71.502)" fill="#fff"/>
    <path id="Path_24992" data-name="Path 24992" d="M158.147,71.569V51.576H151V49.12h17.193v2.456h-7.147V71.569Z" transform="translate(219.881 71.531)" fill="#fff"/>
    <path id="Path_24993" data-name="Path 24993" d="M159.47,71.6V49.1h2.8V71.6Z" transform="translate(232.214 71.502)" fill="#fff"/>
    <path id="Path_24994" data-name="Path 24994" d="M162.38,60.3a11.151,11.151,0,1,1,11.151,11.151A11.151,11.151,0,0,1,162.38,60.3Zm19.4,0c0-5.256-3.242-9.137-8.253-9.137s-8.253,3.881-8.253,9.137,3.193,9.137,8.253,9.137S181.783,65.508,181.783,60.3Z" transform="translate(236.451 71.575)" fill="#fff"/>
    <path id="Path_24995" data-name="Path 24995" d="M189.156,71.6,176.04,53.767V71.7h-2.8V49.1h2.849l12.944,17.561V49.1h2.8V71.6Z" transform="translate(252.265 71.502)" fill="#fff"/>
    <path id="Path_24996" data-name="Path 24996" d="M190.623,76.831A94.066,94.066,0,0,0,185,58.754,95.789,95.789,0,0,0,150.073,16.41,98.687,98.687,0,0,0,115.564,1.968a96.133,96.133,0,0,0-38.733,0,94,94,0,0,0-18.077,5.6A96.083,96.083,0,0,0,16.411,42.494,98.613,98.613,0,0,0,1.968,77.028a96.132,96.132,0,0,0,0,38.733,94.315,94.315,0,0,0,5.6,18.053A95.789,95.789,0,0,0,42.3,176.181a98.613,98.613,0,0,0,34.533,14.442,96.29,96.29,0,0,0,99.35-40.551,98.686,98.686,0,0,0,14.442-34.509A97.02,97.02,0,0,0,190.623,76.831ZM173.43,112.15a75.549,75.549,0,0,1-4.617,14.86,79.5,79.5,0,0,1-28.565,34.509,75.845,75.845,0,0,1-28.1,11.839,76.789,76.789,0,0,1-8.842,1.326v-17c1.916-.246,3.832-.54,5.723-.958a61.648,61.648,0,0,0,11.839-3.832,69.585,69.585,0,0,0,10.856-6.018,70.961,70.961,0,0,0,9.431-8.032,61.406,61.406,0,0,0,7.614-9.824,72.677,72.677,0,0,0,5.821-11.126,65.332,65.332,0,0,0,3.61-12.428,73.957,73.957,0,0,0,1.2-13.46H144.153a54.033,54.033,0,0,1-1.007,10.046,50.174,50.174,0,0,1-2.8,9.432,49.317,49.317,0,0,1-4.421,8.621,52.218,52.218,0,0,1-5.821,7.368,72.261,72.261,0,0,1-7.025,6.214,41.434,41.434,0,0,1-8.228,4.617,46.666,46.666,0,0,1-37.333,0,48.73,48.73,0,0,1-8.228-4.617,35.392,35.392,0,0,1-7.025-6.214,42.245,42.245,0,0,1-5.821-7.368,46,46,0,0,1-4.421-8.621,52.07,52.07,0,0,1-2.9-9.554,60,60,0,0,1-1.007-10.046H33.161a77.908,77.908,0,0,0,1.228,13.46A69.114,69.114,0,0,0,37.975,117.9,77.22,77.22,0,0,0,43.8,129.147a71.67,71.67,0,0,0,7.639,9.825A59.267,59.267,0,0,0,60.866,147,57.079,57.079,0,0,0,71.7,153.02a60.248,60.248,0,0,0,17.561,4.912v17a77.17,77.17,0,0,1-8.817-1.326,74.541,74.541,0,0,1-14.86-4.863A79.5,79.5,0,0,1,31.2,140.248a75.894,75.894,0,0,1-11.986-28.1,77.491,77.491,0,0,1,0-31.709,76.14,76.14,0,0,1,4.618-14.86A78.6,78.6,0,0,1,52.344,31.2a75.722,75.722,0,0,1,28.1-11.986,84.934,84.934,0,0,1,15.842-1.6,85.179,85.179,0,0,1,15.867,1.6,77.245,77.245,0,0,1,14.86,4.617,79.726,79.726,0,0,1,34.509,28.516,75.673,75.673,0,0,1,11.839,28.1,76.631,76.631,0,0,1,0,31.709Z" transform="translate(0.002 0.002)" fill="#fff"/>
  </g>
</svg>
