<svg xmlns="http://www.w3.org/2000/svg" xmlns:xlink="http://www.w3.org/1999/xlink" width="53.678" height="53.675" viewBox="0 0 53.678 53.675">
  <defs>
    <linearGradient id="linear-gradient" x1="0.5" x2="0.5" y2="1" gradientUnits="objectBoundingBox">
      <stop offset="0" stop-color="#0033be"/>
      <stop offset="0.443" stop-color="#0061ea"/>
      <stop offset="1" stop-color="#0076ff"/>
    </linearGradient>
  </defs>
  <g id="Layer_1" data-name="Layer 1" transform="translate(0.01 0.015)">
    <g id="Group_23665" data-name="Group 23665" transform="translate(-0.01 -0.015)">
      <path id="Path_26075" data-name="Path 26075" d="M14.448,50.3V44.995a5.4,5.4,0,0,1-4.22-1.534,5.346,5.346,0,0,1-1.552-4.232H3.361c0,1.258-.012,2.5.017,3.748,0,.124.237.272.392.359A2.577,2.577,0,0,1,5.2,45.83,2.6,2.6,0,0,1,.209,46.7,2.553,2.553,0,0,1,1.4,43.371a.678.678,0,0,0,.441-.738c-.016-1.322-.008-2.645-.006-3.965,0-.757.243-1,1.012-1,1.721-.006,3.441,0,5.162,0h.625V27.6c-1.109,0-2.208-.016-3.305.017-.142,0-.317.237-.41.4A2.641,2.641,0,0,1,2.314,29.43,2.628,2.628,0,0,1,.093,27.539a2.593,2.593,0,0,1,1.526-3.113A2.534,2.534,0,0,1,4.868,25.6a.763.763,0,0,0,.827.482c.94-.031,1.882-.016,2.824-.021.033,0,.064-.025.126-.05v-9.98c-.184-.01-.373-.029-.563-.029-1.738,0-3.476,0-5.216,0-.8,0-1.027-.239-1.029-1.039,0-1.34-.01-2.68.006-4.02a.576.576,0,0,0-.379-.614A2.593,2.593,0,0,1,2.6,5.4,2.561,2.561,0,0,1,5.126,7.389a2.535,2.535,0,0,1-1.4,2.936.575.575,0,0,0-.375.616c.016,1.155.006,2.311.006,3.5h5.3A5.345,5.345,0,0,1,14.44,8.669V3.383c-.146-.01-.3-.027-.46-.027-.87,0-1.74.031-2.608-.012A1.1,1.1,0,0,0,10.15,4,2.468,2.468,0,0,1,7.227,5.084,2.59,2.59,0,0,1,5.4,2.536,2.578,2.578,0,0,1,7.286.089a2.455,2.455,0,0,1,2.894,1.146,1.033,1.033,0,0,0,1.144.606c1.231-.027,2.462-.012,3.694-.008.726,0,.977.247.979.979C16,4.55,16,6.29,16,8.028V8.64H26.064c0-.983.016-1.971-.017-2.958,0-.124-.245-.266-.4-.357a2.531,2.531,0,0,1-1.406-2.552A2.484,2.484,0,0,1,25.971.548,2.6,2.6,0,0,1,29.2,1.928a2.556,2.556,0,0,1-1.144,3.35.76.76,0,0,0-.478.829c.027.829.008,1.66.008,2.526H37.658V2.928c0-.884.214-1.1,1.08-1.1,1.3,0,2.608-.012,3.911.008a.641.641,0,0,0,.7-.416A2.533,2.533,0,0,1,46.253.062a2.568,2.568,0,0,1,2,2.517,2.567,2.567,0,0,1-2.025,2.55,2.54,2.54,0,0,1-2.892-1.394.57.57,0,0,0-.606-.39c-1.122.021-2.245.012-3.367.016a.744.744,0,0,0-.142.041V8.661a5.336,5.336,0,0,1,5.762,5.81h5.27a4.174,4.174,0,0,0,.045-.431c0-.724-.012-1.449.006-2.173.019-.771.054-1.412-.849-1.9a2.321,2.321,0,0,1-.812-2.942A2.6,2.6,0,0,1,53.6,7.42,2.464,2.464,0,0,1,52.386,10.2a.962.962,0,0,0-.575,1.049c.033,1.194.012,2.391.01,3.585,0,.973-.188,1.157-1.183,1.159h-5.62V26.059c1.117,0,2.218.016,3.315-.019.14,0,.313-.243.4-.41a2.606,2.606,0,1,1,2.934,3.715A2.544,2.544,0,0,1,48.752,28a.639.639,0,0,0-.689-.431c-1.008.027-2.018.01-3.055.01V37.625c.19.01.381.027.571.027q2.607,0,5.216,0c.794,0,1.021.239,1.021,1.045,0,1.322.01,2.645-.006,3.965a.6.6,0,0,0,.385.664,2.531,2.531,0,0,1,1.4,2.888,2.6,2.6,0,0,1-5.08-.017,2.608,2.608,0,0,1,1.41-2.9c.15-.08.351-.251.355-.383.029-1.086.017-2.173.017-3.261v-.487H44.993a5.353,5.353,0,0,1-5.779,5.81v5.307c1.262,0,2.525.012,3.785-.019.118,0,.252-.258.344-.416a2.545,2.545,0,0,1,2.4-1.4,2.448,2.448,0,0,1,2.27,1.505,2.48,2.48,0,0,1-.351,2.75,2.577,2.577,0,0,1-4.311-.487.647.647,0,0,0-.7-.418c-1.322.019-2.643.01-3.965.008-.794,0-1.023-.231-1.025-1.041,0-1.721,0-3.441,0-5.162V45H27.632v3.546a2.722,2.722,0,0,1,1.689,1.744,2.607,2.607,0,0,1-4.855,1.862,2.552,2.552,0,0,1,1.109-3.362.793.793,0,0,0,.5-.868c-.029-.957-.01-1.915-.01-2.911H16v.7q0,2.526,0,5.053c0,.831-.229,1.051-1.072,1.051-1.322,0-2.643.006-3.965,0a.57.57,0,0,0-.625.357,2.533,2.533,0,0,1-2.927,1.418,2.6,2.6,0,0,1,.016-5.068,2.611,2.611,0,0,1,2.938,1.427c.078.146.26.33.4.334,1.21.025,2.422.016,3.688.016ZM26.8,43.467q6.327,0,12.654,0a3.721,3.721,0,0,0,4.008-3.991q0-12.628,0-25.257a3.724,3.724,0,0,0-4.03-4.022h-25.2A3.724,3.724,0,0,0,10.2,14.215v25.2a3.734,3.734,0,0,0,4.057,4.051H26.8ZM3.681,26.814a1.083,1.083,0,1,0-1.093,1.1,1.094,1.094,0,0,0,1.093-1.1Zm48.461.027a1.083,1.083,0,1,0-1.121,1.072A1.1,1.1,0,0,0,52.143,26.842ZM27.911,51.083a1.083,1.083,0,1,0-1.128,1.064A1.1,1.1,0,0,0,27.911,51.083ZM6.93,2.575a1.069,1.069,0,0,0,1.076,1.1,1.1,1.1,0,0,0,1.08-1.062,1.105,1.105,0,0,0-1.091-1.1A1.065,1.065,0,0,0,6.93,2.575ZM2.6,6.927A1.067,1.067,0,0,0,1.518,7.968,1.1,1.1,0,0,0,2.6,9.082,1.105,1.105,0,0,0,3.685,7.972,1.066,1.066,0,0,0,2.6,6.927Zm48.485,0A1.067,1.067,0,0,0,49.979,8a1.083,1.083,0,1,0,2.165-.006,1.064,1.064,0,0,0-1.06-1.066ZM6.928,51.065a1.069,1.069,0,0,0,1.045,1.084,1.084,1.084,0,1,0,0-2.167,1.07,1.07,0,0,0-1.043,1.084ZM46.731,2.6a1.07,1.07,0,0,0-1.043-1.086,1.1,1.1,0,0,0-1.115,1.082,1.108,1.108,0,0,0,1.113,1.086A1.067,1.067,0,0,0,46.731,2.6ZM26.855,1.934A1.072,1.072,0,0,0,25.748,3.01,1.083,1.083,0,1,0,27.913,3a1.075,1.075,0,0,0-1.058-1.072ZM2.6,46.733A1.069,1.069,0,0,0,3.683,45.69,1.105,1.105,0,0,0,2.6,44.575a1.1,1.1,0,0,0-1.084,1.111A1.066,1.066,0,0,0,2.6,46.731Zm48.469,0a1.066,1.066,0,0,0,1.078-1.049,1.083,1.083,0,1,0-2.165-.043,1.067,1.067,0,0,0,1.087,1.093Zm-4.334,4.331a1.067,1.067,0,0,0-1.045-1.082,1.084,1.084,0,1,0,0,2.167,1.069,1.069,0,0,0,1.043-1.086Z" transform="translate(0.01 0.015)" fill="url(#linear-gradient)"/>
      <path id="Path_26076" data-name="Path 26076" d="M107.07,114.587q-3.149,0-6.3,0c-.878,0-1.208-.334-1.208-1.218q0-6.3,0-12.6c0-.853.336-1.194,1.175-1.194q6.324-.006,12.65,0c.843,0,1.181.342,1.183,1.19q0,6.3,0,12.6c0,.9-.33,1.223-1.258,1.223q-3.123,0-6.243,0Zm5.944-1.54V101.131H101.119v11.916Z" transform="translate(-80.226 -80.235)" fill="url(#linear-gradient)"/>
    </g>
  </g>
</svg>
