<svg xmlns="http://www.w3.org/2000/svg" xmlns:xlink="http://www.w3.org/1999/xlink" width="48.991" height="53.941" viewBox="0 0 48.991 53.941">
  <defs>
    <linearGradient id="linear-gradient" x1="0.5" x2="0.5" y2="1" gradientUnits="objectBoundingBox">
      <stop offset="0" stop-color="#0033be"/>
      <stop offset="1" stop-color="#0076ff"/>
    </linearGradient>
  </defs>
  <g id="Layer_1" data-name="Layer 1" transform="translate(-0.004 0.003)">
    <g id="Group_23666" data-name="Group 23666" transform="translate(0.004 -0.003)">
      <path id="Path_26077" data-name="Path 26077" d="M6.692,41.762c1.014-1.012,2.024-2.011,3.016-3.022a.683.683,0,0,0,.145-.439c.006-1.4-.013-2.8,0-4.2,0-.339-.147-.424-.441-.471A10.894,10.894,0,0,1,.094,24.091,11.022,11.022,0,0,1,7.226,12.552a.9.9,0,0,0,.726-.93,12.853,12.853,0,0,1,25.342-1.567c.134.584.205,1.18.318,1.846.212,0,.441,0,.672,0,1.637.024,3.28-.032,4.91.089a10.9,10.9,0,0,1,.927,21.563c-.283.058-.571.1-.936.158,0,.662,0,1.308,0,1.957a8.324,8.324,0,0,0,.1,2.91c.337.826,1.282,1.4,1.952,2.093.355.365.7.742,1.018,1.087,2.393-.923,4.121-.523,5.169,1.15a3.649,3.649,0,0,1-5.254,4.877c-1.52-1.113-1.874-2.925-.915-4.972a18.611,18.611,0,0,0-1.807-1.738,4.362,4.362,0,0,1-1.823-4.436,22.113,22.113,0,0,0,.022-2.862H35.325v.642c0,5.022-.019,10.044.015,15.067a2.714,2.714,0,0,1-1.364,2.488,11.093,11.093,0,0,1-4.136,1.468,27.672,27.672,0,0,1-11.852-.3,13.937,13.937,0,0,1-2.958-1.213A2.5,2.5,0,0,1,13.695,49.5c.035-5,.015-10.008.015-15.01v-.7H11.377v2.244c0,.873.045,1.749-.011,2.618a1.73,1.73,0,0,1-.415,1c-.906.971-1.857,1.9-2.808,2.826a.587.587,0,0,0-.162.822,3.639,3.639,0,1,1-4.242-1.963,3.882,3.882,0,0,1,2.953.432Zm7.02-9.551c0-.525.022-.979,0-1.429a2.281,2.281,0,0,1,1.005-2.06,6.837,6.837,0,0,1,1.163-.7A16.557,16.557,0,0,1,21.3,26.694a26.472,26.472,0,0,1,10.217.726,12.535,12.535,0,0,1,2.832,1.345,2.08,2.08,0,0,1,.979,2.008c-.026.465,0,.932,0,1.494,1.5-.065,2.953-.009,4.365-.21A9.383,9.383,0,0,0,37.9,13.43c-1.619,0-3.239,0-4.858,0-.694,0-.934-.251-.979-.949-.032-.508-.058-1.018-.141-1.52A11.33,11.33,0,0,0,9.423,12.4c-.039,1.014-.08,1.068-1.051,1.353A9.425,9.425,0,0,0,8.164,31.8c1.8.573,3.636.357,5.543.409ZM33.794,45.764a26.3,26.3,0,0,1-18.554,0c0,1.25.015,2.558-.009,3.863a.953.953,0,0,0,.5.956,11.708,11.708,0,0,0,2.024.917,25.4,25.4,0,0,0,12.04.372A18.254,18.254,0,0,0,33.111,50.7a1.166,1.166,0,0,0,.653-.785C33.831,48.51,33.794,47.1,33.794,45.764ZM15.24,32.777c0,1.247.015,2.553-.009,3.861a.949.949,0,0,0,.5.956,11.39,11.39,0,0,0,2.024.917,25.362,25.362,0,0,0,12.09.359,18.575,18.575,0,0,0,3.314-1.178,1.105,1.105,0,0,0,.612-.755c.061-1.407.028-2.819.028-4.153a26.42,26.42,0,0,1-18.554-.006Zm0,6.5c0,1.243.019,2.534-.011,3.822a1.017,1.017,0,0,0,.56,1.031,12.172,12.172,0,0,0,2.138.925,25.8,25.8,0,0,0,12.2.249,17.434,17.434,0,0,0,2.955-1.064,1.151,1.151,0,0,0,.731-1.265c-.052-.7-.013-1.416-.013-2.125V39.283a26.492,26.492,0,0,1-18.558,0Zm9.45-11.238a23.618,23.618,0,0,0-6.185.681,12.944,12.944,0,0,0-2.618,1.036c-.865.456-.837.943.009,1.461a4.784,4.784,0,0,0,1.375.638,37.655,37.655,0,0,0,4.633.915,23.788,23.788,0,0,0,9.236-.707A10.07,10.07,0,0,0,33.4,31.02c.562-.335.547-.744-.009-1.1a8.165,8.165,0,0,0-1.743-.873,22.137,22.137,0,0,0-6.953-1ZM44.334,46.96a2.117,2.117,0,1,0-2.117-2.108,2.12,2.12,0,0,0,2.117,2.108Zm-39.663,0a2.116,2.116,0,1,0-2.1-2.123,2.123,2.123,0,0,0,2.1,2.123Z" transform="translate(-0.004 0.003)" fill="url(#linear-gradient)"/>
      <path id="Path_26078" data-name="Path 26078" d="M79.1,223.38c.8.179,1.6.329,2.387.553a.668.668,0,0,1,.448.878.694.694,0,0,1-.819.56c-.765-.138-1.526-.32-2.279-.523a.682.682,0,0,1-.508-.845A.723.723,0,0,1,79.1,223.38Z" transform="translate(-61.38 -175.086)" fill="url(#linear-gradient)"/>
      <path id="Path_26079" data-name="Path 26079" d="M79.111,163.356c.8.175,1.567.318,2.318.521a.684.684,0,0,1,.506.852.7.7,0,0,1-.835.608c-.765-.136-1.526-.316-2.277-.523a.681.681,0,0,1-.493-.9A.7.7,0,0,1,79.111,163.356Z" transform="translate(-61.373 -128.038)" fill="url(#linear-gradient)"/>
      <path id="Path_26080" data-name="Path 26080" d="M81.1,195.381c-.757-.184-1.522-.342-2.27-.558a.691.691,0,0,1-.493-.9.733.733,0,0,1,.921-.549c.692.145,1.381.307,2.069.476a.718.718,0,0,1,.616.88.779.779,0,0,1-.841.655Z" transform="translate(-61.378 -151.549)" fill="url(#linear-gradient)"/>
    </g>
  </g>
</svg>
