<svg xmlns="http://www.w3.org/2000/svg" xmlns:xlink="http://www.w3.org/1999/xlink" width="160" height="42" viewBox="0 0 160 42">
  <defs>
    <clipPath id="clip-path">
      <rect id="Rectangle_22364" data-name="Rectangle 22364" width="160" height="42" transform="translate(0 0)"/>
    </clipPath>
  </defs>
  <g id="Logo" clip-path="url(#clip-path)">
    <g id="l-01-01" transform="translate(0.399 0.6)">
      <path id="Exclusion_1" data-name="Exclusion 1" d="M-5260.687-5265.332a15.865,15.865,0,0,1-4.613-.7,8.86,8.86,0,0,1-3.969-2.462,11.607,11.607,0,0,1-2.676-4.852,15.624,15.624,0,0,1,.275-8.419,34.6,34.6,0,0,1,4.176-9.074,42.059,42.059,0,0,1,11.086-11.607l4.41-3.156a20.817,20.817,0,0,0-1.6,4.561,23.169,23.169,0,0,0,.053,10.971,19.273,19.273,0,0,0,.971,2.786,36.481,36.481,0,0,1,2.142,6.723c.749,3.61.668,6.631-.239,8.98a9.156,9.156,0,0,1-4.034,4.762A11.962,11.962,0,0,1-5260.687-5265.332Zm-8.479-10.751a.341.341,0,0,0-.078.01.313.313,0,0,0-.192.145.308.308,0,0,0-.033.238c.016.062,1.644,6.126,8.128,6.126l.15,0,.132,0c4.093-.108,6.236-1.966,7.313-3.505a8,8,0,0,0,1.379-3.4.309.309,0,0,0-.07-.23.308.308,0,0,0-.211-.112l-.034,0a.312.312,0,0,0-.31.282c-.026.251-.73,6.15-8.087,6.343-.086,0-.172,0-.256,0a7.9,7.9,0,0,1-3.693-.851,7.3,7.3,0,0,1-2.293-1.889,8.306,8.306,0,0,1-1.541-2.915A.316.316,0,0,0-5269.166-5276.083Z" transform="translate(5282.083 5306.189)" fill="#fff"/>
      <path id="Path_24937" data-name="Path 24937" d="M19.647,31.774s5.727.029,7.559,8.106c0,0,4.333-19.5,21.227-27.75A41.08,41.08,0,0,0,25.532,32.7s-3.706-2.163-5.886-.925Z" transform="translate(-19.646 -12.13)" fill="#fff"/>
      <g id="Group_23508" data-name="Group 23508" transform="translate(39.002 6.938)">
        <path id="Path_24938" data-name="Path 24938" d="M210.211,61.189a.8.8,0,0,1-.1.353,1.4,1.4,0,0,1-.226.332.951.951,0,0,1-.278.213.743.743,0,0,1,.077.3,3.407,3.407,0,0,1-.008.349l-.4,2.278h-.566l.4-2.26a1.06,1.06,0,0,0,.008-.171c0-.017-.006-.06-.017-.129a1.714,1.714,0,0,1-.367.223.577.577,0,0,1,.11.315.664.664,0,0,1-.752.733.528.528,0,0,1-.351-.113l-.71,1.405h-.6l.4-2.278q.2-1.165,1.629-1.165a1.691,1.691,0,0,1,.854.19.969.969,0,0,0,.2-.3.794.794,0,0,0,.088-.271Zm-1.309.95a.98.98,0,0,0-.505-.113.87.87,0,0,0-.992.729l-.129.691-.094.36.386-.727a2.517,2.517,0,0,1,.175-.3.711.711,0,0,1,.171-.159,1.07,1.07,0,0,1,.3-.136c.132-.04.22-.067.267-.086a1.221,1.221,0,0,0,.177-.092,2.023,2.023,0,0,0,.242-.173Zm-.42.931a.189.189,0,0,0-.215-.213.267.267,0,0,0-.3.307.189.189,0,0,0,.213.215.269.269,0,0,0,.3-.308Z" transform="translate(-206.438 -57.884)" fill="#fff"/>
        <path id="Path_24939" data-name="Path 24939" d="M210.337,81.4l-.274,1.549h-1.61l.069-.409c-.434,0-.651-.157-.651-.472a.69.69,0,0,1,.1-.374.76.76,0,0,1,.66-.361c.372,0,.555.177.555.53a1.933,1.933,0,0,1-.042.376l-.052.257h.478l.2-1.1Zm-1.585.505a.179.179,0,0,0-.2-.2c-.194,0-.29.1-.29.3,0,.132.069.2.2.2a.26.26,0,0,0,.29-.3Z" transform="translate(-207.572 -73.819)" fill="#fff"/>
        <path id="Path_24940" data-name="Path 24940" d="M229.294,63.014l-.351,1.96-.24.152q.36.053.36.557a.793.793,0,0,1-.244.589.813.813,0,0,1-.593.24q-.608,0-.608-.539a.69.69,0,0,1,.025-.2,2.009,2.009,0,0,0-.5.34,2.387,2.387,0,0,0-.355.317H226.2l.386-2.182a1.514,1.514,0,0,1-.42-.046.41.41,0,0,1-.234-.16.52.52,0,0,1-.077-.3.737.737,0,0,1,.092-.355.8.8,0,0,1,.278-.286.766.766,0,0,1,.428-.121c.4,0,.608.182.608.547a1.13,1.13,0,0,1-.017.18l-.36,2.057a3.591,3.591,0,0,1,.48-.324c.159-.088.422-.215.787-.38a.475.475,0,0,0,.274-.378l.3-1.677h.564Zm-2.516.58c0-.125-.067-.188-.2-.188a.246.246,0,0,0-.274.282c0,.125.067.188.2.188a.245.245,0,0,0,.274-.281Zm1.831,2.157c0-.142-.073-.213-.221-.213a.317.317,0,0,0-.167.044.33.33,0,0,0-.117.117.317.317,0,0,0-.044.167c0,.142.075.213.223.213a.307.307,0,0,0,.23-.1.315.315,0,0,0,.094-.232Z" transform="translate(-221.804 -59.306)" fill="#fff"/>
        <path id="Path_24941" data-name="Path 24941" d="M248.468,62.983l-.608,3.424h-2.55l.136-.787a1.347,1.347,0,0,1,.217-.551.553.553,0,0,1,.374-.263.614.614,0,0,1-.453-.2.694.694,0,0,1-.173-.482,1.1,1.1,0,0,1,.358-.843,1.269,1.269,0,0,1,.892-.33c.445,0,.666.177.666.53a.792.792,0,0,1-.1.4.688.688,0,0,1-.276.265.848.848,0,0,1-.416.1.473.473,0,0,1-.539-.53.872.872,0,0,0-.077.367c0,.309.2.461.616.461h.574l-.069.411h-.282a.852.852,0,0,0-.313.056.729.729,0,0,0-.263.182.572.572,0,0,0-.152.294l-.077.436h1.422l.522-2.936h.564Zm-1.585.58c0-.125-.065-.188-.2-.188a.246.246,0,0,0-.274.282c0,.125.065.188.2.188a.246.246,0,0,0,.273-.281Z" transform="translate(-237.194 -59.275)" fill="#fff"/>
        <path id="Path_24942" data-name="Path 24942" d="M256.778,50.991a.85.85,0,0,1-.4.537,1.278,1.278,0,0,1-.689.2.435.435,0,0,1,.129.345.7.7,0,0,1-.081.347.6.6,0,0,1-.244.232.805.805,0,0,1-.386.088.485.485,0,0,1-.251-.063.448.448,0,0,1-.167-.169.5.5,0,0,1-.06-.248q0-.611.864-.825l.326-.084a.948.948,0,0,0,.259-.109.486.486,0,0,0,.169-.175.545.545,0,0,0,.067-.244Zm-1.3,1.1c0-.132-.069-.2-.207-.2a.26.26,0,0,0-.29.3c0,.132.069.2.2.2a.262.262,0,0,0,.291-.3Z" transform="translate(-244.569 -49.68)" fill="#fff"/>
        <path id="Path_24943" data-name="Path 24943" d="M266.768,63.041l-.608,3.424h-2.892l.086-.487h.274l.3-1.687a1.5,1.5,0,0,1-.42-.048.4.4,0,0,1-.232-.163.534.534,0,0,1-.077-.3.7.7,0,0,1,.106-.382.83.83,0,0,1,.288-.276.78.78,0,0,1,.4-.106q.607,0,.608.566a1.026,1.026,0,0,1-.017.163l-.395,2.226h1.491l.522-2.936h.564Zm-2.654.589c0-.125-.065-.188-.2-.188a.246.246,0,0,0-.274.282c0,.125.065.188.2.188a.246.246,0,0,0,.274-.282Z" transform="translate(-251.346 -59.332)" fill="#fff"/>
        <path id="Path_24944" data-name="Path 24944" d="M267.727,81.4l-.274,1.549h-1.61l.069-.409c-.434,0-.651-.157-.651-.472a.69.69,0,0,1,.1-.374.76.76,0,0,1,.66-.361c.372,0,.555.177.555.53a1.93,1.93,0,0,1-.042.376l-.052.257h.478l.2-1.1h.564Zm-1.585.505a.179.179,0,0,0-.2-.2c-.194,0-.29.1-.29.3,0,.132.069.2.2.2a.26.26,0,0,0,.29-.3Z" transform="translate(-252.979 -73.819)" fill="#fff"/>
        <path id="Path_24945" data-name="Path 24945" d="M285.357,63.784h-.591q-.1-.395-.683-.395a.97.97,0,0,0-.357.063.993.993,0,0,0-.313.207.908.908,0,0,0-.232.367h1.474l-.29,1.668a.782.782,0,0,1-.848.727.593.593,0,0,1-.407-.148.468.468,0,0,1-.167-.364c0-.5.317-.754.948-.754l.121-.666H282.48A1.671,1.671,0,0,1,283,63.335a1.706,1.706,0,0,1,1.194-.422,1.314,1.314,0,0,1,.8.228.912.912,0,0,1,.365.647Zm-1.491,1.936c0-.127-.065-.19-.2-.19-.182,0-.274.094-.274.284,0,.125.065.188.2.188a.246.246,0,0,0,.274-.282Z" transform="translate(-266.602 -59.247)" fill="#fff"/>
        <path id="Path_24946" data-name="Path 24946" d="M302.646,63.035l-.342,1.933-.24.155a.366.366,0,0,1,.3.165.64.64,0,0,1,.123.39.823.823,0,0,1-.829.831.544.544,0,0,1-.624-.608,1.389,1.389,0,0,0-.284.257,2.121,2.121,0,0,0-.263.3h-.566l.411-2.345a1.023,1.023,0,0,0,.017-.146q0-.5-.727-.5a1.2,1.2,0,0,0-.693.182.6.6,0,0,1,.228.12,1.052,1.052,0,0,1,.251.223,1.113,1.113,0,0,0-.462.309.928.928,0,0,0-.251.464l-.086.461.194,0c.357,0,.535.169.535.509a.707.707,0,0,1-.234.543.8.8,0,0,1-.564.217q-.608,0-.608-.564a1.023,1.023,0,0,1,.017-.163l.188-1.052a.88.88,0,0,1,.514-.691,1.355,1.355,0,0,0-.677-.3,2.311,2.311,0,0,1,1.7-.71,1.643,1.643,0,0,1,.908.223.722.722,0,0,1,.342.641,1.552,1.552,0,0,1-.025.274l-.274,1.533a5.8,5.8,0,0,1,1.123-.777l.332-1.867h.566ZM298.9,65.791c0-.127-.065-.19-.2-.19a.27.27,0,0,0-.134.033.3.3,0,0,0-.106.1.266.266,0,0,0-.046.15c0,.125.067.188.2.188a.268.268,0,0,0,.132-.033.3.3,0,0,0,.106-.1.266.266,0,0,0,.046-.15Zm3.14-.044q0-.213-.232-.213a.3.3,0,0,0-.16.038.411.411,0,0,0-.113.113.3.3,0,0,0-.052.175c0,.144.077.215.23.215a.34.34,0,0,0,.157-.038.312.312,0,0,0,.121-.113.309.309,0,0,0,.05-.175Z" transform="translate(-278.832 -59.327)" fill="#fff"/>
        <path id="Path_24947" data-name="Path 24947" d="M324.552,66.477h-.564l.4-2.26A1.3,1.3,0,0,0,324.4,64c0-.342-.2-.514-.6-.514a1,1,0,0,0-.46.1.626.626,0,0,0-.282.278.727.727,0,0,0-.092.24h-.522a1.147,1.147,0,0,1,.48-.777,1.563,1.563,0,0,1,.942-.292q1.106,0,1.107.864a1.655,1.655,0,0,1-.027.3l-.4,2.278Z" transform="translate(-298.228 -59.344)" fill="#fff"/>
        <path id="Path_24948" data-name="Path 24948" d="M340.2,66.461h-.566l.411-2.345a1.027,1.027,0,0,0,.017-.146q0-.5-.727-.5a1.2,1.2,0,0,0-.693.182.618.618,0,0,1,.232.121,1.047,1.047,0,0,1,.248.22,1.068,1.068,0,0,0-.461.309.945.945,0,0,0-.251.464l-.3,1.7h-.564l.307-1.748a.875.875,0,0,1,.514-.691,1.347,1.347,0,0,0-.674-.3,2.311,2.311,0,0,1,1.7-.71,2.012,2.012,0,0,1,.633.094.978.978,0,0,1,.451.286.717.717,0,0,1,.167.487,1.513,1.513,0,0,1-.027.274l-.409,2.31Z" transform="translate(-310.174 -59.329)" fill="#fff"/>
        <path id="Path_24949" data-name="Path 24949" d="M357.029,66.479h-.564l.4-2.26a1.307,1.307,0,0,0,.017-.215c0-.342-.2-.514-.6-.514a1,1,0,0,0-.46.1.626.626,0,0,0-.28.278.725.725,0,0,0-.092.24h-.522a1.147,1.147,0,0,1,.48-.777,1.563,1.563,0,0,1,.942-.292q1.106,0,1.107.864a1.655,1.655,0,0,1-.027.3l-.4,2.278Z" transform="translate(-323.926 -59.346)" fill="#fff"/>
        <path id="Path_24950" data-name="Path 24950" d="M372.7,63.785h-.591q-.1-.395-.683-.395a.971.971,0,0,0-.357.063.992.992,0,0,0-.313.207.909.909,0,0,0-.232.367H372l-.29,1.668a.782.782,0,0,1-.848.727.593.593,0,0,1-.407-.148.468.468,0,0,1-.167-.363c0-.5.317-.754.948-.754l.121-.666H369.82a1.67,1.67,0,0,1,.518-1.155,1.706,1.706,0,0,1,1.194-.422,1.314,1.314,0,0,1,.8.228.912.912,0,0,1,.365.647Zm-1.491,1.936c0-.127-.065-.19-.2-.19-.182,0-.274.094-.274.284,0,.125.065.188.2.188a.246.246,0,0,0,.274-.282Z" transform="translate(-335.706 -59.248)" fill="#fff"/>
        <path id="Path_24951" data-name="Path 24951" d="M387.29,66.477h-.564l.4-2.26a1.046,1.046,0,0,0,.017-.171q0-.557-.752-.557a1.08,1.08,0,0,0-.647.192.829.829,0,0,0-.33.537l-.129.691-.094.36.428-.82a.794.794,0,0,1,.727-.487.517.517,0,0,1,.372.134.472.472,0,0,1,.142.357.8.8,0,0,1-.077.357.673.673,0,0,1-.246.269.792.792,0,0,1-.43.109.685.685,0,0,1-.2-.031.369.369,0,0,1-.155-.081l-.71,1.405h-.6l.4-2.278a1.272,1.272,0,0,1,.537-.856,1.866,1.866,0,0,1,1.092-.309c.827,0,1.242.309,1.242.925a1.387,1.387,0,0,1-.027.238l-.4,2.278Zm-.8-1.944a.188.188,0,0,0-.213-.213.269.269,0,0,0-.3.307.19.19,0,0,0,.215.215.269.269,0,0,0,.3-.309Z" transform="translate(-347.277 -59.344)" fill="#fff"/>
        <path id="Path_24952" data-name="Path 24952" d="M392.5,82.934h-.566l.069-.409c-.434,0-.649-.157-.649-.472a.689.689,0,0,1,.225-.522.753.753,0,0,1,.537-.213.575.575,0,0,1,.4.142.5.5,0,0,1,.155.388,2.3,2.3,0,0,1-.044.376l-.127.71Zm-.265-1.042c0-.132-.069-.2-.207-.2-.194,0-.29.1-.29.3,0,.132.069.2.2.2a.262.262,0,0,0,.292-.3Z" transform="translate(-352.741 -73.81)" fill="#fff"/>
        <path id="Path_24953" data-name="Path 24953" d="M408.484,63.038l-.342,1.934-.24.155a.366.366,0,0,1,.3.165.64.64,0,0,1,.123.39.824.824,0,0,1-.828.832.544.544,0,0,1-.624-.608,1.389,1.389,0,0,0-.284.257,2.119,2.119,0,0,0-.263.3h-.566l.411-2.345a1.041,1.041,0,0,0,.017-.146q0-.5-.727-.5a1.2,1.2,0,0,0-.693.182.6.6,0,0,1,.228.12,1.052,1.052,0,0,1,.251.223,1.113,1.113,0,0,0-.461.309.929.929,0,0,0-.251.464l-.086.461.194,0c.357,0,.535.169.535.509a.706.706,0,0,1-.234.543.8.8,0,0,1-.564.217q-.608,0-.608-.564a1.019,1.019,0,0,1,.017-.163l.188-1.052a.88.88,0,0,1,.514-.691,1.355,1.355,0,0,0-.677-.3,2.312,2.312,0,0,1,1.7-.71,1.643,1.643,0,0,1,.907.222.722.722,0,0,1,.342.641,1.546,1.546,0,0,1-.025.274l-.274,1.533a5.8,5.8,0,0,1,1.123-.777l.332-1.867h.566Zm-3.742,2.756c0-.127-.065-.19-.2-.19a.27.27,0,0,0-.134.033.3.3,0,0,0-.107.1.267.267,0,0,0-.046.15c0,.125.067.188.2.188a.268.268,0,0,0,.132-.033.3.3,0,0,0,.106-.1.266.266,0,0,0,.046-.15Zm3.14-.044q0-.213-.232-.213a.3.3,0,0,0-.16.038.413.413,0,0,0-.113.113.3.3,0,0,0-.052.175c0,.144.077.215.23.215a.34.34,0,0,0,.157-.038.313.313,0,0,0,.121-.113.31.31,0,0,0,.05-.175Z" transform="translate(-362.573 -59.33)" fill="#fff"/>
        <path id="Path_24954" data-name="Path 24954" d="M431,66.456h-.564l.41-2.345a1.071,1.071,0,0,0,.019-.146q0-.5-.727-.5a1.2,1.2,0,0,0-.693.182.645.645,0,0,1,.226.117.987.987,0,0,1,.253.223.9.9,0,0,0-.64.77L429.1,65.8a.879.879,0,0,1-.286.53.826.826,0,0,1-.564.2c-.382,0-.572-.173-.572-.522,0-.5.317-.743.95-.743l.094-.549a.821.821,0,0,1,.445-.691,1.355,1.355,0,0,0-.677-.3,2.315,2.315,0,0,1,1.7-.71,1.876,1.876,0,0,1,.677.109.935.935,0,0,1,.428.3.738.738,0,0,1,.144.461,1.541,1.541,0,0,1-.025.274L431,66.46Zm-2.4-.633c0-.125-.065-.188-.2-.188a.293.293,0,0,0-.134.031.28.28,0,0,0-.106.1.267.267,0,0,0-.044.152c0,.125.065.188.2.188a.256.256,0,0,0,.142-.04.342.342,0,0,0,.1-.1.274.274,0,0,0,.04-.142Z" transform="translate(-381.482 -59.323)" fill="#fff"/>
        <path id="Path_24955" data-name="Path 24955" d="M450.011,66.477h-.564l.4-2.26a1.3,1.3,0,0,0,.017-.215c0-.342-.2-.514-.6-.514a1,1,0,0,0-.46.1.626.626,0,0,0-.282.278.727.727,0,0,0-.092.24h-.522a1.147,1.147,0,0,1,.48-.777,1.563,1.563,0,0,1,.942-.292q1.105,0,1.1.864a1.655,1.655,0,0,1-.027.3Z" transform="translate(-397.491 -59.344)" fill="#fff"/>
        <path id="Path_24956" data-name="Path 24956" d="M467.381,63.042l-.608,3.424h-.632l-.376-2.552-1.286,2.552h-.633l.384-2.174a1.5,1.5,0,0,1-.42-.048.4.4,0,0,1-.232-.163.534.534,0,0,1-.077-.3.7.7,0,0,1,.106-.382.83.83,0,0,1,.288-.276.78.78,0,0,1,.4-.106q.608,0,.608.566a1.079,1.079,0,0,1-.017.163l-.2,1.121-.1.309,1.088-2.14h.445l.34,2.14.019-.309.324-1.831h.566Zm-2.963.589c0-.125-.065-.188-.2-.188a.246.246,0,0,0-.274.282c0,.125.065.188.2.188a.246.246,0,0,0,.273-.282Z" transform="translate(-409.827 -59.334)" fill="#fff"/>
        <path id="Path_24957" data-name="Path 24957" d="M488.461,63.014l-.351,1.96-.24.152q.36.053.36.557a.793.793,0,0,1-.244.589.813.813,0,0,1-.593.24q-.608,0-.608-.539a.687.687,0,0,1,.025-.2,2.01,2.01,0,0,0-.5.34,2.382,2.382,0,0,0-.355.317h-.583l.386-2.182a1.514,1.514,0,0,1-.42-.046.41.41,0,0,1-.234-.16.52.52,0,0,1-.077-.3.738.738,0,0,1,.092-.355.8.8,0,0,1,.278-.286.765.765,0,0,1,.428-.121c.405,0,.608.182.608.547a1.127,1.127,0,0,1-.017.18l-.36,2.057a3.588,3.588,0,0,1,.48-.324c.159-.088.422-.215.787-.38a.475.475,0,0,0,.274-.378l.3-1.677h.565Zm-2.516.58c0-.125-.067-.188-.2-.188a.246.246,0,0,0-.274.282c0,.125.067.188.2.188a.245.245,0,0,0,.274-.281Zm1.831,2.157c0-.142-.073-.213-.221-.213a.316.316,0,0,0-.167.044.33.33,0,0,0-.117.117.316.316,0,0,0-.044.167c0,.142.075.213.223.213a.307.307,0,0,0,.23-.1.315.315,0,0,0,.094-.232Z" transform="translate(-426.857 -59.306)" fill="#fff"/>
        <path id="Path_24958" data-name="Path 24958" d="M498.4,54.56a.845.845,0,0,1-.848.854.643.643,0,0,1-.313-.071.514.514,0,0,1-.2-.2.57.57,0,0,1-.073-.3.836.836,0,0,1,.244-.61.813.813,0,0,1,.6-.248q.592,0,.591.566Zm-.4.094a.231.231,0,0,0-.265-.257.362.362,0,0,0-.188.05.377.377,0,0,0-.132.132.349.349,0,0,0-.05.186.23.23,0,0,0,.265.257.349.349,0,0,0,.186-.05.4.4,0,0,0,.132-.132.349.349,0,0,0,.05-.186Z" transform="translate(-436.298 -52.188)" fill="#fff"/>
        <path id="Path_24959" data-name="Path 24959" d="M500.623,45.65a1.594,1.594,0,0,1-.877.841,3.373,3.373,0,0,1-1.416.3l.05-.29a.724.724,0,0,0,.232-.06.392.392,0,0,0,.213-.171q-.445,0-.445-.338a.53.53,0,0,1,.171-.411.61.61,0,0,1,.43-.157c.29,0,.436.127.436.384a.8.8,0,0,1-.376.66,1.243,1.243,0,0,0,.46-.14,1.545,1.545,0,0,0,.461-.3,1.259,1.259,0,0,0,.23-.3,1.159,1.159,0,0,0,.09-.2l.34.188Zm-1.54.138c0-.1-.054-.155-.163-.155a.2.2,0,0,0-.23.232c0,.1.054.152.163.152a.2.2,0,0,0,.229-.23Z" transform="translate(-437.383 -45.36)" fill="#fff"/>
        <path id="Path_24960" data-name="Path 24960" d="M505.651,66.477h-.564l.4-2.26A1.308,1.308,0,0,0,505.5,64q0-.514-.6-.514a1,1,0,0,0-.46.1.626.626,0,0,0-.282.278.727.727,0,0,0-.092.24h-.522a1.147,1.147,0,0,1,.48-.777,1.563,1.563,0,0,1,.942-.292q1.106,0,1.1.864a1.654,1.654,0,0,1-.027.3Z" transform="translate(-441.514 -59.344)" fill="#fff"/>
        <path id="Path_24961" data-name="Path 24961" d="M528.784,66.461h-.566l.411-2.345a1.041,1.041,0,0,0,.017-.146q0-.5-.727-.5a1.2,1.2,0,0,0-.693.182.619.619,0,0,1,.232.121,1.044,1.044,0,0,1,.248.22,1.068,1.068,0,0,0-.461.309.946.946,0,0,0-.251.464l-.3,1.7h-.564l.307-1.748a.875.875,0,0,1,.514-.691,1.347,1.347,0,0,0-.674-.3,2.311,2.311,0,0,1,1.7-.71,2.012,2.012,0,0,1,.633.094.977.977,0,0,1,.451.286.717.717,0,0,1,.167.487,1.514,1.514,0,0,1-.027.274l-.409,2.31Z" transform="translate(-459.378 -59.329)" fill="#fff"/>
        <path id="Path_24962" data-name="Path 24962" d="M545.6,66.477h-.564l.4-2.26a1.314,1.314,0,0,0,.017-.215c0-.342-.2-.514-.6-.514a1,1,0,0,0-.46.1.626.626,0,0,0-.282.278.727.727,0,0,0-.092.24H543.5a1.147,1.147,0,0,1,.48-.777,1.563,1.563,0,0,1,.942-.292q1.106,0,1.1.864a1.652,1.652,0,0,1-.026.3Z" transform="translate(-473.121 -59.344)" fill="#fff"/>
        <path id="Path_24963" data-name="Path 24963" d="M561.267,63.785h-.591q-.1-.395-.683-.395a.972.972,0,0,0-.357.063.993.993,0,0,0-.313.207.908.908,0,0,0-.232.367h1.474l-.29,1.668a.782.782,0,0,1-.848.727.593.593,0,0,1-.407-.148.468.468,0,0,1-.167-.363c0-.5.317-.754.948-.754l.121-.666H558.39a1.67,1.67,0,0,1,.518-1.155,1.707,1.707,0,0,1,1.194-.422,1.315,1.315,0,0,1,.8.228.912.912,0,0,1,.365.647Zm-1.491,1.936c0-.127-.065-.19-.2-.19-.182,0-.274.094-.274.284,0,.125.065.188.2.188a.246.246,0,0,0,.274-.282Z" transform="translate(-484.902 -59.248)" fill="#fff"/>
        <path id="Path_24964" data-name="Path 24964" d="M577.872,53.914l-.942,5.341h-2.892l.086-.487h.273l.3-1.687a1.5,1.5,0,0,1-.42-.048.4.4,0,0,1-.232-.163.534.534,0,0,1-.077-.3.7.7,0,0,1,.106-.382.83.83,0,0,1,.288-.276.78.78,0,0,1,.4-.106q.608,0,.608.566a1.026,1.026,0,0,1-.017.163l-.395,2.226h1.491l.856-4.855h.564Zm-2.988,2.508c0-.125-.065-.188-.2-.188a.246.246,0,0,0-.273.282c0,.125.065.188.2.188a.246.246,0,0,0,.273-.282Z" transform="translate(-497.226 -52.125)" fill="#fff"/>
        <path id="Path_24965" data-name="Path 24965" d="M596.117,63.785h-.591q-.1-.395-.683-.395a.971.971,0,0,0-.357.063.992.992,0,0,0-.313.207.908.908,0,0,0-.232.367h1.474l-.29,1.668a.782.782,0,0,1-.848.727.593.593,0,0,1-.407-.148.467.467,0,0,1-.167-.363c0-.5.317-.754.948-.754l.121-.666H593.24a1.67,1.67,0,0,1,.518-1.155,1.706,1.706,0,0,1,1.194-.422,1.315,1.315,0,0,1,.8.228.912.912,0,0,1,.365.647Zm-1.491,1.936c0-.127-.065-.19-.2-.19-.182,0-.274.094-.274.284,0,.125.065.188.2.188a.246.246,0,0,0,.273-.282Z" transform="translate(-512.476 -59.248)" fill="#fff"/>
        <path id="Path_24966" data-name="Path 24966" d="M609.912,65.835a1.068,1.068,0,0,1-.26.528,1.4,1.4,0,0,1-.643.418,2.623,2.623,0,0,1-.852.142c-.614,0-.923-.194-.923-.583a.691.691,0,0,1,.22-.52.752.752,0,0,1,.537-.209.515.515,0,0,1,.367.138.454.454,0,0,1,.146.342.591.591,0,0,1-.111.386,1.323,1.323,0,0,0,.729-.182,1.024,1.024,0,0,0,.393-.677l.4.215Zm.326-1.883a1.066,1.066,0,0,1-.261.528,1.4,1.4,0,0,1-.643.418,2.624,2.624,0,0,1-.852.142c-.614,0-.923-.194-.923-.583a.691.691,0,0,1,.22-.52.753.753,0,0,1,.537-.209.515.515,0,0,1,.368.138.454.454,0,0,1,.146.342.592.592,0,0,1-.111.386,1.322,1.322,0,0,0,.729-.182,1.024,1.024,0,0,0,.393-.677l.4.215Zm-2.115,2.224c0-.136-.071-.2-.213-.2a.269.269,0,0,0-.3.309c0,.136.071.2.215.2a.269.269,0,0,0,.3-.309Zm.326-1.883c0-.136-.071-.2-.213-.2a.269.269,0,0,0-.3.309c0,.136.071.2.215.2a.269.269,0,0,0,.3-.309Z" transform="translate(-523.548 -59.893)" fill="#fff"/>
        <path id="Path_24967" data-name="Path 24967" d="M627.942,53.914,627,59.255h-2.892l.086-.487h.274l.3-1.687a1.5,1.5,0,0,1-.42-.048.4.4,0,0,1-.232-.163.534.534,0,0,1-.077-.3.7.7,0,0,1,.107-.382.828.828,0,0,1,.288-.276.78.78,0,0,1,.4-.106q.608,0,.608.566a1.034,1.034,0,0,1-.017.163l-.394,2.226h1.491l.856-4.855h.564Zm-2.988,2.508c0-.125-.065-.188-.2-.188a.246.246,0,0,0-.274.282c0,.125.065.188.2.188a.246.246,0,0,0,.274-.282Z" transform="translate(-536.842 -52.125)" fill="#fff"/>
        <path id="Path_24968" data-name="Path 24968" d="M644.913,66.477h-.564l.4-2.26a1.307,1.307,0,0,0,.017-.215q0-.514-.6-.514a1,1,0,0,0-.46.1.627.627,0,0,0-.282.278.73.73,0,0,0-.092.24h-.522a1.147,1.147,0,0,1,.48-.777,1.564,1.564,0,0,1,.942-.292q1.106,0,1.1.864a1.65,1.65,0,0,1-.027.3Z" transform="translate(-551.698 -59.344)" fill="#fff"/>
        <path id="Path_24969" data-name="Path 24969" d="M661.909,63.014l-.351,1.96-.24.152q.36.053.36.557a.792.792,0,0,1-.244.589.813.813,0,0,1-.593.24q-.608,0-.608-.539a.685.685,0,0,1,.025-.2,2.009,2.009,0,0,0-.5.34,2.388,2.388,0,0,0-.355.317h-.584l.386-2.182a1.515,1.515,0,0,1-.42-.046.41.41,0,0,1-.234-.16.52.52,0,0,1-.077-.3.738.738,0,0,1,.092-.355.8.8,0,0,1,.278-.286.765.765,0,0,1,.428-.121c.405,0,.608.182.608.547a1.134,1.134,0,0,1-.017.18l-.36,2.057a3.6,3.6,0,0,1,.48-.324c.159-.088.422-.215.787-.38a.475.475,0,0,0,.274-.378l.3-1.677h.564Zm-2.516.58c0-.125-.067-.188-.2-.188a.246.246,0,0,0-.274.282c0,.125.067.188.2.188a.245.245,0,0,0,.273-.281Zm1.831,2.157c0-.142-.073-.213-.221-.213a.317.317,0,0,0-.167.044.331.331,0,0,0-.117.117.317.317,0,0,0-.044.167c0,.142.075.213.223.213a.307.307,0,0,0,.23-.1.315.315,0,0,0,.094-.232Z" transform="translate(-564.088 -59.306)" fill="#fff"/>
        <path id="Path_24970" data-name="Path 24970" d="M680.1,66.479h-.564l.4-2.26a1.053,1.053,0,0,0,.017-.171q0-.557-.752-.557a1.08,1.08,0,0,0-.647.192.83.83,0,0,0-.33.537l-.129.691-.094.36.428-.82a.794.794,0,0,1,.727-.487.518.518,0,0,1,.372.134.472.472,0,0,1,.142.357.8.8,0,0,1-.077.357.672.672,0,0,1-.246.269.791.791,0,0,1-.43.109.685.685,0,0,1-.2-.031.367.367,0,0,1-.154-.081l-.71,1.405h-.6l.4-2.278a1.272,1.272,0,0,1,.537-.856,1.867,1.867,0,0,1,1.092-.309c.827,0,1.242.309,1.242.925a1.386,1.386,0,0,1-.027.238Zm-.8-1.944a.188.188,0,0,0-.213-.213.269.269,0,0,0-.3.307.19.19,0,0,0,.215.215.269.269,0,0,0,.3-.309Z" transform="translate(-578.946 -59.347)" fill="#fff"/>
        <path id="Path_24971" data-name="Path 24971" d="M698.867,63.785h-.591q-.1-.395-.683-.395a.971.971,0,0,0-.357.063.993.993,0,0,0-.313.207.909.909,0,0,0-.232.367h1.474l-.29,1.668a.782.782,0,0,1-.848.727.592.592,0,0,1-.407-.148.467.467,0,0,1-.167-.363q0-.755.948-.754l.121-.666H695.99a1.67,1.67,0,0,1,.518-1.155,1.707,1.707,0,0,1,1.194-.422,1.315,1.315,0,0,1,.8.228.916.916,0,0,1,.365.647Zm-1.491,1.936c0-.127-.065-.19-.2-.19-.182,0-.274.094-.274.284,0,.125.065.188.2.188a.246.246,0,0,0,.274-.282Z" transform="translate(-593.772 -59.248)" fill="#fff"/>
        <path id="Path_24972" data-name="Path 24972" d="M714.727,64.2q.15.075.15.338a1.2,1.2,0,0,1-.015.184l-.017.1-.29,1.643h-.566l.326-1.833v-.06a.062.062,0,0,0-.015-.02.152.152,0,0,0-.038-.02L712.5,66.47h-.583L712.3,64.3c-.484,0-.727-.169-.727-.505a.7.7,0,0,1,.106-.382.831.831,0,0,1,.288-.276.78.78,0,0,1,.4-.106q.608,0,.608.566a1.019,1.019,0,0,1-.017.163l-.342,1.933,1.405-1.5a.436.436,0,0,1-.248-.418q0-.745.837-.745a.529.529,0,0,1,.248.063.521.521,0,0,1,.2.18.48.48,0,0,1,.08.274.724.724,0,0,1-.409.66Zm-2.236-.566c0-.125-.065-.188-.2-.188a.246.246,0,0,0-.274.282c0,.125.065.188.2.188a.246.246,0,0,0,.274-.282Zm2.209-.025c0-.125-.065-.188-.2-.188a.28.28,0,0,0-.246.14.276.276,0,0,0-.038.144c0,.125.065.188.2.188a.256.256,0,0,0,.142-.04.319.319,0,0,0,.1-.1.272.272,0,0,0,.038-.142Z" transform="translate(-606.102 -59.337)" fill="#fff"/>
        <path id="Path_24973" data-name="Path 24973" d="M733.276,66.486h-.591a4.878,4.878,0,0,0-.18-.935,2.835,2.835,0,0,0-.453-.992,1.141,1.141,0,0,0-.328.336,2.117,2.117,0,0,0-.238.4c.36,0,.539.163.539.487a.791.791,0,0,1-.1.4.713.713,0,0,1-.278.267.843.843,0,0,1-.42.1.476.476,0,0,1-.547-.53,2.2,2.2,0,0,1,.5-1.261,2.62,2.62,0,0,1,1.017-.906,2.529,2.529,0,0,1,.47.62,2.686,2.686,0,0,1,.274.716l.129-.735a1.528,1.528,0,0,0,.025-.265c0-.451-.282-.674-.846-.674a1.2,1.2,0,0,0-.733.23,1.106,1.106,0,0,0-.411.637l-.048.192h-.538a1.718,1.718,0,0,1,1.835-1.524,1.905,1.905,0,0,1,.729.125.979.979,0,0,1,.455.347.941.941,0,0,1,.15.54,1.427,1.427,0,0,1-.027.248l-.384,2.182ZM731.6,65.87c0-.125-.065-.188-.2-.188a.286.286,0,0,0-.144.038.28.28,0,0,0-.14.246c0,.125.065.188.2.188a.271.271,0,0,0,.134-.033.28.28,0,0,0,.106-.1.266.266,0,0,0,.044-.152Z" transform="translate(-621.092 -59.353)" fill="#fff"/>
        <path id="Path_24974" data-name="Path 24974" d="M750.629,65.231l.188-1.034a1.1,1.1,0,0,0,.017-.188c0-.361-.2-.54-.616-.54a.8.8,0,0,0-.862.72l-.06.307h-.522l.052-.274a1.427,1.427,0,0,1,.507-.9,1.519,1.519,0,0,1,.973-.313,1.28,1.28,0,0,1,.831.221.806.806,0,0,1,.276.668,1.546,1.546,0,0,1-.025.274L751.1,65.77a.783.783,0,0,1-.846.727.673.673,0,0,1-.284-.06.527.527,0,0,1-.211-.177.468.468,0,0,1-.081-.276q0-.755.95-.754Zm-.025.566c0-.127-.065-.19-.2-.19-.182,0-.273.094-.273.284,0,.125.065.188.2.188a.246.246,0,0,0,.273-.282Z" transform="translate(-635.534 -59.324)" fill="#fff"/>
        <path id="Path_24975" data-name="Path 24975" d="M765.246,66.481h-.616L763.2,64.7l.42-.326,1.173,1.466.274-1.533c-.484,0-.727-.169-.727-.505a.71.71,0,0,1,.238-.539.792.792,0,0,1,.557-.223q.608,0,.608.566a1.041,1.041,0,0,1-.017.163Zm.008-2.833c0-.125-.065-.188-.2-.188a.246.246,0,0,0-.273.282c0,.125.065.188.2.188a.246.246,0,0,0,.273-.282Z" transform="translate(-646.948 -59.348)" fill="#fff"/>
      </g>
      <g id="Group_23509" data-name="Group 23509" transform="translate(38.975 35.615)">
        <path id="Path_24976" data-name="Path 24976" d="M210.73,183.019l-.8,3.819h-.5l.4-1.856c.1-.44.228-.923.395-1.443q-.176.4-.405.8l-1.424,2.5H207.9l-.384-2.449a7.139,7.139,0,0,1-.075-.783c-.044.332-.086.6-.127.8l-.509,2.435h-.5l.8-3.82h.628l.386,2.474a8.981,8.981,0,0,1,.1.933,10.428,10.428,0,0,1,.532-1.044l1.338-2.366Z" transform="translate(-206.31 -182.953)" fill="#fff"/>
        <path id="Path_24977" data-name="Path 24977" d="M234.677,183.02l-1.944,3.819h-.547l-.127-2.314-.029-.729c-.109.248-.2.436-.265.564l-1.324,2.478h-.526l-.234-3.819h.52l.09,1.89.019.478.013.4v.348l.457-.917,1.16-2.2h.526l.127,2.232.029.923c.025-.073.088-.226.19-.455s.188-.413.257-.547l1.09-2.151h.522Z" transform="translate(-224.8 -182.954)" fill="#fff"/>
        <path id="Path_24978" data-name="Path 24978" d="M253.487,186.839h-.5l-.184-1.1h-1.545l-.612,1.1h-.561l2.165-3.819h.6Zm-.741-1.493-.148-.958c-.056-.365-.092-.683-.107-.95a6.82,6.82,0,0,1-.38.777l-.628,1.132h1.265Z" transform="translate(-240.949 -182.954)" fill="#fff"/>
        <path id="Path_24979" data-name="Path 24979" d="M282.937,183.02l-1.944,3.819h-.547l-.127-2.314-.029-.729c-.109.248-.2.436-.265.564l-1.324,2.478h-.526l-.234-3.819h.52l.09,1.89.017.478.013.4v.348l.457-.917,1.16-2.2h.526l.127,2.232.029.923c.025-.073.09-.226.19-.455s.188-.413.257-.547l1.09-2.151h.522Z" transform="translate(-262.984 -182.954)" fill="#fff"/>
        <path id="Path_24980" data-name="Path 24980" d="M301.746,186.839h-.495l-.186-1.1H299.52l-.612,1.1h-.56l2.165-3.819h.6l.631,3.819ZM301,185.346l-.148-.958c-.056-.365-.092-.683-.106-.95a6.817,6.817,0,0,1-.38.777l-.628,1.132h1.265Z" transform="translate(-279.13 -182.954)" fill="#fff"/>
        <path id="Path_24981" data-name="Path 24981" d="M322.179,183.02l-.092.434h-1.243l-.706,3.385h-.512l.706-3.385H319.08l.092-.434Z" transform="translate(-295.534 -182.954)" fill="#fff"/>
        <path id="Path_24982" data-name="Path 24982" d="M336.216,183.013l-.092.434h-2.245l-.251,1.186h2.188l-.092.434h-2.188l-.276,1.328h2.405l-.092.434H332.66l.8-3.819h2.756Z" transform="translate(-306.278 -182.947)" fill="#fff"/>
        <path id="Path_24983" data-name="Path 24983" d="M352.1,185.108a1.434,1.434,0,0,1,.3.278,2.969,2.969,0,0,1,.211.326,3.144,3.144,0,0,1,.192.395l.292.72h-.57l-.274-.712a3.765,3.765,0,0,0-.223-.478,1.7,1.7,0,0,0-.215-.315.612.612,0,0,0-.209-.146,1.173,1.173,0,0,0-.4-.046h-.6l-.354,1.695h-.512l.8-3.819h1.6a3.79,3.79,0,0,1,.495.027,1,1,0,0,1,.382.129.665.665,0,0,1,.269.3,1.089,1.089,0,0,1,.1.478q0,1-1.29,1.171Zm-1.134-1.683-.269,1.29h.706c.267,0,.474,0,.622-.013a1.261,1.261,0,0,0,.432-.1.747.747,0,0,0,.33-.274.707.707,0,0,0,.12-.4.538.538,0,0,0-.084-.317.374.374,0,0,0-.221-.152,1.682,1.682,0,0,0-.384-.033h-1.247Z" transform="translate(-319.792 -182.941)" fill="#fff"/>
        <path id="Path_24984" data-name="Path 24984" d="M379.2,186.278a2.313,2.313,0,0,0,.522.443l-.228.3a2.923,2.923,0,0,1-.622-.549,1.747,1.747,0,0,1-.74.182,1.606,1.606,0,0,1-1.217-.466,1.76,1.76,0,0,1-.447-1.272,2.44,2.44,0,0,1,.269-1.128,1.928,1.928,0,0,1,1.754-1.088,1.532,1.532,0,0,1,1.171.47,1.738,1.738,0,0,1,.44,1.242,2.2,2.2,0,0,1-.9,1.865Zm-.647-.138a2.353,2.353,0,0,0-.487-.347l.186-.317a2.077,2.077,0,0,1,.639.474,1.564,1.564,0,0,0,.374-.418,2.2,2.2,0,0,0,.244-.543,2.094,2.094,0,0,0,.088-.6,1.352,1.352,0,0,0-.3-.9.99.99,0,0,0-.8-.357,1.319,1.319,0,0,0-.6.142,1.527,1.527,0,0,0-.487.388,1.864,1.864,0,0,0-.324.585,2.154,2.154,0,0,0-.117.72,1.27,1.27,0,0,0,.332.931,1.012,1.012,0,0,0,.737.336,1.414,1.414,0,0,0,.512-.088Z" transform="translate(-340.935 -182.702)" fill="#fff"/>
        <path id="Path_24985" data-name="Path 24985" d="M399.959,183.02l-.468,2.24a2.388,2.388,0,0,1-.587,1.238,1.47,1.47,0,0,1-1.075.409,2.053,2.053,0,0,1-.583-.075,1.172,1.172,0,0,1-.428-.221,1.022,1.022,0,0,1-.274-.357,1.076,1.076,0,0,1-.1-.457,4.211,4.211,0,0,1,.106-.691l.434-2.084h.512l-.491,2.349a2.335,2.335,0,0,0-.06.432.588.588,0,0,0,.244.5.978.978,0,0,0,.608.184,1.09,1.09,0,0,0,.616-.167,1.031,1.031,0,0,0,.37-.447,3.878,3.878,0,0,0,.22-.745l.44-2.1h.511Z" transform="translate(-356.746 -182.954)" fill="#fff"/>
        <path id="Path_24986" data-name="Path 24986" d="M415.316,186.839h-.495l-.186-1.1H413.09l-.612,1.1h-.56l2.165-3.819h.6l.631,3.819Zm-.741-1.493-.148-.958c-.056-.365-.092-.683-.106-.95a6.827,6.827,0,0,1-.38.777l-.629,1.132h1.265Z" transform="translate(-368.987 -182.954)" fill="#fff"/>
        <path id="Path_24987" data-name="Path 24987" d="M433.085,186.4l-.092.434H430.5l.8-3.819h.512L431.1,186.4h1.982Z" transform="translate(-383.689 -182.953)" fill="#fff"/>
        <path id="Path_24988" data-name="Path 24988" d="M446.46,183.02l-.8,3.819h-.512l.8-3.819Z" transform="translate(-395.28 -182.954)" fill="#fff"/>
        <path id="Path_24989" data-name="Path 24989" d="M457.069,183.02l-.093.434h-1.242l-.706,3.385h-.512l.706-3.385H453.97l.092-.434Z" transform="translate(-402.259 -182.953)" fill="#fff"/>
        <path id="Path_24990" data-name="Path 24990" d="M472.882,183.016l-1.823,2.382-.3,1.437h-.509l.307-1.476-1.176-2.343h.547l.562,1.115c.132.26.253.522.36.78a5.534,5.534,0,0,1,.526-.773l.9-1.123h.608Z" transform="translate(-414.451 -182.949)" fill="#fff"/>
        <path id="Path_24991" data-name="Path 24991" d="M493.309,183.02l-.8,3.819H492l.8-3.819Z" transform="translate(-432.348 -182.954)" fill="#fff"/>
        <path id="Path_24992" data-name="Path 24992" d="M502.685,183.02l-.8,3.819h-.505l-.948-2.207q-.263-.614-.392-1.027c-.027.253-.077.555-.15.912l-.484,2.322h-.5l.8-3.819h.495l.643,1.434q.326.727.443,1.04c.077.209.163.464.253.766.05-.33.109-.662.177-.994l.47-2.247h.5Z" transform="translate(-437.815 -182.953)" fill="#fff"/>
        <path id="Path_24993" data-name="Path 24993" d="M522.379,183.02l-.092.434h-1.243l-.706,3.385h-.512l.706-3.385H519.28l.092-.434Z" transform="translate(-453.932 -182.954)" fill="#fff"/>
        <path id="Path_24994" data-name="Path 24994" d="M536.416,183.013l-.092.434h-2.245l-.251,1.186h2.188l-.092.434h-2.188l-.276,1.328h2.405l-.092.434H532.86l.8-3.819h2.756Z" transform="translate(-464.676 -182.947)" fill="#fff"/>
        <path id="Path_24995" data-name="Path 24995" d="M554.805,183.9l-.5.056a.912.912,0,0,0-.986-.812,1.448,1.448,0,0,0-.656.144,1.357,1.357,0,0,0-.493.422,2.09,2.09,0,0,0-.309.622,2.521,2.521,0,0,0-.1.75q0,1.162,1.067,1.163a2.163,2.163,0,0,0,1.069-.328l.173-.819H552.9l.092-.434h1.674l-.326,1.556a2.805,2.805,0,0,1-1.514.449,1.524,1.524,0,0,1-1.184-.434,1.627,1.627,0,0,1-.407-1.16,2.722,2.722,0,0,1,.16-.931,2.493,2.493,0,0,1,.436-.767,1.77,1.77,0,0,1,.649-.491,2.088,2.088,0,0,1,.852-.165,1.332,1.332,0,0,1,1.472,1.184Z" transform="translate(-479.215 -182.717)" fill="#fff"/>
        <path id="Path_24996" data-name="Path 24996" d="M572.168,185.11a1.432,1.432,0,0,1,.3.278,2.677,2.677,0,0,1,.211.326,3.122,3.122,0,0,1,.192.395l.292.72h-.57l-.274-.712a3.742,3.742,0,0,0-.223-.478,1.7,1.7,0,0,0-.215-.315.611.611,0,0,0-.209-.146,1.172,1.172,0,0,0-.4-.046h-.595l-.355,1.7h-.512l.8-3.819h1.6a3.794,3.794,0,0,1,.495.027,1.012,1.012,0,0,1,.382.129.665.665,0,0,1,.269.3,1.089,1.089,0,0,1,.1.478q0,1-1.29,1.171Zm-1.134-1.683-.269,1.29h.706c.267,0,.474,0,.622-.013a1.262,1.262,0,0,0,.432-.1.747.747,0,0,0,.33-.274.708.708,0,0,0,.12-.4.538.538,0,0,0-.084-.317.374.374,0,0,0-.221-.152,1.681,1.681,0,0,0-.384-.033h-1.247Z" transform="translate(-493.911 -182.943)" fill="#fff"/>
        <path id="Path_24997" data-name="Path 24997" d="M589.966,186.839h-.495l-.186-1.1H587.74l-.612,1.1h-.56l2.166-3.819h.6l.631,3.819Zm-.741-1.493-.148-.958c-.056-.365-.092-.683-.106-.95a6.826,6.826,0,0,1-.38.777l-.629,1.132h1.265Z" transform="translate(-507.17 -182.954)" fill="#fff"/>
        <path id="Path_24998" data-name="Path 24998" d="M610.4,183.02l-.092.434h-1.242l-.706,3.385h-.512l.706-3.385H607.3l.092-.434Z" transform="translate(-523.573 -182.954)" fill="#fff"/>
        <path id="Path_24999" data-name="Path 24999" d="M624.436,183.013l-.092.434H622.1l-.251,1.186h2.188l-.092.434h-2.188l-.276,1.328h2.405l-.092.434H620.88l.8-3.819h2.756Z" transform="translate(-534.318 -182.947)" fill="#fff"/>
        <path id="Path_25000" data-name="Path 25000" d="M637.891,186.834l.8-3.819h1.151a2.448,2.448,0,0,1,.672.071,1.368,1.368,0,0,1,.415.2,1.161,1.161,0,0,1,.292.313,1.4,1.4,0,0,1,.175.43,2.332,2.332,0,0,1,.058.549,2.511,2.511,0,0,1-.138.841,2.227,2.227,0,0,1-.384.687,2.058,2.058,0,0,1-.52.46,1.7,1.7,0,0,1-.545.217,3.14,3.14,0,0,1-.6.054h-1.376Zm1.22-3.385-.616,2.95h.6a3.129,3.129,0,0,0,.656-.058,1.223,1.223,0,0,0,.46-.188,1.414,1.414,0,0,0,.345-.351,2.134,2.134,0,0,0,.267-.53,2.172,2.172,0,0,0,.111-.722,1.734,1.734,0,0,0-.058-.478.874.874,0,0,0-.173-.34.737.737,0,0,0-.3-.209,1.867,1.867,0,0,0-.614-.073h-.677Z" transform="translate(-547.775 -182.948)" fill="#fff"/>
        <path id="Path_25001" data-name="Path 25001" d="M668.053,183.9l-.476.046a.869.869,0,0,0-.92-.823,1.291,1.291,0,0,0-.6.14,1.4,1.4,0,0,0-.482.418,2.04,2.04,0,0,0-.317.614,2.384,2.384,0,0,0-.106.725,1.318,1.318,0,0,0,.276.885.953.953,0,0,0,.766.324,1.134,1.134,0,0,0,.464-.1,1.211,1.211,0,0,0,.416-.32,1.543,1.543,0,0,0,.3-.57l.507.069a2.127,2.127,0,0,1-.685.99,1.654,1.654,0,0,1-1.044.351,1.677,1.677,0,0,1-.762-.165,1.283,1.283,0,0,1-.539-.532,1.911,1.911,0,0,1-.209-.946,2.44,2.44,0,0,1,.566-1.645,1.8,1.8,0,0,1,1.426-.662,1.464,1.464,0,0,1,.981.32,1.276,1.276,0,0,1,.436.881Z" transform="translate(-568.94 -182.702)" fill="#fff"/>
        <path id="Path_25002" data-name="Path 25002" d="M685.486,183.008l-.092.434h-2.244l-.251,1.186h2.188l-.092.434h-2.188l-.276,1.328h2.405l-.093.433H681.93l.8-3.819h2.756Z" transform="translate(-582.621 -182.942)" fill="#fff"/>
        <path id="Path_25003" data-name="Path 25003" d="M702.855,183.02l-.8,3.819h-.505l-.948-2.207q-.263-.614-.392-1.027c-.027.253-.077.555-.15.912l-.484,2.322h-.5l.8-3.819h.495l.643,1.434q.326.727.443,1.04c.077.209.163.464.253.766.05-.33.109-.662.178-.994l.47-2.247h.5Z" transform="translate(-596.19 -182.953)" fill="#fff"/>
        <path id="Path_25004" data-name="Path 25004" d="M722.549,183.02l-.092.434h-1.242l-.706,3.385H720l.706-3.385H719.45l.092-.434Z" transform="translate(-612.307 -182.954)" fill="#fff"/>
        <path id="Path_25005" data-name="Path 25005" d="M736.586,183.008l-.092.434h-2.245l-.25,1.186h2.188l-.092.434h-2.188l-.276,1.328h2.405l-.093.433H733.03l.8-3.819h2.756Z" transform="translate(-623.051 -182.942)" fill="#fff"/>
        <path id="Path_25006" data-name="Path 25006" d="M752.468,185.11a1.434,1.434,0,0,1,.3.278,2.689,2.689,0,0,1,.211.326,3.161,3.161,0,0,1,.192.395l.292.72h-.57l-.274-.712a3.741,3.741,0,0,0-.223-.478,1.7,1.7,0,0,0-.215-.315.611.611,0,0,0-.209-.146,1.173,1.173,0,0,0-.4-.046h-.6l-.355,1.7h-.512l.8-3.819h1.6a3.791,3.791,0,0,1,.495.027,1.011,1.011,0,0,1,.382.129.665.665,0,0,1,.269.3,1.09,1.09,0,0,1,.1.478q0,1-1.29,1.171Zm-1.134-1.683-.269,1.29h.706c.267,0,.474,0,.622-.013a1.26,1.26,0,0,0,.432-.1.746.746,0,0,0,.33-.274.708.708,0,0,0,.12-.4.54.54,0,0,0-.083-.317.374.374,0,0,0-.221-.152,1.682,1.682,0,0,0-.384-.033h-1.247Z" transform="translate(-636.565 -182.943)" fill="#fff"/>
      </g>
      <path id="Path_25008" data-name="Path 25008" d="M321.131,111.141l-1.9,9.077s-33.285-9.135-66.1-2.909-53.647,2.714-53.647,2.714l1.2-4.387s8.795,4.055,23.887,4.055a123.712,123.712,0,0,0,26.526-3.13q2.39-.554,4.8-.99c.136-.025.269-.052.4-.084,2.771-.645,35-7.92,64.834-4.345Z" transform="translate(-161.931 -89.691)" fill="#fff"/>
    </g>
  </g>
</svg>
