<svg xmlns="http://www.w3.org/2000/svg" width="521.852" height="226.367" viewBox="0 0 521.852 226.367">
  <g id="Layer_2" data-name="Layer 2" transform="translate(0.002 0.002)">
    <g id="Layer_1" data-name="Layer 1" transform="translate(-0.002 -0.002)">
      <path id="Path_24979" data-name="Path 24979" d="M109.98,76.168V53.079L88.19,19.6h13.882l14.084,22.743L130.068,19.6h13.738L122.044,53.022V76.111Z" transform="translate(166.346 36.976)" fill="#fff"/>
      <path id="Path_24980" data-name="Path 24980" d="M106,41.309a6.869,6.869,0,1,1,6.869,6.869A6.956,6.956,0,0,1,106,41.309Z" transform="translate(199.939 64.966)" fill="#fff"/>
      <path id="Path_24981" data-name="Path 24981" d="M114.11,76.168V19.6h12.035V76.168Z" transform="translate(215.235 36.976)" fill="#fff"/>
      <path id="Path_24982" data-name="Path 24982" d="M121.61,41.309a6.869,6.869,0,1,1,6.9,6.869A6.956,6.956,0,0,1,121.61,41.309Z" transform="translate(229.381 64.966)" fill="#fff"/>
      <path id="Path_24983" data-name="Path 24983" d="M178.87,76.168v-39.6l-15.932,39.6h-5.253l-15.96-39.6v39.6H129.69V19.6h16.884l13.738,34.2L174.05,19.6h16.971V76.168Z" transform="translate(244.622 36.976)" fill="#fff"/>
      <path id="Path_24984" data-name="Path 24984" d="M154.26,41.309a6.869,6.869,0,1,1,6.869,6.869A6.956,6.956,0,0,1,154.26,41.309Z" transform="translate(290.964 64.966)" fill="#fff"/>
      <path id="Path_24985" data-name="Path 24985" d="M88.2,62.54A13.219,13.219,0,0,1,101.791,49a11.862,11.862,0,0,1,10.015,5.224l-2.886,1.559a8.889,8.889,0,0,0-7.129-3.9,10.765,10.765,0,0,0,0,21.473,8.832,8.832,0,0,0,7.244-3.839l2.886,1.53a11.949,11.949,0,0,1-10.044,5.224A13.218,13.218,0,0,1,88.2,62.54Z" transform="translate(166.34 92.425)" fill="#fff"/>
      <path id="Path_24986" data-name="Path 24986" d="M97.476,61.933a13.132,13.132,0,1,1,13.1,13.651,12.872,12.872,0,0,1-13.1-13.651Zm22.829,0c0-6.176-3.81-10.736-9.726-10.736s-9.7,4.56-9.7,10.736,3.925,10.736,9.7,10.736A9.813,9.813,0,0,0,120.3,61.933Z" transform="translate(183.815 93.032)" fill="#fff"/>
      <path id="Path_24987" data-name="Path 24987" d="M123.617,75.553l-6.725-10.506H111.61V75.553h-3.29V49.116h10.621a7.677,7.677,0,0,1,8.283,7.966,7.273,7.273,0,0,1-6.84,7.677L127.6,75.553Zm.2-18.471a4.906,4.906,0,0,0-5.253-5.022H111.61v10.1h6.956a4.935,4.935,0,0,0,5.253-5.08Z" transform="translate(204.315 92.601)" fill="#fff"/>
      <path id="Path_24988" data-name="Path 24988" d="M116.66,75.537V49.1h10.621a7.966,7.966,0,1,1,0,15.932H119.95V75.537Zm15.5-18.471a4.907,4.907,0,0,0-5.282-5.022H119.95V62.116h6.927a4.935,4.935,0,0,0,5.195-5.051Z" transform="translate(220.045 92.617)" fill="#fff"/>
      <path id="Path_24989" data-name="Path 24989" d="M124.354,61.933a13.132,13.132,0,1,1,13.132,13.651,12.9,12.9,0,0,1-13.132-13.651Zm22.829,0c0-6.176-3.81-10.736-9.7-10.736s-9.726,4.56-9.726,10.736,3.781,10.736,9.726,10.736S147.184,68.051,147.184,61.933Z" transform="translate(234.516 93.032)" fill="#fff"/>
      <path id="Path_24990" data-name="Path 24990" d="M150.478,75.553l-6.725-10.506H138.5V75.553h-3.29V49.116H145.8a7.677,7.677,0,0,1,8.283,7.966,7.244,7.244,0,0,1-6.84,7.677l7.129,10.794Zm.2-18.471a4.907,4.907,0,0,0-5.253-5.022H138.5v10.1h6.927a4.936,4.936,0,0,0,5.253-5.08Z" transform="translate(255.033 92.601)" fill="#fff"/>
      <path id="Path_24991" data-name="Path 24991" d="M164.188,75.537l-2.338-5.772H148.69l-2.338,5.772H142.6L153.221,49.1h4.07l10.65,26.437ZM155.27,52.448,149.5,66.677h11.2Z" transform="translate(268.972 92.617)" fill="#fff"/>
      <path id="Path_24992" data-name="Path 24992" d="M159.4,75.5V52.006H151V49.12h20.2v2.886h-8.4V75.5Z" transform="translate(284.815 92.655)" fill="#fff"/>
      <path id="Path_24993" data-name="Path 24993" d="M159.47,75.537V49.1h3.29V75.537Z" transform="translate(300.791 92.617)" fill="#fff"/>
      <path id="Path_24994" data-name="Path 24994" d="M162.38,62.253a13.1,13.1,0,1,1,13.1,13.1A13.1,13.1,0,0,1,162.38,62.253Zm22.8,0c0-6.176-3.81-10.736-9.7-10.736s-9.7,4.56-9.7,10.736,3.752,10.737,9.7,10.737S185.18,68.372,185.18,62.253Z" transform="translate(306.28 92.711)" fill="#fff"/>
      <path id="Path_24995" data-name="Path 24995" d="M191.942,75.537,176.53,54.584V75.653h-3.29V49.1h3.348L191.8,69.736V49.1h3.29V75.537Z" transform="translate(326.763 92.617)" fill="#fff"/>
      <path id="Path_24996" data-name="Path 24996" d="M224,90.283a110.535,110.535,0,0,0-6.609-21.242,112.56,112.56,0,0,0-41.041-49.757A115.965,115.965,0,0,0,135.8,2.314a112.964,112.964,0,0,0-45.515,0,110.453,110.453,0,0,0-21.242,6.58A112.906,112.906,0,0,0,19.284,49.935,115.879,115.879,0,0,0,2.314,90.514a112.964,112.964,0,0,0,0,45.515,110.829,110.829,0,0,0,6.58,21.213A112.559,112.559,0,0,0,49.7,207.028,115.878,115.878,0,0,0,90.283,224a113.148,113.148,0,0,0,116.745-47.65A115.965,115.965,0,0,0,224,135.8,114,114,0,0,0,224,90.283Zm-20.2,41.5a88.773,88.773,0,0,1-5.426,17.461A93.424,93.424,0,0,1,164.8,189.8a89.125,89.125,0,0,1-33.018,13.911,90.22,90.22,0,0,1-10.39,1.558V185.3c2.251-.289,4.5-.635,6.725-1.126a72.442,72.442,0,0,0,13.911-4.5,81.768,81.768,0,0,0,12.757-7.071,83.378,83.378,0,0,0,11.083-9.438,72.156,72.156,0,0,0,8.947-11.545,85.4,85.4,0,0,0,6.84-13.074,76.774,76.774,0,0,0,4.243-14.6,86.907,86.907,0,0,0,1.414-15.816H169.393a63.5,63.5,0,0,1-1.183,11.8,58.96,58.96,0,0,1-3.29,11.083,57.952,57.952,0,0,1-5.2,10.13,61.357,61.357,0,0,1-6.84,8.658,84.906,84.906,0,0,1-8.254,7.3,48.687,48.687,0,0,1-9.669,5.426,54.837,54.837,0,0,1-43.869,0,57.258,57.258,0,0,1-9.669-5.426,41.59,41.59,0,0,1-8.254-7.3,49.643,49.643,0,0,1-6.84-8.658,54.058,54.058,0,0,1-5.2-10.13,61.185,61.185,0,0,1-3.406-11.227,70.507,70.507,0,0,1-1.183-11.8H38.968a91.548,91.548,0,0,0,1.443,15.816,81.216,81.216,0,0,0,4.214,14.748,90.741,90.741,0,0,0,6.84,13.219A84.218,84.218,0,0,0,60.441,163.3a69.643,69.643,0,0,0,11.083,9.438,67.075,67.075,0,0,0,12.728,7.071,70.8,70.8,0,0,0,20.636,5.772v19.972A90.675,90.675,0,0,1,94.526,204a87.592,87.592,0,0,1-17.461-5.715A93.424,93.424,0,0,1,36.659,164.8a89.182,89.182,0,0,1-14.084-33.017,91.058,91.058,0,0,1,0-37.26A89.471,89.471,0,0,1,28,77.065,92.357,92.357,0,0,1,61.508,36.659,88.98,88.98,0,0,1,94.526,22.574,99.8,99.8,0,0,1,113.142,20.7a100.091,100.091,0,0,1,18.645,1.876A90.769,90.769,0,0,1,149.247,28,93.684,93.684,0,0,1,189.8,61.508a88.923,88.923,0,0,1,13.911,33.018,90.048,90.048,0,0,1,0,37.26Z" transform="translate(0.002 0.002)" fill="#fff"/>
    </g>
  </g>
</svg>
