<svg xmlns="http://www.w3.org/2000/svg" width="35.383" height="35.383" viewBox="0 0 35.383 35.383">
  <g id="vuesax_bold_book-saved" data-name="vuesax/bold/book-saved" transform="translate(-108 -255)">
    <g id="book-saved" transform="translate(108 255)">
      <path id="Vector" d="M0,0H35.383V35.383H0Z" fill="none" opacity="0"/>
      <path id="Vector-2" data-name="Vector" d="M13.637,4.3V24.812a1.471,1.471,0,0,1-2.02,1.371,37.751,37.751,0,0,0-8.566-2.477l-.457-.059A3.031,3.031,0,0,1,0,20.728V3.2A3.2,3.2,0,0,1,3.2,0h.1a28.29,28.29,0,0,1,9.553,2.993A1.473,1.473,0,0,1,13.637,4.3Z" transform="translate(2.949 4.541)" fill="#3c97ff"/>
      <path id="Vector-3" data-name="Vector" d="M10.438,0h-.088A11.441,11.441,0,0,0,9.214.147a29.8,29.8,0,0,0-5.9,1.681A27.1,27.1,0,0,0,.8,2.993,1.5,1.5,0,0,0,0,4.3V24.812a1.471,1.471,0,0,0,2.02,1.371,37.751,37.751,0,0,1,8.566-2.477l.457-.059a3.031,3.031,0,0,0,2.595-2.919V3.2A3.2,3.2,0,0,0,10.438,0ZM9.612,15.7c0,.575-.413.826-.914.545l-1.563-.87a.721.721,0,0,0-.6,0l-1.563.87c-.5.28-.914.029-.914-.545V11.175A1.246,1.246,0,0,1,5.293,9.937h3.1a1.246,1.246,0,0,1,1.238,1.238V15.7Z" transform="translate(18.797 4.541)" fill="#3c97ff" opacity="0.45"/>
    </g>
  </g>
</svg>
