<svg xmlns="http://www.w3.org/2000/svg" width="31" height="31" viewBox="0 0 31 31">
  <g id="vuesax_bold_profile-2user" data-name="vuesax/bold/profile-2user" transform="translate(-172 -252)">
    <g id="profile-2user" transform="translate(172 252)">
      <path id="Vector" d="M6.135,0A6.13,6.13,0,0,0,5.98,12.258a1.042,1.042,0,0,1,.284,0h.09A6.131,6.131,0,0,0,6.135,0Z" transform="translate(5.49 2.583)" fill="#3c97ff"/>
      <path id="Vector-2" data-name="Vector" d="M15.655,1.8a12.825,12.825,0,0,0-13.11,0A5.1,5.1,0,0,0,0,5.974,5.056,5.056,0,0,0,2.532,10.12a11.934,11.934,0,0,0,6.562,1.821,11.934,11.934,0,0,0,6.562-1.821,5.1,5.1,0,0,0,2.532-4.172A5.086,5.086,0,0,0,15.655,1.8Z" transform="translate(2.532 16.475)" fill="#3c97ff"/>
      <path id="Vector-3" data-name="Vector" d="M7.595,4.241a4.623,4.623,0,0,1-4.043,5H3.487a.6.6,0,0,0-.22.026A4.634,4.634,0,0,1,0,8.194,5.911,5.911,0,0,0,1.937,3.285,5.994,5.994,0,0,0,.943.469,4.638,4.638,0,0,1,7.595,4.241Z" transform="translate(18.225 5.24)" fill="#3c97ff" opacity="0.45"/>
      <path id="Vector-4" data-name="Vector" d="M10.333,5.283A3.934,3.934,0,0,1,8.086,8.358,9.117,9.117,0,0,1,3.552,9.365a4.611,4.611,0,0,0,1.576-3A5.089,5.089,0,0,0,2.971,2,10.663,10.663,0,0,0,0,.375,10.1,10.1,0,0,1,8.654,1.886,3.925,3.925,0,0,1,10.333,5.283Z" transform="translate(18.07 16.145)" fill="#3c97ff" opacity="0.45"/>
      <path id="Vector-5" data-name="Vector" d="M0,0H31V31H0Z" transform="translate(31 31) rotate(180)" fill="none" opacity="0"/>
    </g>
  </g>
</svg>
