<svg xmlns="http://www.w3.org/2000/svg" xmlns:xlink="http://www.w3.org/1999/xlink" width="59.719" height="59.719" viewBox="0 0 59.719 59.719">
  <defs>
    <linearGradient id="linear-gradient" x1="0.226" y1="0.114" x2="0.863" y2="1" gradientUnits="objectBoundingBox">
      <stop offset="0" stop-color="#473af7"/>
      <stop offset="1" stop-color="#269ff3" stop-opacity="0"/>
    </linearGradient>
  </defs>
  <g id="vuesax_bold_maximize" data-name="vuesax/bold/maximize" transform="translate(-620 -252)">
    <g id="maximize" transform="translate(620 252)">
      <path id="Vector" d="M47.153,5.3a10.61,10.61,0,0,0-2.687-2.687A15.284,15.284,0,0,0,35.309,0H14.457a14.141,14.141,0,0,0-1.468.075C4.827.6,0,5.9,0,14.457V35.309a15.284,15.284,0,0,0,2.613,9.157A10.61,10.61,0,0,0,5.3,47.153a14.379,14.379,0,0,0,7.689,2.563c.473.025.97.05,1.468.05H35.309c9.057,0,14.457-5.4,14.457-14.457V14.457A15.284,15.284,0,0,0,47.153,5.3ZM41.679,19.906a1.866,1.866,0,0,1-3.732,0V14.457L27.52,24.883,37.946,35.309V29.859a1.866,1.866,0,0,1,3.732,0v9.953a1.875,1.875,0,0,1-.149.722,1.947,1.947,0,0,1-1.02,1.02,1.785,1.785,0,0,1-.722.149H29.834a1.866,1.866,0,1,1,0-3.732h5.449L24.883,27.52,14.457,37.946h5.449a1.866,1.866,0,0,1,0,3.732H9.953a1.785,1.785,0,0,1-.722-.149,1.947,1.947,0,0,1-1.02-1.02,2.159,2.159,0,0,1-.124-.7V29.859a1.866,1.866,0,0,1,3.732,0v5.449L22.245,24.883,11.819,14.457v5.449a1.866,1.866,0,0,1-3.732,0V9.953a1.875,1.875,0,0,1,.149-.722,1.947,1.947,0,0,1,1.02-1.02,2.159,2.159,0,0,1,.7-.124h9.953a1.866,1.866,0,0,1,0,3.732H14.457L24.883,22.245,35.309,11.819H29.859a1.866,1.866,0,0,1,0-3.732h9.953a1.875,1.875,0,0,1,.722.149,1.947,1.947,0,0,1,1.02,1.02,2.159,2.159,0,0,1,.124.7Z" transform="translate(4.977 4.977)" fill="url(#linear-gradient)"/>
      <path id="Vector-2" data-name="Vector" d="M0,0H59.719V59.719H0Z" transform="translate(59.719 59.719) rotate(180)" fill="none" opacity="0"/>
    </g>
  </g>
</svg>
