<svg xmlns="http://www.w3.org/2000/svg" width="37.098" height="37.098" viewBox="0 0 37.098 37.098">
  <g id="vuesax_bold_wallet" data-name="vuesax/bold/wallet" transform="translate(-108 -508)">
    <g id="wallet" transform="translate(108 508)">
      <path id="Vector" d="M9.259.315,5.534,8.987H1.809A8.752,8.752,0,0,0,0,9.157l1.546-3.71.062-.139L1.7,5.061a2.452,2.452,0,0,1,.124-.278C3.617.624,5.627-.674,9.259.315Z" transform="translate(9.197 3.101)" fill="#3c97ff" opacity="0.45"/>
      <path id="Vector-2" data-name="Vector" d="M12.536,8.61l-.031-.015a10.337,10.337,0,0,0-2.829-.4H0L3.478.108,3.524,0c.216.077.448.185.68.263L7.621,1.7a10.228,10.228,0,0,1,4.05,2.6c.139.185.263.356.386.556a2.352,2.352,0,0,1,.309.665,2.068,2.068,0,0,1,.139.4A5.417,5.417,0,0,1,12.536,8.61Z" transform="translate(16.416 3.895)" fill="#3c97ff" opacity="0.45"/>
      <path id="Vector-3" data-name="Vector" d="M0,2.056H.386a.9.9,0,0,0,.85-.927c0-.649-.185-.742-.587-.9L0,0Z" transform="translate(19.353 25.242)" fill="#3c97ff"/>
      <path id="Vector-4" data-name="Vector" d="M24.809.309A7.817,7.817,0,0,0,22.63,0H7.543A7.383,7.383,0,0,0,4.575.6,7.564,7.564,0,0,0,0,7.543v3.014a8.731,8.731,0,0,0,.077,1.1q.51,7.373,7.883,7.868a8.338,8.338,0,0,0,1.1.077H21.115c5.719,0,8.734-2.721,9.027-8.131.015-.294.031-.6.031-.912V7.543A7.574,7.574,0,0,0,24.809.309ZM17.065,9.553a2.284,2.284,0,0,1,1.669,2.411A2.491,2.491,0,0,1,16.277,14.5H15.89v.34a.8.8,0,1,1-1.608,0V14.5h-.139a2.759,2.759,0,0,1-2.705-2.8.8.8,0,0,1,1.608,0,1.154,1.154,0,0,0,1.1,1.19h.139V10.279l-1.175-.417a2.284,2.284,0,0,1-1.669-2.411A2.491,2.491,0,0,1,13.9,4.916h.386v-.34a.8.8,0,0,1,1.608,0v.34h.139a2.759,2.759,0,0,1,2.705,2.8.8.8,0,0,1-1.608,0,1.154,1.154,0,0,0-1.1-1.19H15.89V9.135Z" transform="translate(3.463 14.407)" fill="#3c97ff"/>
      <path id="Vector-5" data-name="Vector" d="M0,.927c0,.649.185.742.587.9l.649.232V0H.85A.886.886,0,0,0,0,.927Z" transform="translate(16.509 20.93)" fill="#3c97ff"/>
      <path id="Vector-6" data-name="Vector" d="M0,0H37.1V37.1H0Z" fill="none" opacity="0"/>
    </g>
  </g>
</svg>
