<svg id="vuesax_bold_coin" data-name="vuesax/bold/coin" xmlns="http://www.w3.org/2000/svg" width="37.323" height="37.323" viewBox="0 0 37.323 37.323">
  <g id="coin" transform="translate(0 0)">
    <path id="Vector" d="M15.348,7.312a9.371,9.371,0,0,1-8.04,8.04A9.235,9.235,0,0,1,.652,13.641,1.553,1.553,0,0,1,1.1,10.889a14.752,14.752,0,0,0,9.8-9.8A1.562,1.562,0,0,1,13.653.64,9.361,9.361,0,0,1,15.348,7.312Z" transform="translate(18.741 18.737)" fill="#3c97ff" opacity="0.45"/>
    <path id="Vector-2" data-name="Vector" d="M12.425,0A12.425,12.425,0,1,0,24.851,12.425,12.431,12.431,0,0,0,12.425,0ZM10.964,10.684l3.748,1.306a2.786,2.786,0,0,1,2.006,2.893,3.031,3.031,0,0,1-2.97,3.064h-.14v.078a1.166,1.166,0,0,1-2.333,0v-.093A3.292,3.292,0,0,1,8.164,14.6a1.166,1.166,0,1,1,2.333,0,.96.96,0,0,0,.9,1.011h2.333a.685.685,0,0,0,.638-.731c0-.544-.093-.575-.451-.7l-3.748-1.306A2.78,2.78,0,0,1,8.164,9.984a3.031,3.031,0,0,1,2.97-3.064h.14V6.858a1.166,1.166,0,1,1,2.333,0v.093a3.292,3.292,0,0,1,3.11,3.328,1.166,1.166,0,1,1-2.333,0,.96.96,0,0,0-.9-1.011H11.15a.685.685,0,0,0-.638.731C10.5,10.528,10.59,10.559,10.964,10.684Z" transform="translate(3.11 3.11)" fill="#3c97ff"/>
    <path id="Vector-3" data-name="Vector" d="M0,0H37.323V37.323H0Z" fill="none" opacity="0"/>
  </g>
</svg>
