<svg xmlns="http://www.w3.org/2000/svg" xmlns:xlink="http://www.w3.org/1999/xlink" width="63.819" height="63.819" viewBox="0 0 63.819 63.819">
  <defs>
    <linearGradient id="linear-gradient" x1="0.5" x2="0.5" y2="1" gradientUnits="objectBoundingBox">
      <stop offset="0" stop-color="#473af7"/>
      <stop offset="1" stop-color="#269ff3" stop-opacity="0"/>
    </linearGradient>
  </defs>
  <g id="vuesax_bold_security-safe" data-name="vuesax/bold/security-safe" transform="translate(-364 -316)">
    <g id="security-safe" transform="translate(364 316)">
      <path id="Vector" d="M0,0H63.819V63.819H0Z" transform="translate(63.819 63.819) rotate(180)" fill="none" opacity="0"/>
      <path id="Vector-2" data-name="Vector" d="M47.386,24.231V12.558a6.388,6.388,0,0,0-3.7-5.478L28.878,1.017a13.794,13.794,0,0,0-10.4,0L3.67,7.08A6.41,6.41,0,0,0,0,12.558V24.231c0,13,9.44,25.182,22.337,28.745a5.213,5.213,0,0,0,2.712,0C37.946,49.413,47.386,37.235,47.386,24.231Zm-21.7,4.653v6.994a1.994,1.994,0,0,1-3.989,0V28.885a6.648,6.648,0,1,1,3.989,0Z" transform="translate(8.217 5.338)" fill="url(#linear-gradient)"/>
    </g>
  </g>
</svg>
