<svg xmlns="http://www.w3.org/2000/svg" width="15.045" height="15.045" viewBox="0 0 15.045 15.045">
  <g id="vuesax_bold_cpu-setting" data-name="vuesax/bold/cpu-setting" transform="translate(-232 -190)">
    <g id="cpu-setting" transform="translate(232 190)">
      <path id="Vector" d="M.056,2.558A3.459,3.459,0,0,0,0,3.134,3.525,3.525,0,0,1,.056,2.558ZM0,6.9a3.459,3.459,0,0,0,.056.577A3.525,3.525,0,0,1,0,6.9ZM2.564,9.974a3.384,3.384,0,0,0,.57.056A3.449,3.449,0,0,1,2.564,9.974Zm0-9.917A3.449,3.449,0,0,1,3.134,0,3.384,3.384,0,0,0,2.564.056Zm4.908,0A3.459,3.459,0,0,0,6.9,0,3.525,3.525,0,0,1,7.472.056Zm2.5,2.5a3.525,3.525,0,0,1,.056.577A3.459,3.459,0,0,0,9.974,2.558Z" transform="translate(2.507 2.507)" fill="#fff"/>
      <path id="Vector-2" data-name="Vector" d="M12.537,3.949a.466.466,0,0,1-.47.47h-.784V6.043L10.876,5.8a1.151,1.151,0,0,0-.884-.125,1.259,1.259,0,0,0-.426.194V4.852A1.886,1.886,0,0,0,7.685,2.971H4.852A1.886,1.886,0,0,0,2.971,4.852V7.685A1.886,1.886,0,0,0,4.852,9.566h.414V9.7a1.264,1.264,0,0,0,1.266,1.254,1.284,1.284,0,0,0-.138.332H4.426v.784a.47.47,0,0,1-.94,0v-.922A3.137,3.137,0,0,1,1.4,9.058H.47a.47.47,0,0,1,0-.94h.784V6.739H.47a.47.47,0,0,1,0-.94h.784V4.419H.47a.47.47,0,0,1,0-.94H1.4A3.137,3.137,0,0,1,3.485,1.392V.47a.47.47,0,0,1,.94,0v.784H5.8V.47a.47.47,0,0,1,.94,0v.784H8.118V.47a.47.47,0,0,1,.94,0V1.4A3.119,3.119,0,0,1,11.14,3.479h.928A.47.47,0,0,1,12.537,3.949Z" transform="translate(1.254 1.254)" fill="#fff"/>
      <path id="Vector-3" data-name="Vector" d="M6.012,2.214c-.426,0-.671-.213-.671-.527a.841.841,0,0,1,.125-.42A.626.626,0,0,0,5.234.408L4.664.076a.555.555,0,0,0-.759.2L3.868.339a.576.576,0,0,1-1.091,0L2.739.277a.548.548,0,0,0-.752-.2L1.41.408a.629.629,0,0,0-.32.545.641.641,0,0,0,.088.313.855.855,0,0,1,.132.42c0,.313-.251.527-.677.527A.634.634,0,0,0,0,2.841V3.43a.634.634,0,0,0,.633.627c.426,0,.677.213.677.527A.855.855,0,0,1,1.179,5a.626.626,0,0,0,.232.859l.577.332a.548.548,0,0,0,.752-.2l.038-.063a.576.576,0,0,1,1.091,0l.038.063a.555.555,0,0,0,.759.2l.57-.332a.629.629,0,0,0,.32-.545A.641.641,0,0,0,5.466,5a.841.841,0,0,1-.125-.42c0-.313.244-.527.671-.527a.63.63,0,0,0,.633-.627V2.841A.63.63,0,0,0,6.012,2.214Zm-2.689,2A1.078,1.078,0,1,1,4.4,3.135,1.078,1.078,0,0,1,3.322,4.214Z" transform="translate(7.146 7.522)" fill="#fff"/>
      <path id="Vector-4" data-name="Vector" d="M5.328,1.423v.915a1.046,1.046,0,0,0-.483-.263,1.134,1.134,0,0,0-.884.119l-.57.332a1.249,1.249,0,0,0-.639,1.091,1.232,1.232,0,0,0,.169.633A1.263,1.263,0,0,0,1.674,5.328H1.423A1.418,1.418,0,0,1,0,3.905V1.423A1.418,1.418,0,0,1,1.423,0H3.905A1.418,1.418,0,0,1,5.328,1.423Z" transform="translate(4.858 4.858)" fill="#fff"/>
      <path id="Vector-5" data-name="Vector" d="M0,0H15.045V15.045H0Z" transform="translate(15.045 15.045) rotate(180)" fill="none" opacity="0"/>
    </g>
  </g>
</svg>
