<svg id="vuesax_bold_bag-tick" data-name="vuesax/bold/bag-tick" xmlns="http://www.w3.org/2000/svg" width="36.462" height="36.462" viewBox="0 0 36.462 36.462">
  <g id="bag-tick" transform="translate(0 0)">
    <path id="Vector" d="M26.192,5.443h-.608L20.449.308a1.073,1.073,0,0,0-1.5,0,1.073,1.073,0,0,0,0,1.5l3.631,3.631H7.809L11.44,1.812a1.073,1.073,0,0,0,0-1.5,1.073,1.073,0,0,0-1.5,0L4.816,5.443H4.208C2.841,5.443,0,5.443,0,9.332a4.141,4.141,0,0,0,.942,3.084,2.453,2.453,0,0,0,1.276.684,5.875,5.875,0,0,0,1.367.122H26.8a6.345,6.345,0,0,0,1.337-.122c1.276-.3,2.249-1.215,2.249-3.768C30.385,5.443,27.544,5.443,26.192,5.443Z" transform="translate(3.039 3.035)" fill="#3c97ff" opacity="0.45"/>
    <path id="Vector-2" data-name="Vector" d="M23.068,0H1.525A1.517,1.517,0,0,0,.02,1.762L1.3,9.571c.425,2.613,1.565,5.621,6.624,5.621h8.523c5.12,0,6.031-2.568,6.578-5.439l1.534-7.946A1.514,1.514,0,0,0,23.068,0Zm-6.4,6.153-4.938,4.558a1.138,1.138,0,0,1-1.58-.03L7.875,8.4a1.146,1.146,0,0,1,0-1.61,1.165,1.165,0,0,1,1.626,0L11,8.3l4.132-3.813a1.147,1.147,0,0,1,1.61.061A1.134,1.134,0,0,1,16.672,6.153Z" transform="translate(5.935 18.231)" fill="#3c97ff"/>
    <path id="Vector-3" data-name="Vector" d="M0,0H36.462V36.462H0Z" transform="translate(36.462 36.462) rotate(180)" fill="none" opacity="0"/>
  </g>
</svg>
